<?xml version="1.0" standalone="no"?>
<!DOCTYPE svg PUBLIC "-//W3C//DTD SVG 1.1//EN" "http://www.w3.org/Graphics/SVG/1.1/DTD/svg11.dtd">
<!--Generator: Xara Xtreme (www.xara.com), SVG filter version: 1.0.0.13-->
<svg stroke-width="0.501" stroke-linejoin="bevel" fill-rule="evenodd" xmlns:xlink="http://www.w3.org/1999/xlink" xmlns="http://www.w3.org/2000/svg" version="1.1" overflow="visible" width="270pt" height="480pt" viewBox="0 0 270 480">
 <defs>
  <marker id="DefaultArrow2" markerUnits="strokeWidth" viewBox="0 0 1 1" markerWidth="1" markerHeight="1" overflow="visible" orient="auto">
   <!-- REF_ARROW_STRAIGHT (-2) -->
   <g transform="scale(0.0092592592)">
    <!-- 1/108 -->
    <path d="M -9 54 L -9 -54 L 117 0 z"/>
   </g>
  </marker>
  <marker id="DefaultArrow3" markerUnits="strokeWidth" viewBox="0 0 1 1" markerWidth="1" markerHeight="1" overflow="visible" orient="auto">
   <!-- REF_ARROW_ANGLED -->
   <g transform="scale(0.0092592592)">
    <path d="M -27 54 L -9 0 L -27 -54 L 135 0 z"/>
   </g>
  </marker>
  <marker id="DefaultArrow4" markerUnits="strokeWidth" viewBox="0 0 1 1" markerWidth="1" markerHeight="1" overflow="visible" orient="auto">
   <!-- REF_ARROW_ROUNDED -->
   <g transform="scale(0.0092592592)">
    <path d="M -9,0 L -9,-45 C -9,-51.708 2.808,-56.580 9,-54 L 117,-9 C 120.916,-7.369 126.000,-4.242 126,0 C 126,4.242 120.916,7.369 117,9 L 9,54 C 2.808,56.580 -9,51.708 -9,45 z"/>
   </g>
  </marker>
  <marker id="DefaultArrow5" markerUnits="strokeWidth" viewBox="0 0 1 1" markerWidth="1" markerHeight="1" overflow="visible" orient="auto">
   <!-- REF_ARROW_SPOT -->
   <g transform="scale(0.0092592592)">
    <path d="M -54, 0 C -54,29.807 -29.807,54 0,54 C 29.807,54 54,29.807 54,0 C 54,-29.807 29.807,-54 0,-54 C -29.807,-54 -54,-29.807 -54,0 z"/>
   </g>
  </marker>
  <marker id="DefaultArrow6" markerUnits="strokeWidth" viewBox="0 0 1 1" markerWidth="1" markerHeight="1" overflow="visible" orient="auto">
   <!-- REF_ARROW_DIAMOND -->
   <g transform="scale(0.0092592592)">
    <path d="M -63,0 L 0,63 L 63,0 L 0,-63 z"/>
   </g>
  </marker>
  <marker id="DefaultArrow7" markerUnits="strokeWidth" viewBox="0 0 1 1" markerWidth="1" markerHeight="1" overflow="visible" orient="auto">
   <!-- REF_ARROW_FEATHER -->
   <g transform="scale(0.0092592592)">
    <path d="M 18,-54 L 108,-54 L 63,0 L 108,54 L 18, 54 L -36,0 z"/>
   </g>
  </marker>
  <marker id="DefaultArrow8" markerUnits="strokeWidth" viewBox="0 0 1 1" markerWidth="1" markerHeight="1" overflow="visible" orient="auto">
   <!-- REF_ARROW_FEATHER2 -->
   <g transform="scale(0.0092592592)">
    <path d="M -36,0 L 18,-54 L 54,-54 L 18,-18 L 27,-18 L 63,-54 L 99,-54 L 63,-18 L 72,-18 L 108,-54 L 144,-54 L 90,0 L 144,54 L 108,54 L 72,18 L 63,18 L 99,54 L 63,54 L 27,18 L 18,18 L 54,54 L 18,54 z"/>
   </g>
  </marker>
  <marker id="DefaultArrow9" markerUnits="strokeWidth" viewBox="0 0 1 1" markerWidth="1" markerHeight="1" overflow="visible" orient="auto">
   <!-- REF_ARROW_HOLLOWDIAMOND -->
   <g transform="scale(0.0092592592)">
    <path d="M 0,45 L -45,0 L 0, -45 L 45, 0 z M 0, 63 L-63, 0 L 0, -63 L 63, 0 z"/>
   </g>
  </marker>
  <filter id="StainedFilter">
   <feBlend mode="multiply" in2="BackgroundImage" in="SourceGraphic" result="blend"/>
   <feComposite in="blend" in2="SourceAlpha" operator="in" result="comp"/>
  </filter>
  <filter id="BleachFilter">
   <feBlend mode="screen" in2="BackgroundImage" in="SourceGraphic" result="blend"/>
   <feComposite in="blend" in2="SourceAlpha" operator="in" result="comp"/>
  </filter>
  <filter id="InvertTransparencyBitmapFilter">
   <feComponentTransfer>
    <feFuncR type="gamma" amplitude="1.055" exponent=".416666666" offset="-0.055"/>
    <feFuncG type="gamma" amplitude="1.055" exponent=".416666666" offset="-0.055"/>
    <feFuncB type="gamma" amplitude="1.055" exponent=".416666666" offset="-0.055"/>
   </feComponentTransfer>
   <feComponentTransfer>
    <feFuncR type="linear" slope="-1" intercept="1"/>
    <feFuncG type="linear" slope="-1" intercept="1"/>
    <feFuncB type="linear" slope="-1" intercept="1"/>
    <feFuncA type="linear" slope="1" intercept="0"/>
   </feComponentTransfer>
   <feComponentTransfer>
    <feFuncR type="gamma" amplitude="1" exponent="2.4" offset="0"/>
    <feFuncG type="gamma" amplitude="1" exponent="2.4" offset="0"/>
    <feFuncB type="gamma" amplitude="1" exponent="2.4" offset="0"/>
   </feComponentTransfer>
  </filter>
 </defs>
 <g id="Document" fill="none" stroke="black" font-family="Times New Roman" font-size="16" transform="scale(1 -1)">
  <g id="Spread" transform="translate(0 -480)">
   <g id="Layer 1">
    <g id="Group" stroke="none">
     <path d="M 80.55,320.169 C 63.873,328.935 81.692,362.169 81.692,374.59 C 79.461,374.386 77.881,372.357 75.896,371.555 C 74.286,375.405 72.749,372.766 71.255,375.405 C 72.735,380.47 79.794,382.496 80.126,387.968 C 73.835,390.39 67.517,385.53 65.081,380.266 C 61.7,387.56 66.849,395.262 70.866,400.936 C 67.993,404.789 65.893,396.88 63.877,395.655 C 63.013,398.003 62.092,400.999 62.162,403.088 C 62.551,415.071 76.473,422.601 75.343,434.153 C 77.751,434.971 76.068,429.704 78.475,430.113 C 70.373,446.524 98.714,459.291 92.262,477.116 C 97.64,472.258 97.815,462.12 93.408,456.037 C 94.175,455.644 95.246,457.058 96.191,457.058 C 95.277,448.742 104.642,449.149 101.728,441.855 C 111.208,440.238 121.298,444.291 130.257,438.823 C 142.479,450.377 152.047,469.414 170.488,467.183 C 171.488,465.769 169.417,465.36 168.517,464.95 C 155.438,466.381 155.077,452.186 147.641,446.321 C 149.67,440.238 141.408,431.937 136.305,432.126 C 141.292,424.437 149.523,414.095 146.829,404.379 C 152.365,406.612 158.077,403.767 163.849,404.775 C 164.269,402.76 161.486,402.556 160.516,401.328 C 169.298,397.684 171.228,385.53 180.955,383.502 C 176.809,380.875 181.84,376.822 185.291,374.59 C 203.875,368.505 221.664,356.762 225.287,335.885 C 233.55,335.681 233.347,327.994 233.753,321.299 C 232.349,318.877 228.114,319.27 226.911,317.446 C 235.363,316.848 237.377,297.998 229.115,300.828 C 234.348,294.965 232.738,284.229 229.115,277.736 C 223.083,273.082 220.054,282.406 214.414,283.82 C 214.82,283.207 215.632,282.798 216.226,282.406 C 225.287,273.286 220.46,254.438 206.776,253.827 C 204.396,257.676 203.774,262.534 201.092,266.387 C 198.859,269.027 196.466,271.857 193.133,272.877 C 194.929,260.916 196.175,243.292 179.65,243.701 C 178.344,251.405 176.489,259.093 174.91,266.591 C 173.458,259.093 162.473,254.03 162.529,264.97 C 158.889,273.286 160.877,285.235 152.613,290.704 C 152.365,288.678 151.133,286.446 149.25,285.44 C 147.452,288.065 140.319,295.562 144.712,286.649 C 151.742,272.877 147.407,253.621 132.129,248.15 C 130.106,244.493 132.644,240.219 132.682,236.651 C 132.686,236.369 132.672,236.091 132.641,235.82 C 132.607,235.537 132.553,235.263 132.476,234.991 C 115.341,242.082 119.559,260.711 122.198,274.907 C 123.671,279.907 110.375,290.136 112.552,284.918 C 112.755,284.425 113.098,284.824 113.602,284.024 C 131.695,247.733 82.476,220.085 92.74,185.34 C 93.363,183.226 95.79,178.845 94.378,179.264 C 88.797,193.05 74.765,205.814 74.881,222.227 C 75.067,225.465 75.546,228.5 75.851,231.739 C 73.169,224.852 69.124,218.374 67.24,211.08 C 60.629,177.644 64.458,139.759 81.39,110.172 C 83.084,111.178 85.418,113.003 87.13,110.786 C 78.549,130.029 67.762,150.699 68.907,172.174 C 70.24,172.174 69.879,170.146 70.11,169.139 C 74.342,144.413 86.144,120.502 101.017,99.844 C 109.08,91.732 99.67,96.795 94.479,99.028 C 91.9,100.442 90.391,103.084 88.232,104.906 C 82.814,101.07 106.658,79.261 124.372,80.791 C 122.894,85.855 114.792,86.261 111.296,90.727 C 110.382,91.325 108.412,91.529 108.772,92.946 C 111.254,92.754 113.791,90.318 116.559,89.909 C 120.171,89.502 123.126,91.12 126.229,92.141 C 137.827,85.256 153.093,77.757 148.641,61.752 C 155.949,56.674 163.939,50.673 170.201,44.071 C 171.692,42.5 174.218,39.689 173.707,39.259 C 165.312,52.432 138.942,49.177 140.088,68.434 C 138.912,70.667 137.407,73.09 135.449,74.911 C 130.505,77.347 131.563,68.843 128.041,67.618 C 108.614,73.294 91.217,89.107 78.503,104.702 C 77.954,106.525 79.374,108.35 80.49,109.356 C 66.978,115.439 58.438,130.232 54.208,143.815 C 55.814,118.678 72.473,96.795 94.276,85.051 C 95.725,83.637 100.524,82.205 99.206,79.989 C 93.697,84.234 87.651,87.473 81.897,91.325 C 36.23,109.167 33.39,165.288 41.667,207.228 C 48.706,246.696 63.541,283.746 81.076,319.774 C 81.256,320.145 81.022,319.921 80.55,320.169 Z" fill="#000000" marker-start="none" marker-end="none"/>
     <path d="M 84.55,415.918 C 84.554,415.894 84.557,415.869 84.56,415.844 C 84.837,413.581 81.578,408.254 85.362,410.448 C 88.116,411.673 89.348,415.32 92.463,416.327 C 108.629,420.179 93.51,397.793 88.438,411.566 C 86.262,409.948 84.354,404.513 88.354,406.949 C 89.478,407.414 90.517,406.543 91.91,406.126 C 92.925,405.819 94.248,405.643 95.505,405.979 C 96.999,406.427 98.2,407.526 99.246,408.597 C 100.986,410.385 101.954,412.632 101.264,414.912 C 101.376,415.002 100.867,415.895 100.933,415.991 C 101.313,416.537 101.628,416.296 101.67,416.121 C 110.484,413.088 123.909,420.179 129.606,410.243 C 128.259,410.652 125.301,410.855 125.49,408.625 C 133.201,407.821 132.49,397.684 128.245,393.438 C 127.562,394.853 126.272,398.703 124.273,397.289 C 126.692,394.649 124.879,384.714 121.865,389.586 C 120.777,386.552 119.646,382.496 116.37,381.27 C 115.747,383.502 115.299,388.974 112.804,388.768 C 114.718,377.419 105.15,369.936 96.625,365.47 C 94.74,366.684 94.84,369.322 94.017,370.943 C 92.159,370.533 92.449,367.5 91.392,366.288 C 88.942,369.528 87.593,374.18 87.97,378.237 C 88.116,382.088 85.114,382.699 84.214,378.849 C 80.91,375.8 74.503,370.739 75.49,376.616 C 74.429,376.413 73.575,375.405 72.532,375.405 C 73.866,380.266 81.533,382.292 81.186,387.968 C 83.419,388.768 86.158,390.185 85.824,393.233 C 87.304,393.641 89.044,391.41 89.986,392.62 C 86.839,396.676 78.069,396.676 78.577,404.174 C 78.433,408.436 71.864,417.742 70.719,409.647 C 77.59,411.44 76.421,403.655 78.878,398.927 C 80.068,396.637 81.741,396.4 84.114,394.853 C 83.336,394.682 82.373,394.5 81.419,395.09 C 79.16,396.488 76.568,399.932 73.835,401.653 C 70.516,403.746 67.079,403.889 64.57,398.703 C 64.153,397.684 63.775,399.711 63.818,400.117 C 63.268,401.139 63.429,402.556 63.412,403.767 C 63.412,413.701 71.328,413.088 74.286,418.151 C 75.794,414.299 77.083,418.151 79.475,416.121 C 78.489,414.299 77.446,411.264 80.49,413.294 C 81.477,409.647 78.549,411.468 77.909,409.441 C 80.508,407.166 81.05,402.497 84.193,400.726 C 84.441,400.586 84.704,400.464 84.988,400.362 C 85.281,400.257 85.593,400.176 85.926,400.117 C 82.59,398.906 82.012,403.767 79.577,403.357 C 81.51,398.171 87.347,393.142 92.684,394.656 C 93.188,394.797 93.685,396.025 94.175,396.267 C 96.567,395.056 93.667,389.996 95.785,390.796 C 96.87,392.62 96.611,394.853 96.03,396.88 C 93.8,399.914 90.132,402.147 86.419,401.534 C 80.026,402.76 82.768,409.441 81.692,413.89 C 79.983,415.32 80.098,421.185 76.764,418.151 C 79.534,423.023 72.518,427.677 78.78,429.295 C 79.069,429.909 79.156,430.506 79.475,431.12 C 79.534,433.759 78.112,435.381 78.129,437.8 C 79.156,438.618 79.156,439.23 80.084,440.238 C 81.144,452.2 94.336,459.086 94.581,471.236 C 96.292,466.381 95.421,460.909 92.407,456.853 C 91.536,454.826 88.174,451.588 91.956,451.385 C 88.029,448.742 86.65,443.679 82.59,441.243 C 80.824,435.381 88.58,433.949 91.55,437.8 C 96.35,443.08 102.962,440.238 108.513,439.419 C 115.138,442.061 122.531,440.647 128.651,437.597 C 118.936,423.212 102.031,422.82 88.58,416.531 C 87.434,416.735 86.634,417.581 85.705,416.559 C 85.722,423.051 92.869,420.587 94.017,425.037 C 89.45,427.677 81.477,418.557 84.55,415.918 Z" fill="#ffffff" marker-start="none" marker-end="none"/>
     <path d="M 158.847,465.156 C 158.854,465.156 158.861,465.156 158.868,465.156 C 159.529,465.156 160.205,465.156 160.863,465.156 C 161.328,465.156 162.371,465.36 162.225,464.556 C 160.702,464.761 158.368,461.712 158.108,463.942 C 157.034,464.556 158.745,464.556 158.847,465.156 Z" fill="#ffffff" marker-start="none" marker-end="none"/>
     <path d="M 132.679,429.501 C 132.689,429.497 132.697,429.496 132.705,429.494 C 133.449,429.287 134.107,428.894 134.854,429.501 C 134.623,425.445 138.086,419.771 132.333,418.967 C 133.68,416.327 130.331,414.912 128.245,413.89 C 124.2,417.742 117.834,416.735 112.804,416.531 C 118.183,420.384 126.417,426.655 132.637,421.389 C 133.593,423.826 129.158,427.881 132.679,429.501 Z" fill="#ffffff" marker-start="none" marker-end="none"/>
     <path d="M 81.533,426.669 C 81.54,426.669 81.547,426.669 81.552,426.669 C 82.068,426.669 82.583,426.655 83.099,426.655 C 84.753,424.029 83.099,419.362 80.186,418.354 C 79.94,418.557 79.867,418.967 79.78,419.171 C 80.766,420.384 82.275,421.593 81.939,423.622 C 80.752,424.234 80.651,425.648 81.533,426.669 Z" fill="#000000" marker-start="none" marker-end="none"/>
     <path d="M 73.474,424.029 C 73.477,424.021 73.481,424.01 73.481,423.999 C 73.695,423.077 73.922,421.116 74.006,419.901 C 74.034,419.491 73.891,419.215 73.635,419.362 C 73.387,419.705 73.163,419.866 72.953,419.908 C 72.042,420.088 71.388,418.085 70.46,419.565 C 72.112,420.587 73.054,422.207 73.474,424.029 Z" fill="#ffffff" marker-start="none" marker-end="none"/>
     <path d="M 95.624,415.524 C 95.662,415.512 95.697,415.501 95.734,415.489 C 98.9,414.414 96.884,410.441 94.175,409.85 C 91.9,409.647 88.288,412.069 91.058,414.299 C 91.595,414.505 92.449,414.095 92.407,413.497 C 92.276,412.681 92.841,411.468 93.769,411.468 C 96.03,411.468 95.046,414.095 95.624,415.524 Z" fill="#000000" marker-start="none" marker-end="none"/>
     <path d="M 75.896,398.294 C 75.903,398.289 75.91,398.283 75.917,398.275 C 76.582,397.664 77.523,396.873 77.866,396.267 C 75.49,396.267 73.068,396.063 71.328,394.649 C 71.227,395.262 72.256,395.655 72.329,396.267 C 73.401,397.085 74.647,397.888 75.896,398.294 Z" fill="#ffffff" marker-start="none" marker-end="none"/>
     <path d="M 69.648,396.88 C 69.641,396.848 69.635,396.816 69.631,396.785 C 69.099,393.971 66.698,391.175 67.443,388.564 C 66.369,387.15 66.124,385.121 65.225,383.706 C 64.615,388.375 67.079,393.233 69.648,396.88 Z" fill="#ffffff" marker-start="none" marker-end="none"/>
     <path d="M 76.691,393.233 C 76.715,393.236 76.736,393.243 76.757,393.246 C 78.671,393.618 81.494,392.592 80.49,390.185 C 78.416,388.974 75.78,389.79 73.474,389.79 C 71.385,388.974 69.27,387.56 67.703,386.142 C 68.444,388.172 70.24,389.586 71.923,391 C 73.344,392.213 75.084,392.823 76.691,393.233 Z" fill="#ffffff" marker-start="none" marker-end="none"/>
     <path d="M 141.929,391.41 C 141.931,391.41 141.933,391.41 141.936,391.41 C 142.122,391.41 142.323,391.41 142.493,391.41 C 141.768,389.996 141.334,387.968 139.987,386.741 C 140.407,387.968 140.319,388.974 139.318,389.586 C 140.088,390.39 141.653,390.185 141.929,391.41 Z" fill="#ffffff" marker-start="none" marker-end="none"/>
     <path d="M 145.163,390.796 C 145.212,390.803 145.263,390.808 145.314,390.815 C 149.814,391.284 156.569,388.701 162.631,386.741 C 165.791,385.121 169.025,383.706 171.995,381.68 C 174.823,379.652 178.664,378.441 180.346,375.202 C 177.157,377.419 173.707,378.849 170.387,380.875 C 163.093,384.116 155.427,386.741 147.438,387.763 C 146.378,386.741 147.713,384.917 146.525,383.706 C 140.057,379.652 133.694,373.172 137.101,364.86 C 137.565,363.24 138.912,361.826 139.479,360.205 C 139.329,360.356 138.909,360.44 138.727,360.587 C 134.961,363.646 133.162,363.999 128.49,365.579 C 126.708,375.909 136.522,382.088 142.899,387.763 C 142.538,388.564 142.986,389.177 143.205,389.996 C 143.611,390.796 144.757,389.996 145.163,390.796 Z" fill="#ffffff" marker-start="none" marker-end="none"/>
     <path d="M 148.582,386.552 C 148.718,386.524 148.851,386.496 148.988,386.47 C 160.992,384.025 173.143,379.965 182.463,371.555 C 184.245,372.563 182.201,374.18 182.072,375.405 C 190.275,368.914 206.37,368.914 207.571,357.564 C 206.573,354.939 201.729,358.789 202.541,355.347 C 206.37,354.326 208.383,348.446 205.716,345.005 C 201.656,345.616 197.452,350.678 193.683,349.468 C 201.54,342.975 202.643,330.823 199.482,321.706 C 196.581,323.529 196.364,328.183 194.089,330.823 C 194.092,330.916 193.506,331.829 193.506,331.966 C 193.516,332.739 193.953,333.289 192.132,333.464 C 193.567,325.354 194.887,312.384 189.015,306.505 C 187.738,307.73 187.101,309.35 186.392,310.764 C 184.262,311.173 184.927,307.321 183.97,306.11 C 179.926,313.2 179.534,321.911 175.765,329.001 C 176.345,320.088 181.898,304.681 170.922,298.407 C 167.965,309.35 165.763,322.524 159.862,332.239 C 160.646,327.791 162.053,319.475 154.889,323.937 C 154.657,320.698 154.454,315.622 150.989,314.412 C 145.916,318.671 144.292,326.17 139.784,330.823 C 140.393,326.359 141.175,317.652 134.492,315.622 C 130.271,317.855 127.607,316.644 125.49,314.005 C 121.837,317.242 118.88,321.706 119.996,326.359 C 103.844,313.799 86.521,290.704 101.063,270.85 C 105.034,273.478 108.468,277.122 112.804,278.948 C 115.835,280.173 115.184,277.153 115.852,274.935 C 110.746,271.886 97.755,269.435 98.641,259.296 C 102.773,255.853 110.238,258.289 112.934,252.819 C 112.762,250.586 111.355,248.763 110.788,246.736 C 107.323,248.763 98.539,247.758 95.886,254.03 C 88.477,245.933 95.104,234.378 100.251,226.882 C 99.337,223.847 97.423,221.002 95.624,218.58 C 92.624,223.438 92.159,229.522 90.189,234.991 C 89.912,236.611 89.826,238.435 88.782,239.646 C 78.954,225.261 87.854,206.006 90.146,190.204 C 74.706,213.912 86.942,240.055 95.015,263.147 C 95.638,269.027 92.682,285.44 87.536,273.885 C 78.794,270.034 81.505,284.624 82.49,289.086 C 73.113,270.85 69.575,249.172 57.829,231.536 C 37.153,190.818 34.587,128.818 72.837,98.02 C 73.051,97.18 72.386,97.548 71.871,97.89 C 56.695,107.938 50.302,120.485 43.942,139.724 C 29.702,201.306 55.03,264.329 83.132,320.417 C 85.611,325.365 87.395,330.802 89.891,335.637 C 95.734,346.948 102.308,356.208 114.414,361.416 C 123.755,366.603 132.987,364.319 140.596,357.882 C 141.313,357.277 143.205,355.698 142.699,356.965 C 136.261,363.852 134.811,377.827 146.728,382.088 C 147.916,383.297 148.291,385.121 148.582,386.552 Z" fill="#ffffff" marker-start="none" marker-end="none"/>
     <path d="M 113.949,384.714 C 113.962,384.706 113.976,384.694 113.99,384.686 C 115.152,383.86 115.054,381.662 115.152,380.266 C 115.964,378.849 117.284,380.266 118.141,380.875 C 116.923,376.822 112.674,371.95 115.558,367.909 C 117.616,368.301 118.561,370.943 119.951,371.95 C 120.067,369.322 121.719,367.296 123.171,365.267 C 100.844,361.62 89.173,340.275 81.736,321.237 C 80.952,323.063 78.143,323.529 78.272,326.359 C 77.156,327.178 77.625,324.446 76.694,325.043 C 76.355,327.573 74.835,330.837 74.797,333.422 C 74.577,348.25 79.716,362.862 86.622,374.59 C 88.362,371.758 88.232,366.083 92.001,364.262 C 93.205,365.267 92.463,367.5 93.566,368.505 C 94.059,366.684 95.06,364.86 96.625,363.647 C 104.078,368.914 113.805,373.977 113.949,384.714 Z" fill="#ffffff" marker-start="none" marker-end="none"/>
     <path d="M 207.371,352.299 C 207.438,352.243 207.504,352.19 207.571,352.135 C 213.615,347.357 222.493,343.701 224.084,335.476 C 224.49,335.289 224.693,335.084 224.895,334.675 C 226.911,333.653 229.521,334.472 231.131,332.852 C 231.131,331.641 231.331,330.416 230.925,329.205 C 222.07,332.034 216.43,341.561 207.371,344.405 C 207.777,347.031 208.789,349.877 207.371,352.299 Z" fill="#ffffff" marker-start="none" marker-end="none"/>
     <path d="M 202.135,333.464 C 202.248,333.429 202.36,333.391 202.472,333.355 C 212.52,330.053 226.095,322.979 225.896,310.355 C 225.49,309.35 225.099,308.532 224.693,307.526 C 223.678,307.321 222.882,308.122 222.07,308.328 C 217.646,316.441 208.383,317.855 201.194,322.115 C 201.656,325.761 202.524,329.409 202.135,333.464 Z" fill="#ffffff" marker-start="none" marker-end="none"/>
     <path d="M 194.089,328.387 C 194.11,328.364 194.131,328.337 194.149,328.312 C 195.919,326.097 196.084,322.891 198.177,320.698 C 198.961,320.292 200.092,320.292 200.686,321.093 C 206.167,316.848 215.834,316.441 218.241,309.144 C 220.257,307.526 222.476,305.497 222.882,302.858 C 223.678,297.794 219.053,295.169 216.038,292.529 C 213.616,292.733 211.806,295.358 209.384,295.358 C 206.776,303.061 200.483,308.941 194.145,313.799 C 194.509,318.467 194.946,323.529 194.089,328.387 Z" fill="#ffffff" marker-start="none" marker-end="none"/>
     <path d="M 193.481,312.791 C 193.582,312.727 193.683,312.661 193.785,312.592 C 202.839,306.634 213.335,294.232 206.122,283.616 C 204.004,282.202 201.306,282.798 198.916,282.406 C 196.7,290.296 194.162,298.204 190.261,305.7 C 191.465,307.933 193.306,310.152 193.481,312.791 Z" fill="#ffffff" marker-start="none" marker-end="none"/>
     <path d="M 130.666,310.355 C 130.667,310.324 130.647,310.278 130.673,310.263 C 132.439,309.036 134.601,309.256 135.449,307.73 C 135.449,306.914 135.595,306.301 135.651,305.497 C 127.258,293.535 147.713,278.948 136.305,267.816 C 137.712,276.117 133.869,286.854 125.285,289.29 C 125.546,284.024 128.099,277.122 126.083,271.463 C 124.578,265.583 123.024,259.5 123.416,253.417 C 124.214,248.355 125.649,243.292 128.808,239.033 C 127.069,240.055 125.691,241.878 124.372,243.497 C 122.769,245.212 122.02,247.893 121.547,249.895 C 118.827,261.372 130.961,275.887 117.735,285.031 C 116.066,287.263 113.34,288.268 111.194,289.888 C 111.628,294.351 112.514,298.816 114.414,302.858 C 115.24,299.62 115.023,295.562 118.24,293.346 C 121.967,292.121 125.969,293.346 129.606,294.148 C 130.969,296.584 129.94,299.823 130.257,302.654 C 130.012,305.293 130.824,307.73 130.666,310.355 Z" fill="#ffffff" marker-start="none" marker-end="none"/>
     <path d="M 180.794,310.355 C 180.808,310.338 180.82,310.319 180.833,310.302 C 181.9,308.689 182.11,306.687 183.072,304.885 C 185.389,302.858 185.188,307.526 185.986,308.737 C 187.115,307.321 187.507,305.293 189.407,304.885 C 192.176,296.176 192.074,285.643 186.187,278.144 C 184.262,277.328 181.97,277.53 180.056,276.526 C 178.622,276.117 177.49,274.907 176.228,274.294 C 178.678,286.052 182.824,297.998 180.794,310.355 Z" fill="#ffffff" marker-start="none" marker-end="none"/>
     <path d="M 145.522,294.494 C 145.545,294.487 145.566,294.484 145.587,294.48 C 147.505,294.081 149.355,293.278 151.322,292.873 C 152.047,290.847 150.727,288.425 148.942,287.404 C 147.335,289.022 147.829,291.662 146.885,293.689 C 144.913,293.689 142.885,293.894 141.695,292.072 C 141.245,291.866 141.145,292.466 140.739,292.466 C 141.81,293.894 143.882,294.098 145.522,294.494 Z" fill="#ffffff" marker-start="none" marker-end="none"/>
     <path d="M 149.583,281.996 C 149.603,281.999 149.621,282.001 149.642,282.003 C 151.371,282.178 152.799,281.166 153.975,279.969 C 156.961,271.259 160.502,259.5 152.467,252.409 C 152.323,251.594 152.106,250.995 152.207,250.18 C 153.163,247.144 157.556,248.763 158.847,246.939 C 158.602,246.123 157.905,245.728 157.601,245.115 C 148.291,241.266 150.09,230.323 147.176,223.235 C 145.555,226.269 147.307,230.732 146.567,234.175 C 144.771,239.239 138.536,241.061 138.58,246.939 C 138.884,247.751 138.678,249.302 139.124,250.008 C 141.688,254.058 146.826,255.723 149.351,258.494 C 151.801,265.176 155.382,274.5 149.642,280.376 C 149.365,280.974 149.222,281.588 149.583,281.996 Z" fill="#000000" marker-start="none" marker-end="none"/>
     <path d="M 174.953,259.703 C 174.974,259.698 174.991,259.691 175.01,259.684 C 176.69,259.038 175.971,256.651 176.171,255.051 C 173.49,249.974 172.184,242.286 179.244,240.055 C 187.304,239.033 194.408,245.933 198.076,251.797 C 197.25,243.701 193.539,235.795 187.405,230.323 C 185.088,231.536 182.362,233.167 180.188,233.97 C 184.999,227.085 185.708,217.352 179.593,210.877 C 179.027,208.85 180.028,207.024 179.751,204.795 C 178.519,204.181 177.36,204.998 176.766,203.378 C 176.391,203.92 175.418,205.299 175.037,205.912 C 172.849,209.428 171.155,213.187 168.777,217.149 C 167.789,217.926 168.332,216.351 168.591,215.602 C 173.104,202.635 164.818,189.514 155.281,181.088 C 153.296,178.257 154.976,174.609 153.874,172.377 C 145.191,183.933 153.657,197.704 155.627,209.651 C 149.306,223.847 153.555,244.111 168.678,250.586 C 169.763,251.594 171.068,252.409 172.098,253.417 C 173.127,255.443 174.389,257.473 174.953,259.703 Z" fill="#000000" marker-start="none" marker-end="none"/>
     <path d="M 113.949,243.701 C 113.976,243.705 114.004,243.709 114.029,243.714 C 116.37,244.083 118.232,242.869 119.951,241.469 C 127.635,225.261 121.141,207.228 110.991,194.057 C 110.238,192.232 109.773,190.614 109.311,188.79 C 108.513,183.933 112.601,179.468 112.702,175.414 C 105.034,180.884 98.728,189.798 97.437,199.321 C 97.293,213.299 106.178,224.243 112.296,235.795 C 114.69,238.639 110.704,241.878 113.949,243.701 Z" fill="#000000" marker-start="none" marker-end="none"/>
     <path d="M 138.711,239.646 C 138.716,239.646 138.72,239.646 138.727,239.646 C 139.185,239.646 139.598,239.64 139.885,239.239 C 143.48,231.942 140.319,223.235 136.462,216.756 C 132.07,211.08 125.896,204.998 128.447,197.092 C 128.549,196.494 128.433,195.676 127.635,195.881 C 119.503,207.434 130.505,222.227 124.417,234.175 C 124.172,234.991 124.923,235.386 124.879,236.203 C 130.866,237.006 132.535,228.705 133.071,224.446 C 135.969,229.115 136.723,234.788 138.711,239.646 Z" fill="#000000" marker-start="none" marker-end="none"/>
     <path d="M 72.879,221.821 C 72.907,221.775 72.935,221.733 72.963,221.688 C 75.35,217.835 73.719,212.036 74.881,207.434 C 70.894,184.734 80.824,162.443 99.407,149.285 C 99.292,146.849 96.336,145.025 95.827,142.383 C 96.233,123.347 111.516,109.764 121.358,94.768 C 121.575,94.373 121.2,93.964 120.952,93.759 C 117.515,96.401 114.82,101.261 111.484,104.292 C 107.96,107.137 104.222,109.559 101.119,112.814 C 79.069,140.357 63.324,176.026 72.067,211.679 C 72.242,212.19 71.811,213.498 71.962,214.01 C 72.609,216.208 72.844,218.059 72.77,219.956 C 72.743,220.589 72.519,221.128 72.879,221.821 Z" fill="#000000" marker-start="none" marker-end="none"/>
     <path d="M 142.538,221.411 C 142.575,221.387 142.612,221.36 142.647,221.335 C 145.926,219.109 150.213,216.096 150.801,211.884 C 148.393,209.054 149.061,204.998 147.365,201.963 C 139.987,204.589 135.189,216.144 142.538,221.411 Z" fill="#000000" marker-start="none" marker-end="none"/>
     <path d="M 134.492,212.291 C 134.497,212.291 134.503,212.291 134.509,212.291 C 134.965,212.291 135.321,212.288 135.449,211.884 C 135.143,205.61 141.87,202.167 146.931,200.343 C 147.088,199.934 147.293,199.526 147.54,199.12 C 146.35,194.057 141.394,189.593 143.742,184.122 C 143.742,183.933 143.581,183.524 143.35,183.32 C 135.346,189.798 128.185,202.562 134.492,212.291 Z" fill="#000000" marker-start="none" marker-end="none"/>
     <path d="M 121.806,208.032 C 121.813,208.032 121.82,208.032 121.827,208.032 C 122.418,208.036 123.112,208.227 123.213,207.434 C 121.183,196.084 126.909,184.122 137.463,179.264 C 138.013,178.858 138.377,178.257 138.667,177.644 C 137.768,163.465 139.754,149.08 139.318,135.499 C 139.073,135.499 138.797,135.499 138.58,135.499 C 134.391,146.03 134.187,161.846 121.865,166.499 C 121.372,167.109 120.907,167.519 120.458,167.914 C 118.155,174.203 116.444,180.475 116.168,187.171 C 116.434,188.254 116.139,190.116 116.451,191.168 C 118.257,197.197 121.246,201.995 121.806,208.032 Z" fill="#000000" marker-start="none" marker-end="none"/>
     <path d="M 80.518,194.67 C 80.528,194.67 80.536,194.674 80.543,194.677 C 81.244,194.87 81.873,194.663 82.303,194.057 C 83.157,190.614 84.186,187.171 85.621,183.73 C 95.785,172.377 104.729,160.021 112.5,147.651 C 111.673,147.461 111.05,147.855 110.585,148.469 C 102.003,163.669 80.157,171.561 81.533,191.415 C 81.23,192.64 80.315,193.445 80.518,194.67 Z" fill="#000000" marker-start="none" marker-end="none"/>
     <path d="M 108.107,173.793 C 108.124,173.766 108.142,173.738 108.156,173.71 C 109.644,171.302 110.97,168.914 113.007,166.906 C 133.433,156.767 141.348,131.85 139.521,109.968 C 140.566,105.314 145.016,102.062 146.322,98.02 C 139.332,102.47 134.623,110.172 134.245,118.475 C 130.737,125.973 123.328,130.845 118.037,136.71 C 118.46,137.526 118.764,138.345 119.184,139.144 C 118.547,151.297 110.036,161.233 107.498,172.989 C 107.6,173.385 107.89,173.588 108.107,173.793 Z" fill="#000000" marker-start="none" marker-end="none"/>
     <path d="M 142.538,173.588 C 142.57,173.402 142.601,173.217 142.633,173.031 C 145.478,156.549 151.697,137.733 147.568,119.903 C 148.018,118.882 148.322,117.671 149.047,116.65 C 163.677,103.884 172.824,84.438 169.112,64.993 C 169.648,63.579 170.735,62.557 171.589,61.343 C 183.912,54.854 181.666,39.666 185.694,28.521 C 191.031,18.789 202.265,15.144 212.212,13.319 C 215.023,11.905 219.053,10.883 220.866,8.87 C 203.774,14.53 181.434,15.755 171.488,33.991 C 171.468,34.111 170.817,35.01 170.728,35.098 C 170.229,35.623 169.34,35.007 168.371,36.224 C 171.372,38.646 178.736,31.147 177.938,38.048 C 176.041,41.08 175.114,44.32 173.301,47.355 C 169.504,52.635 164.545,55.467 161.934,59.521 C 159.557,67.415 162.819,74.708 162.267,83.024 C 160.615,95.584 152.281,106.321 142.538,113.819 C 142.479,116.258 143.147,118.475 143.147,120.909 C 149.628,138.345 138.58,156.767 142.538,173.588 Z" fill="#000000" marker-start="none" marker-end="none"/>
     <path d="M 101.063,153.53 C 101.096,153.467 101.129,153.404 101.164,153.341 C 104.176,147.721 107.298,141.743 112.702,137.73 C 112.776,137.323 112.776,136.71 112.702,136.316 C 111.834,136.112 111.327,136.914 110.585,137.117 C 107.946,139.349 105.524,142.383 102.525,143.815 C 103.844,140.969 105.524,138.139 107.162,135.499 C 114.053,123.347 131.23,118.678 134.551,104.292 C 147.641,97.817 160.195,85.051 158.644,69.645 C 158.123,68.041 156.432,68.523 156.509,68.374 C 156.946,67.509 157.51,65.819 156.628,64.787 C 156.873,61.343 159.992,57.903 160.254,55.057 C 148.179,58.501 157.062,75.526 148.379,82.615 C 142.015,89.107 133.796,93.759 125.285,96.197 C 120.735,114.636 94.017,125.168 100.657,146.236 C 101.105,148.673 99.813,151.706 101.063,153.53 Z" fill="#000000" marker-start="none" marker-end="none"/>
     <path d="M 59.18,103.084 C 59.187,103.084 59.191,103.084 59.194,103.084 C 59.67,103.088 60.209,103.28 60.353,102.675 C 69.27,84.847 89.712,76.94 106.049,68.64 C 117.98,61.343 122.649,47.355 119.793,33.786 C 119.821,31.35 119.59,28.725 120.185,26.288 C 121.719,21.227 125.691,17.784 129.417,14.136 C 129.637,13.728 129.245,13.319 129.011,13.116 C 124.011,16.353 119.951,21.022 116.43,25.879 C 114.067,29.936 112.251,33.786 110.585,38.048 C 110.557,38.468 109.927,39.68 109.878,40.092 C 109.601,42.458 109.514,43.908 107.568,46.144 C 100.293,72.286 64.5,75.933 59.18,103.084 Z" fill="#000000" marker-start="none" marker-end="none"/>
     <path d="M 117.98,66.407 C 118.071,66.409 118.159,66.411 118.25,66.411 C 126.235,66.463 136.1,59.829 133.477,50.812 C 133.376,49.996 133.739,49.177 133.739,48.377 C 141.044,49.177 152.12,52.824 155.179,42.906 C 153.569,42.906 150.874,46.347 149.785,42.703 C 149.005,40.674 149.467,38.441 149.989,36.617 C 150.657,34.999 151.497,33.582 152.467,32.168 C 153.079,31.555 153.671,30.943 154.28,30.345 C 164.804,24.466 150.09,7.047 141.131,12.108 C 141.257,12.171 140.783,13.028 140.89,13.086 C 141.513,13.428 142.384,12.941 141.798,13.116 C 145.583,10.883 149.005,16.353 149.177,19.811 C 149.089,26.288 146.061,39.666 137.463,35.815 C 131.289,32.372 131.664,23.852 132.637,17.784 C 124.403,22.438 123.591,33.786 124.417,42.703 C 126.533,50.199 126.909,60.732 118.443,64.379 C 117.893,64.993 117.631,65.794 117.98,66.407 Z" fill="#000000" marker-start="none" marker-end="none"/>
     <path d="M 137.913,30.943 C 137.983,30.943 138.055,30.94 138.123,30.939 C 144.306,30.702 144.848,20.175 140.116,17.58 C 135.899,18.789 134.768,24.874 136.494,28.521 C 136.406,28.725 136.217,28.93 136.158,29.323 C 136.667,29.936 137.407,30.345 137.913,30.943 Z" fill="#000000" marker-start="none" marker-end="none"/>
    </g>
   </g>
  </g>
 </g>
</svg>
