<?xml version="1.0" standalone="no"?>
<!DOCTYPE svg PUBLIC "-//W3C//DTD SVG 1.1//EN" "http://www.w3.org/Graphics/SVG/1.1/DTD/svg11.dtd">
<!--Generator: Xara Xtreme (www.xara.com), SVG filter version: 1.0.0.13-->
<svg stroke-width="0.501" stroke-linejoin="bevel" fill-rule="evenodd" xmlns:xlink="http://www.w3.org/1999/xlink" xmlns="http://www.w3.org/2000/svg" version="1.1" overflow="visible" width="270pt" height="480pt" viewBox="0 0 270 480">
 <defs>
  <marker id="DefaultArrow2" markerUnits="strokeWidth" viewBox="0 0 1 1" markerWidth="1" markerHeight="1" overflow="visible" orient="auto">
   <!-- REF_ARROW_STRAIGHT (-2) -->
   <g transform="scale(0.0092592592)">
    <!-- 1/108 -->
    <path d="M -9 54 L -9 -54 L 117 0 z"/>
   </g>
  </marker>
  <marker id="DefaultArrow3" markerUnits="strokeWidth" viewBox="0 0 1 1" markerWidth="1" markerHeight="1" overflow="visible" orient="auto">
   <!-- REF_ARROW_ANGLED -->
   <g transform="scale(0.0092592592)">
    <path d="M -27 54 L -9 0 L -27 -54 L 135 0 z"/>
   </g>
  </marker>
  <marker id="DefaultArrow4" markerUnits="strokeWidth" viewBox="0 0 1 1" markerWidth="1" markerHeight="1" overflow="visible" orient="auto">
   <!-- REF_ARROW_ROUNDED -->
   <g transform="scale(0.0092592592)">
    <path d="M -9,0 L -9,-45 C -9,-51.708 2.808,-56.580 9,-54 L 117,-9 C 120.916,-7.369 126.000,-4.242 126,0 C 126,4.242 120.916,7.369 117,9 L 9,54 C 2.808,56.580 -9,51.708 -9,45 z"/>
   </g>
  </marker>
  <marker id="DefaultArrow5" markerUnits="strokeWidth" viewBox="0 0 1 1" markerWidth="1" markerHeight="1" overflow="visible" orient="auto">
   <!-- REF_ARROW_SPOT -->
   <g transform="scale(0.0092592592)">
    <path d="M -54, 0 C -54,29.807 -29.807,54 0,54 C 29.807,54 54,29.807 54,0 C 54,-29.807 29.807,-54 0,-54 C -29.807,-54 -54,-29.807 -54,0 z"/>
   </g>
  </marker>
  <marker id="DefaultArrow6" markerUnits="strokeWidth" viewBox="0 0 1 1" markerWidth="1" markerHeight="1" overflow="visible" orient="auto">
   <!-- REF_ARROW_DIAMOND -->
   <g transform="scale(0.0092592592)">
    <path d="M -63,0 L 0,63 L 63,0 L 0,-63 z"/>
   </g>
  </marker>
  <marker id="DefaultArrow7" markerUnits="strokeWidth" viewBox="0 0 1 1" markerWidth="1" markerHeight="1" overflow="visible" orient="auto">
   <!-- REF_ARROW_FEATHER -->
   <g transform="scale(0.0092592592)">
    <path d="M 18,-54 L 108,-54 L 63,0 L 108,54 L 18, 54 L -36,0 z"/>
   </g>
  </marker>
  <marker id="DefaultArrow8" markerUnits="strokeWidth" viewBox="0 0 1 1" markerWidth="1" markerHeight="1" overflow="visible" orient="auto">
   <!-- REF_ARROW_FEATHER2 -->
   <g transform="scale(0.0092592592)">
    <path d="M -36,0 L 18,-54 L 54,-54 L 18,-18 L 27,-18 L 63,-54 L 99,-54 L 63,-18 L 72,-18 L 108,-54 L 144,-54 L 90,0 L 144,54 L 108,54 L 72,18 L 63,18 L 99,54 L 63,54 L 27,18 L 18,18 L 54,54 L 18,54 z"/>
   </g>
  </marker>
  <marker id="DefaultArrow9" markerUnits="strokeWidth" viewBox="0 0 1 1" markerWidth="1" markerHeight="1" overflow="visible" orient="auto">
   <!-- REF_ARROW_HOLLOWDIAMOND -->
   <g transform="scale(0.0092592592)">
    <path d="M 0,45 L -45,0 L 0, -45 L 45, 0 z M 0, 63 L-63, 0 L 0, -63 L 63, 0 z"/>
   </g>
  </marker>
  <filter id="StainedFilter">
   <feBlend mode="multiply" in2="BackgroundImage" in="SourceGraphic" result="blend"/>
   <feComposite in="blend" in2="SourceAlpha" operator="in" result="comp"/>
  </filter>
  <filter id="BleachFilter">
   <feBlend mode="screen" in2="BackgroundImage" in="SourceGraphic" result="blend"/>
   <feComposite in="blend" in2="SourceAlpha" operator="in" result="comp"/>
  </filter>
  <filter id="InvertTransparencyBitmapFilter">
   <feComponentTransfer>
    <feFuncR type="gamma" amplitude="1.055" exponent=".416666666" offset="-0.055"/>
    <feFuncG type="gamma" amplitude="1.055" exponent=".416666666" offset="-0.055"/>
    <feFuncB type="gamma" amplitude="1.055" exponent=".416666666" offset="-0.055"/>
   </feComponentTransfer>
   <feComponentTransfer>
    <feFuncR type="linear" slope="-1" intercept="1"/>
    <feFuncG type="linear" slope="-1" intercept="1"/>
    <feFuncB type="linear" slope="-1" intercept="1"/>
    <feFuncA type="linear" slope="1" intercept="0"/>
   </feComponentTransfer>
   <feComponentTransfer>
    <feFuncR type="gamma" amplitude="1" exponent="2.4" offset="0"/>
    <feFuncG type="gamma" amplitude="1" exponent="2.4" offset="0"/>
    <feFuncB type="gamma" amplitude="1" exponent="2.4" offset="0"/>
   </feComponentTransfer>
  </filter>
 </defs>
 <g id="Document" fill="none" stroke="black" font-family="Times New Roman" font-size="16" transform="scale(1 -1)">
  <g id="Spread" transform="translate(0 -480)">
   <g id="Layer 1">
    <g id="Group" stroke="none">
     <path d="M 209.19,360.938 C 234.244,360.938 254.564,339.529 254.564,313.13 C 254.564,286.729 234.244,265.319 209.19,265.319 C 184.135,265.319 163.816,286.729 163.816,313.13 C 163.816,339.529 184.135,360.938 209.19,360.938 Z" fill="#1f59cc" marker-start="none" marker-end="none"/>
     <path d="M 207.008,360.938 C 230.858,360.938 250.2,340.559 250.2,315.428 C 250.2,290.299 230.858,269.918 207.008,269.918 C 183.158,269.918 163.816,290.299 163.816,315.428 C 163.816,340.559 183.158,360.938 207.008,360.938 Z" fill="#4c7fe5" marker-start="none" marker-end="none"/>
     <path d="M 204.788,358.486 C 226.222,358.486 243.604,340.171 243.604,317.587 C 243.604,295.002 226.222,276.685 204.788,276.685 C 183.353,276.685 165.971,295.002 165.971,317.587 C 165.971,340.171 183.353,358.486 204.788,358.486 Z" fill="#66a6f2" marker-start="none" marker-end="none"/>
     <path d="M 201.157,354.085 C 218.135,354.085 231.903,339.578 231.903,321.69 C 231.903,303.801 218.135,289.294 201.157,289.294 C 184.18,289.294 170.412,303.801 170.412,321.69 C 170.412,339.578 184.18,354.085 201.157,354.085 Z" fill="#99bfff" marker-start="none" marker-end="none"/>
     <path d="M 187.881,346.023 C 194.397,346.023 199.68,340.455 199.68,333.59 C 199.68,326.725 194.397,321.158 187.881,321.158 C 181.366,321.158 176.082,326.725 176.082,333.59 C 176.082,340.455 181.366,346.023 187.881,346.023 Z" fill="#a6ccff" marker-start="none" marker-end="none"/>
     <path d="M 109.962,252.838 C 135.513,252.838 156.234,231.005 156.234,204.083 C 156.234,177.161 135.513,155.328 109.962,155.328 C 84.413,155.328 63.691,177.161 63.691,204.083 C 63.691,231.005 84.413,252.838 109.962,252.838 Z" fill="#1f59cc" marker-start="none" marker-end="none"/>
     <path d="M 107.738,252.838 C 132.059,252.838 151.782,232.056 151.782,206.428 C 151.782,180.801 132.059,160.018 107.738,160.018 C 83.415,160.018 63.691,180.801 63.691,206.428 C 63.691,232.056 83.415,252.838 107.738,252.838 Z" fill="#4c7fe5" marker-start="none" marker-end="none"/>
     <path d="M 105.472,250.338 C 127.331,250.338 145.057,231.66 145.057,208.629 C 145.057,185.597 127.331,166.92 105.472,166.92 C 83.614,166.92 65.888,185.597 65.888,208.629 C 65.888,231.66 83.614,250.338 105.472,250.338 Z" fill="#66a6f2" marker-start="none" marker-end="none"/>
     <path d="M 101.771,245.85 C 119.084,245.85 133.124,231.055 133.124,212.814 C 133.124,194.571 119.084,179.777 101.771,179.777 C 84.458,179.777 70.418,194.571 70.418,212.814 C 70.418,231.055 84.458,245.85 101.771,245.85 Z" fill="#99bfff" marker-start="none" marker-end="none"/>
     <path d="M 88.232,237.628 C 94.876,237.628 100.264,231.949 100.264,224.949 C 100.264,217.948 94.876,212.271 88.232,212.271 C 81.588,212.271 76.2,217.948 76.2,224.949 C 76.2,231.949 81.588,237.628 88.232,237.628 Z" fill="#a6ccff" marker-start="none" marker-end="none"/>
     <path d="M 175.911,318.331 C 209.448,318.331 236.645,289.675 236.645,254.339 C 236.645,219.002 209.448,190.345 175.911,190.345 C 142.375,190.345 115.178,219.002 115.178,254.339 C 115.178,289.675 142.375,318.331 175.911,318.331 Z" fill="#1f59cc" marker-start="none" marker-end="none"/>
     <path d="M 172.99,318.331 C 204.914,318.331 230.803,291.053 230.803,257.417 C 230.803,223.779 204.914,196.501 172.99,196.501 C 141.067,196.501 115.178,223.779 115.178,257.417 C 115.178,291.053 141.067,318.331 172.99,318.331 Z" fill="#4c7fe5" marker-start="none" marker-end="none"/>
     <path d="M 170.018,315.05 C 198.708,315.05 221.975,290.535 221.975,260.305 C 221.975,230.074 198.708,205.558 170.018,205.558 C 141.328,205.558 118.062,230.074 118.062,260.305 C 118.062,290.535 141.328,315.05 170.018,315.05 Z" fill="#66a6f2" marker-start="none" marker-end="none"/>
     <path d="M 165.159,309.158 C 187.883,309.158 206.312,289.741 206.312,265.796 C 206.312,241.853 187.883,222.435 165.159,222.435 C 142.434,222.435 124.006,241.853 124.006,265.796 C 124.006,289.741 142.434,309.158 165.159,309.158 Z" fill="#99bfff" marker-start="none" marker-end="none"/>
     <path d="M 147.389,298.366 C 156.11,298.366 163.182,290.914 163.182,281.725 C 163.182,272.536 156.11,265.085 147.389,265.085 C 138.668,265.085 131.596,272.536 131.596,281.725 C 131.596,290.914 138.668,298.366 147.389,298.366 Z" fill="#a6ccff" marker-start="none" marker-end="none"/>
     <path d="M 85.619,315.896 C 104.9,315.896 120.536,299.421 120.536,279.106 C 120.536,258.79 104.9,242.315 85.619,242.315 C 66.339,242.315 50.703,258.79 50.703,279.106 C 50.703,299.421 66.339,315.896 85.619,315.896 Z" fill="#1f59cc" marker-start="none" marker-end="none"/>
     <path d="M 83.94,315.896 C 102.294,315.896 117.178,300.214 117.178,280.875 C 117.178,261.537 102.294,245.853 83.94,245.853 C 65.587,245.853 50.703,261.537 50.703,280.875 C 50.703,300.214 65.587,315.896 83.94,315.896 Z" fill="#4c7fe5" marker-start="none" marker-end="none"/>
     <path d="M 82.232,314.01 C 98.726,314.01 112.103,299.915 112.103,282.535 C 112.103,265.156 98.726,251.061 82.232,251.061 C 65.738,251.061 52.361,265.156 52.361,282.535 C 52.361,299.915 65.738,314.01 82.232,314.01 Z" fill="#66a6f2" marker-start="none" marker-end="none"/>
     <path d="M 79.438,310.622 C 92.503,310.622 103.098,299.459 103.098,285.694 C 103.098,271.928 92.503,260.764 79.438,260.764 C 66.374,260.764 55.778,271.928 55.778,285.694 C 55.778,299.459 66.374,310.622 79.438,310.622 Z" fill="#99bfff" marker-start="none" marker-end="none"/>
     <path d="M 69.222,304.419 C 74.235,304.419 78.302,300.134 78.302,294.851 C 78.302,289.568 74.235,285.284 69.222,285.284 C 64.209,285.284 60.142,289.568 60.142,294.851 C 60.142,300.134 64.209,304.419 69.222,304.419 Z" fill="#a6ccff" marker-start="none" marker-end="none"/>
     <path d="M 122.093,364.949 C 135.281,364.949 145.975,353.68 145.975,339.785 C 145.975,325.889 135.281,314.62 122.093,314.62 C 108.905,314.62 98.21,325.889 98.21,339.785 C 98.21,353.68 108.905,364.949 122.093,364.949 Z" fill="#1f59cc" marker-start="none" marker-end="none"/>
     <path d="M 120.944,364.949 C 133.497,364.949 143.678,354.222 143.678,340.995 C 143.678,327.767 133.497,317.041 120.944,317.041 C 108.391,317.041 98.21,327.767 98.21,340.995 C 98.21,354.222 108.391,364.949 120.944,364.949 Z" fill="#4c7fe5" marker-start="none" marker-end="none"/>
     <path d="M 119.775,363.658 C 131.057,363.658 140.207,354.018 140.207,342.131 C 140.207,330.243 131.057,320.602 119.775,320.602 C 108.494,320.602 99.344,330.243 99.344,342.131 C 99.344,354.018 108.494,363.658 119.775,363.658 Z" fill="#66a6f2" marker-start="none" marker-end="none"/>
     <path d="M 117.865,361.342 C 126.801,361.342 134.048,353.706 134.048,344.29 C 134.048,334.875 126.801,327.239 117.865,327.239 C 108.929,327.239 101.683,334.875 101.683,344.29 C 101.683,353.706 108.929,361.342 117.865,361.342 Z" fill="#99bfff" marker-start="none" marker-end="none"/>
     <path d="M 110.878,357.098 C 114.307,357.098 117.087,354.168 117.087,350.554 C 117.087,346.941 114.307,344.01 110.878,344.01 C 107.447,344.01 104.667,346.941 104.667,350.554 C 104.667,354.168 107.447,357.098 110.878,357.098 Z" fill="#a6ccff" marker-start="none" marker-end="none"/>
     <path d="M 167.334,251.499 C 201.971,251.499 230.06,221.903 230.06,185.408 C 230.06,148.912 201.971,119.316 167.334,119.316 C 132.698,119.316 104.609,148.912 104.609,185.408 C 104.609,221.903 132.698,251.499 167.334,251.499 Z" fill="#1f59cc" marker-start="none" marker-end="none"/>
     <path d="M 164.318,251.499 C 197.288,251.499 224.026,223.327 224.026,188.587 C 224.026,153.846 197.288,125.673 164.318,125.673 C 131.348,125.673 104.609,153.846 104.609,188.587 C 104.609,223.327 131.348,251.499 164.318,251.499 Z" fill="#4c7fe5" marker-start="none" marker-end="none"/>
     <path d="M 161.248,248.111 C 190.879,248.111 214.909,222.791 214.909,191.569 C 214.909,160.348 190.879,135.028 161.248,135.028 C 131.617,135.028 107.587,160.348 107.587,191.569 C 107.587,222.791 131.617,248.111 161.248,248.111 Z" fill="#66a6f2" marker-start="none" marker-end="none"/>
     <path d="M 156.229,242.026 C 179.699,242.026 198.732,221.971 198.732,197.241 C 198.732,172.512 179.699,152.458 156.229,152.458 C 132.76,152.458 113.727,172.512 113.727,197.241 C 113.727,221.971 132.76,242.026 156.229,242.026 Z" fill="#99bfff" marker-start="none" marker-end="none"/>
     <path d="M 137.877,230.879 C 146.884,230.879 154.188,223.184 154.188,213.693 C 154.188,204.203 146.884,196.507 137.877,196.507 C 128.87,196.507 121.566,204.203 121.566,213.693 C 121.566,223.184 128.87,230.879 137.877,230.879 Z" fill="#a6ccff" marker-start="none" marker-end="none"/>
     <path d="M 75.523,355.349 C 83.196,355.349 89.419,348.791 89.419,340.707 C 89.419,332.621 83.196,326.065 75.523,326.065 C 67.85,326.065 61.626,332.621 61.626,340.707 C 61.626,348.791 67.85,355.349 75.523,355.349 Z" fill="#1f59cc" marker-start="none" marker-end="none"/>
     <path d="M 74.854,355.349 C 82.158,355.349 88.082,349.106 88.082,341.41 C 88.082,333.714 82.158,327.473 74.854,327.473 C 67.55,327.473 61.626,333.714 61.626,341.41 C 61.626,349.106 67.55,355.349 74.854,355.349 Z" fill="#4c7fe5" marker-start="none" marker-end="none"/>
     <path d="M 74.174,354.597 C 80.739,354.597 86.062,348.987 86.062,342.071 C 86.062,335.154 80.739,329.545 74.174,329.545 C 67.61,329.545 62.286,335.154 62.286,342.071 C 62.286,348.987 67.61,354.597 74.174,354.597 Z" fill="#66a6f2" marker-start="none" marker-end="none"/>
     <path d="M 73.063,353.25 C 78.262,353.25 82.478,348.806 82.478,343.327 C 82.478,337.849 78.262,333.407 73.063,333.407 C 67.863,333.407 63.647,337.849 63.647,343.327 C 63.647,348.806 67.863,353.25 73.063,353.25 Z" fill="#99bfff" marker-start="none" marker-end="none"/>
     <path d="M 68.997,350.78 C 70.992,350.78 72.61,349.075 72.61,346.972 C 72.61,344.87 70.992,343.164 68.997,343.164 C 67.001,343.164 65.383,344.87 65.383,346.972 C 65.383,349.075 67.001,350.78 68.997,350.78 Z" fill="#a6ccff" marker-start="none" marker-end="none"/>
     <path d="M 247.455,226.554 C 255.128,226.554 261.351,219.998 261.351,211.912 C 261.351,203.827 255.128,197.27 247.455,197.27 C 239.782,197.27 233.559,203.827 233.559,211.912 C 233.559,219.998 239.782,226.554 247.455,226.554 Z" fill="#1f59cc" marker-start="none" marker-end="none"/>
     <path d="M 246.787,226.554 C 254.09,226.554 260.014,220.313 260.014,212.616 C 260.014,204.92 254.09,198.678 246.787,198.678 C 239.482,198.678 233.559,204.92 233.559,212.616 C 233.559,220.313 239.482,226.554 246.787,226.554 Z" fill="#4c7fe5" marker-start="none" marker-end="none"/>
     <path d="M 246.106,225.803 C 252.671,225.803 257.994,220.194 257.994,213.277 C 257.994,206.36 252.671,200.751 246.106,200.751 C 239.542,200.751 234.218,206.36 234.218,213.277 C 234.218,220.194 239.542,225.803 246.106,225.803 Z" fill="#66a6f2" marker-start="none" marker-end="none"/>
     <path d="M 244.995,224.455 C 250.194,224.455 254.411,220.012 254.411,214.534 C 254.411,209.055 250.194,204.612 244.995,204.612 C 239.796,204.612 235.579,209.055 235.579,214.534 C 235.579,220.012 239.796,224.455 244.995,224.455 Z" fill="#99bfff" marker-start="none" marker-end="none"/>
     <path d="M 240.929,221.986 C 242.925,221.986 244.542,220.281 244.542,218.178 C 244.542,216.075 242.925,214.371 240.929,214.371 C 238.933,214.371 237.315,216.075 237.315,218.178 C 237.315,220.281 238.933,221.986 240.929,221.986 Z" fill="#a6ccff" marker-start="none" marker-end="none"/>
     <path d="M 108.325,166.676 C 115.999,166.676 122.221,160.119 122.221,152.034 C 122.221,143.949 115.999,137.393 108.325,137.393 C 100.653,137.393 94.429,143.949 94.429,152.034 C 94.429,160.119 100.653,166.676 108.325,166.676 Z" fill="#1f59cc" marker-start="none" marker-end="none"/>
     <path d="M 107.658,166.676 C 114.962,166.676 120.885,160.434 120.885,152.738 C 120.885,145.042 114.962,138.8 107.658,138.8 C 100.353,138.8 94.429,145.042 94.429,152.738 C 94.429,160.434 100.353,166.676 107.658,166.676 Z" fill="#4c7fe5" marker-start="none" marker-end="none"/>
     <path d="M 106.977,165.925 C 113.541,165.925 118.865,160.315 118.865,153.399 C 118.865,146.482 113.541,140.873 106.977,140.873 C 100.414,140.873 95.089,146.482 95.089,153.399 C 95.089,160.315 100.414,165.925 106.977,165.925 Z" fill="#66a6f2" marker-start="none" marker-end="none"/>
     <path d="M 105.866,164.577 C 111.065,164.577 115.281,160.134 115.281,154.655 C 115.281,149.177 111.065,144.735 105.866,144.735 C 100.666,144.735 96.449,149.177 96.449,154.655 C 96.449,160.134 100.666,164.577 105.866,164.577 Z" fill="#99bfff" marker-start="none" marker-end="none"/>
     <path d="M 101.8,162.108 C 103.795,162.108 105.413,160.403 105.413,158.3 C 105.413,156.198 103.795,154.493 101.8,154.493 C 99.804,154.493 98.186,156.198 98.186,158.3 C 98.186,160.403 99.804,162.108 101.8,162.108 Z" fill="#a6ccff" marker-start="none" marker-end="none"/>
     <path d="M 51.479,239.481 L 9.751,203.575 C 9.751,203.575 3.247,194.555 11.376,188.961 C 19.505,183.368 75.144,164.604 75.144,164.604 L 158.782,132.308 C 158.782,132.308 167.273,127.255 171.969,137.178 C 176.666,147.103 182.989,161.356 182.989,161.356 L 186.782,163.881 C 186.782,163.881 234.834,193.472 236.459,195.096 C 238.086,196.719 237.724,202.674 234.111,204.838 C 230.498,207.004 215.144,217.469 215.144,217.469 L 171.608,279.897 C 171.608,279.897 171.066,282.242 164.382,281.701 C 157.699,281.159 102.601,276.469 100.976,275.025 C 99.35,273.581 98.808,271.958 98.808,271.958 L 77.492,264.921 C 77.492,264.921 48.769,255.178 47.506,252.471 C 46.241,249.765 45.879,245.795 47.686,243.63 C 49.492,241.466 51.479,239.481 51.479,239.481 Z M 147.909,272.804 C 147.909,272.804 127.061,270.821 126.971,270.009 C 126.881,269.198 135.455,269.108 141.05,269.918 C 146.646,270.73 147.909,272.804 147.909,272.804 Z M 9.547,197.479 L 23.253,191.785 L 105.61,159.802 L 150.609,141.751 C 150.609,141.751 156.309,138.844 160.191,138.36 C 164.073,137.875 165.892,138.239 167.832,141.873 C 169.772,145.507 177.172,159.802 177.172,159.802 L 180.447,160.892 L 168.682,138.117 C 168.682,138.117 167.105,132.302 160.555,134.967 C 154.005,137.633 84.869,163.437 84.869,163.437 L 15.005,190.452 C 15.005,190.452 12.458,191.542 10.881,193.239 C 9.304,194.935 9.547,197.479 9.547,197.479 Z M 58.67,228.007 C 58.67,228.007 52.484,222.555 51.029,221.102 C 49.573,219.648 50.058,218.437 54.303,221.95 C 58.549,225.463 60.368,228.25 60.368,228.25 L 58.67,228.007 Z M 57.215,232.369 C 57.215,232.369 47.875,224.372 46.783,222.071 C 45.692,219.769 46.42,218.195 50.301,222.071 C 54.182,225.948 57.215,232.369 57.215,232.369 Z M 53.575,238.304 L 57.336,234.307 C 57.336,234.307 49.573,226.917 47.026,224.13 C 44.479,221.345 44.236,218.921 46.541,218.437 C 48.846,217.952 52.848,218.315 56.608,222.071 C 60.368,225.827 63.279,228.735 63.279,228.735 L 105.489,189.241 L 152.55,147.082 C 152.55,147.082 153.519,144.417 159.706,148.172 C 165.892,151.927 175.474,158.712 175.474,158.712 L 166.135,142.115 C 166.135,142.115 165.042,137.39 155.946,141.145 C 146.849,144.901 50.665,183.425 50.665,183.425 L 13.572,197.615 C 13.572,197.615 7,198.084 12.337,202.566 C 17.673,207.049 53.313,238.583 53.575,238.304 Z M 81.11,256.598 C 80.867,256.719 79.047,254.781 82.2,254.781 C 85.354,254.781 92.268,258.052 93.966,259.869 C 95.663,261.685 95.058,261.928 90.327,260.232 C 85.596,258.536 81.352,256.477 81.11,256.598 Z M 99.181,269.924 C 99.181,270.166 52.969,254.175 51.029,252.478 C 49.088,250.783 52.848,248.36 56.487,244.968 C 60.125,241.576 119.801,189.362 119.801,189.362 L 101.365,258.415 L 101.122,259.505 C 101.122,259.505 90.812,256.235 85.354,254.054 C 79.895,251.874 76.985,255.628 80.138,257.688 C 83.292,259.748 94.087,262.898 96.149,263.745 C 98.211,264.593 99.545,265.199 99.545,265.199 C 99.545,265.199 99.181,269.682 99.181,269.924 Z M 129.504,177.974 L 151.094,158.349 C 151.094,158.349 154.248,154.956 158.856,155.683 C 163.466,156.41 169.41,160.53 169.41,160.53 L 232.602,198.57 C 232.602,198.57 234.201,200.14 234.18,200.749 C 234.156,201.359 234.18,201.597 234.18,201.597 C 234.18,201.597 235.392,200.507 234.785,197.963 C 234.18,195.419 217.319,185.606 203.614,177.126 C 189.908,168.646 163.223,153.502 163.223,153.502 C 163.223,153.502 156.795,148.778 151.337,153.382 C 145.879,157.985 126.715,174.946 126.715,174.946 L 51.271,242.424 C 51.271,242.424 49.088,244.362 49.088,246.785 C 49.088,249.208 48.966,250.177 48.966,250.177 C 48.966,250.177 61.095,239.395 68.373,232.611 C 75.651,225.827 129.504,177.974 129.504,177.974 Z M 130.839,179.307 C 130.839,179.307 162.011,182.336 184.207,185.97 C 206.403,189.604 216.454,191.489 216.454,191.489 C 216.454,191.489 186.359,172.523 174.352,165.617 C 162.344,158.712 159.585,154.956 151.579,160.408 C 143.575,165.859 130.839,179.307 130.839,179.307 Z M 218.047,212.501 C 218.047,212.501 224.111,204.869 224.111,201.355 C 224.111,197.842 222.898,194.449 222.898,194.449 C 222.898,194.449 236.12,200.386 232.723,203.294 C 229.328,206.201 218.047,212.501 218.047,212.501 Z M 222.414,199.902 L 221.686,195.177 C 221.686,195.177 221.603,195.108 221.39,195.019 C 220.839,194.791 217.988,194.033 202.4,191.542 C 181.174,188.15 137.995,181.245 137.995,181.245 C 137.995,181.245 130.596,178.458 128.412,184.395 C 126.229,190.331 125.622,192.996 125.622,192.996 L 101.137,264.715 C 101.137,264.715 100.152,269.318 100.637,270.409 C 101.122,271.499 100.637,269.44 102.699,263.261 C 104.761,257.082 112.524,236.124 112.524,236.124 L 124.774,202.324 L 129.019,189.967 C 129.019,189.967 130.717,185.364 134.962,185.364 C 139.207,185.364 211.862,197.357 211.862,197.357 C 211.862,197.357 218.774,198.689 220.231,198.932 C 221.686,199.174 222.414,199.902 222.414,199.902 Z M 117.072,274.822 L 104.518,273.402 C 104.518,273.402 100.058,274.585 104.559,262.993 C 109.059,251.4 131.127,191.794 131.127,191.794 C 131.127,191.794 131.101,187.813 137.022,187.813 C 142.944,187.813 218.898,200.312 218.898,200.312 C 218.898,200.312 223.662,200.535 220.109,206.923 C 216.555,213.311 170.604,277.424 170.604,277.424 C 170.604,277.424 168.946,281.21 162.313,280.026 C 155.681,278.844 117.072,274.822 117.072,274.822 Z M 126.32,271.178 C 126.32,271.178 146.225,274.332 149.766,273.663 C 153.307,272.994 154.646,270.987 147.087,269.744 C 139.526,268.501 127.564,266.78 124.884,268.883 C 122.204,270.987 126.32,271.178 126.32,271.178 Z" fill="#000000" marker-start="none" marker-end="none"/>
     <path d="M 222.414,199.902 L 221.686,195.177 C 221.686,195.177 221.603,195.108 221.39,195.019 C 220.839,194.791 217.988,194.033 202.4,191.542 C 181.174,188.15 137.995,181.245 137.995,181.245 C 137.995,181.245 130.596,178.458 128.412,184.395 C 126.229,190.331 125.622,192.996 125.622,192.996 L 101.137,264.715 C 101.137,264.715 100.152,269.318 100.637,270.409 C 101.122,271.499 100.637,269.44 102.699,263.261 C 104.761,257.082 112.524,236.124 112.524,236.124 L 124.774,202.324 L 129.019,189.967 C 129.019,189.967 130.717,185.364 134.962,185.364 C 139.207,185.364 211.862,197.357 211.862,197.357 C 211.862,197.357 218.774,198.689 220.231,198.932 C 221.686,199.174 222.414,199.902 222.414,199.902 Z" fill="#996633" marker-start="none" marker-end="none"/>
     <path d="M 218.047,212.501 C 218.047,212.501 224.111,204.869 224.111,201.355 C 224.111,197.842 222.898,194.449 222.898,194.449 C 222.898,194.449 236.12,200.386 232.723,203.294 C 229.328,206.201 218.047,212.501 218.047,212.501 Z" fill="#ffcc99" marker-start="none" marker-end="none"/>
     <path d="M 129.504,177.974 L 151.094,158.349 C 151.094,158.349 154.248,154.956 158.856,155.683 C 163.466,156.41 169.41,160.53 169.41,160.53 L 232.602,198.57 C 232.602,198.57 234.201,200.14 234.18,200.749 C 234.156,201.359 234.18,201.597 234.18,201.597 C 234.18,201.597 235.392,200.507 234.785,197.963 C 234.18,195.419 217.319,185.606 203.614,177.126 C 189.908,168.646 163.223,153.502 163.223,153.502 C 163.223,153.502 156.795,148.778 151.337,153.382 C 145.879,157.985 126.715,174.946 126.715,174.946 L 51.271,242.424 C 51.271,242.424 49.088,244.362 49.088,246.785 C 49.088,249.208 48.966,250.177 48.966,250.177 C 48.966,250.177 61.095,239.395 68.373,232.611 C 75.651,225.827 129.504,177.974 129.504,177.974 Z" fill="#996633" marker-start="none" marker-end="none"/>
     <path d="M 81.11,256.598 C 80.867,256.719 79.047,254.781 82.2,254.781 C 85.354,254.781 92.268,258.052 93.966,259.869 C 95.663,261.685 95.058,261.928 90.327,260.232 C 85.596,258.536 81.352,256.477 81.11,256.598 Z" fill="#996633" marker-start="none" marker-end="none"/>
     <path d="M 57.215,232.369 C 57.215,232.369 47.875,224.372 46.783,222.071 C 45.692,219.769 46.42,218.195 50.301,222.071 C 54.182,225.948 57.215,232.369 57.215,232.369 Z" fill="#996633" marker-start="none" marker-end="none"/>
     <path d="M 58.67,228.007 C 58.67,228.007 52.484,222.555 51.029,221.102 C 49.573,219.648 50.058,218.437 54.303,221.95 C 58.549,225.463 60.368,228.25 60.368,228.25 L 58.67,228.007 Z" fill="#ffcc99" marker-start="none" marker-end="none"/>
     <path d="M 9.547,197.479 L 23.253,191.785 L 105.61,159.802 L 150.609,141.751 C 150.609,141.751 156.309,138.844 160.191,138.36 C 164.073,137.875 165.892,138.239 167.832,141.873 C 169.772,145.507 177.172,159.802 177.172,159.802 L 180.447,160.892 L 168.682,138.117 C 168.682,138.117 167.105,132.302 160.555,134.967 C 154.005,137.633 84.869,163.437 84.869,163.437 L 15.005,190.452 C 15.005,190.452 12.458,191.542 10.881,193.239 C 9.304,194.935 9.547,197.479 9.547,197.479 Z" fill="#996633" marker-start="none" marker-end="none"/>
     <path d="M 147.909,272.804 C 147.909,272.804 127.061,270.821 126.971,270.009 C 126.881,269.198 135.455,269.108 141.05,269.918 C 146.646,270.73 147.909,272.804 147.909,272.804 Z" fill="#996633" marker-start="none" marker-end="none"/>
     <path d="M 149.401,189.341 C 154.879,190.132 161.67,191.165 168.845,192.282 C 163.713,200.398 157.782,209.37 151.156,218.731 C 136.517,239.416 142.288,213.685 149.401,189.341 Z M 180.634,194.134 C 180.505,194.51 180.377,194.888 180.247,195.268 C 179.721,196.993 179.158,198.791 178.56,200.662 C 175.707,211.23 181.392,204.528 187.69,195.258 C 185.371,194.888 183.01,194.512 180.634,194.134 Z M 184.148,236.845 C 186.748,239.925 195.716,235.973 204.602,229.594 C 212.437,218.452 218.866,209.157 220.109,206.923 C 223.662,200.535 218.898,200.312 218.898,200.312 C 218.898,200.312 210.877,198.992 199.848,197.211 C 198.559,200.795 196.78,204.925 194.467,209.389 C 194.428,209.465 194.389,209.541 194.35,209.615 C 193.964,214.217 191.275,223.071 185.783,233.667 C 185.228,234.739 184.682,235.799 184.148,236.845 Z" fill="#9b5b35" marker-start="none" marker-end="none"/>
     <path d="M 134.604,149.76 C 97.669,168.066 37.102,199.387 72.939,187.824 C 122.572,171.811 108.738,185.193 83.481,197.696 C 69.951,204.393 61.591,215.498 58.399,223.861 C 61.253,226.712 63.279,228.735 63.279,228.735 L 105.489,189.241 L 152.55,147.082 C 152.55,147.082 153.519,144.417 159.706,148.172 C 165.892,151.927 175.474,158.712 175.474,158.712 L 166.135,142.115 C 166.135,142.115 165.042,137.39 155.946,141.145 C 153.594,142.117 145.425,145.411 134.604,149.76 Z" fill="#b87d59" marker-start="none" marker-end="none"/>
     <path d="M 68.755,234.109 C 71.747,235.448 69.924,240.934 63.715,251.216 C 60.979,255.75 62.387,255.982 66.298,253.477 C 76.468,244.407 87.833,233.628 97.21,224.17 C 105.528,215.781 109.045,213.648 109.395,215.461 C 110.671,214.2 111.92,212.953 113.13,211.734 C 113.456,211.404 113.772,211.089 114.083,210.781 L 119.801,189.362 C 119.801,189.362 87.239,217.852 68.755,234.109 Z M 108.348,232.26 C 106.31,235.324 104.213,238.396 102.148,241.345 C 93.488,253.719 95.698,256.75 102.715,253.358 L 108.348,232.26 Z" fill="#b87d59" marker-start="none" marker-end="none"/>
     <path d="M 130.839,179.307 C 130.839,179.307 150.112,181.18 169.142,183.747 C 173.572,178.622 177.76,173.883 181.496,169.845 C 178.771,168.204 176.318,166.749 174.352,165.617 C 162.344,158.712 159.585,154.956 151.579,160.408 C 143.575,165.859 130.839,179.307 130.839,179.307 Z M 196.871,179.261 C 195.874,182.144 194.679,184.966 193.352,187.482 C 197.4,188.158 200.888,188.75 203.838,189.256 C 205.233,188.329 206.676,187.321 208.127,186.267 C 204.88,184.236 200.957,181.791 196.871,179.261 Z" fill="#b87d59" marker-start="none" marker-end="none"/>
     <path d="M 117.072,274.822 L 104.518,273.402 C 104.518,273.402 100.058,274.585 104.559,262.993 C 109.059,251.4 131.127,191.794 131.127,191.794 C 131.127,191.794 131.101,187.813 137.022,187.813 C 137.431,187.813 138.184,187.875 139.214,187.986 C 134.041,203.32 105.351,289.902 124.25,269.488 C 123.029,271.025 126.32,271.178 126.32,271.178 C 126.32,271.178 146.225,274.332 149.766,273.663 C 153.307,272.994 154.646,270.987 147.087,269.744 C 139.526,268.501 127.564,266.78 124.884,268.883 C 124.713,269.018 124.571,269.144 124.452,269.262 C 125.804,267.775 127.387,265.769 129.237,263.156 C 150.291,233.407 165.723,206.82 173.372,192.99 C 158.733,190.694 144.854,188.598 139.26,187.991 C 147.965,188.936 176.736,193.486 197.191,196.783 C 197.191,196.783 197.191,196.783 197.191,196.783 C 190.979,195.782 184.003,194.665 177.053,193.568 C 175.354,201.777 172.019,214.965 165.516,233.917 C 153.257,269.653 181.53,224.17 189.036,211.175 C 196.543,198.18 196.792,212.424 185.783,233.667 C 176.105,252.341 169.521,267.153 169.261,278.95 C 169.995,278.404 170.375,277.838 170.525,277.575 C 170.131,278.266 168.145,281.067 162.313,280.026 C 155.681,278.844 117.072,274.822 117.072,274.822 Z M 170.604,277.424 C 170.604,277.424 170.603,277.425 170.602,277.426 C 170.603,277.424 170.604,277.424 170.604,277.424 Z M 170.564,277.503 C 170.561,277.511 170.556,277.519 170.551,277.528 L 170.564,277.503 Z M 124.443,269.271 C 124.424,269.291 124.405,269.311 124.387,269.331 C 124.405,269.312 124.424,269.291 124.443,269.271 Z M 124.352,269.369 C 124.341,269.382 124.329,269.394 124.318,269.406 C 124.329,269.394 124.341,269.382 124.352,269.369 Z M 124.277,269.455 C 124.276,269.457 124.273,269.459 124.271,269.461 C 124.273,269.459 124.275,269.457 124.277,269.455 Z M 124.269,269.466 C 124.264,269.471 124.26,269.477 124.256,269.481 C 124.26,269.476 124.264,269.471 124.269,269.466 Z M 124.255,269.482 C 124.254,269.484 124.252,269.486 124.251,269.487 C 124.252,269.486 124.254,269.484 124.255,269.482 Z" fill="#ffcc99" marker-start="none" marker-end="none"/>
     <path d="M 139.214,187.986 C 140.44,188.118 142.069,188.323 144.023,188.587 C 134.475,219.17 121.859,265.02 141.787,236.863 C 153.404,220.448 163.185,205.065 170.708,192.572 C 171.593,192.711 172.481,192.85 173.372,192.99 C 165.723,206.82 150.291,233.407 129.237,263.156 C 127.386,265.77 125.803,267.776 124.451,269.264 C 124.373,269.342 124.307,269.417 124.25,269.488 C 105.351,289.902 134.041,203.32 139.214,187.986 Z M 177.053,193.568 C 178.233,193.755 179.414,193.942 180.592,194.128 C 179.201,198.746 177.548,203.902 175.586,209.622 C 165.983,237.614 183.073,212.118 192.915,196.094 C 195.32,196.481 197.643,196.854 199.848,197.211 C 198.559,200.795 196.78,204.925 194.467,209.389 C 194.428,209.465 194.389,209.541 194.35,209.615 C 194.737,204.992 192.799,204.663 189.036,211.175 C 181.53,224.17 153.257,269.653 165.516,233.917 C 172.019,214.965 175.354,201.777 177.053,193.568 Z M 183.863,258.861 C 183.812,258.93 183.764,259.001 183.714,259.07 C 183.764,259.001 183.812,258.93 183.863,258.861 Z M 183.657,259.151 C 176.21,269.601 170.604,277.424 170.604,277.424 C 170.604,277.424 170.26,278.207 169.261,278.95 C 169.462,269.873 173.406,259.01 179.623,245.976 C 179.63,245.986 179.637,245.996 179.644,246.006 C 179.023,249.578 178.886,252.887 179.316,255.953 C 179.639,258.256 181.234,259.215 183.657,259.151 Z M 194.304,210.085 C 194.305,210.075 194.306,210.065 194.307,210.055 C 194.306,210.065 194.305,210.075 194.304,210.085 Z M 194.318,209.948 C 194.329,209.839 194.34,209.73 194.349,209.626 C 194.34,209.73 194.329,209.839 194.318,209.948 Z M 194.349,209.626 C 194.349,209.622 194.349,209.619 194.35,209.615 C 194.35,209.615 194.35,209.615 194.35,209.615 C 194.349,209.619 194.349,209.622 194.349,209.626 Z" fill="#cc9966" marker-start="none" marker-end="none"/>
     <path d="M 144.023,188.587 C 145.615,188.801 147.423,189.056 149.401,189.341 C 142.288,213.685 136.517,239.416 151.156,218.731 C 157.782,209.37 163.713,200.398 168.845,192.282 C 169.464,192.379 170.085,192.476 170.708,192.572 C 163.185,205.065 153.404,220.448 141.787,236.863 C 121.859,265.02 134.475,219.17 144.023,188.587 Z M 180.592,194.128 C 180.479,194.504 180.364,194.883 180.247,195.266 C 180.378,194.886 180.506,194.51 180.634,194.134 C 180.619,194.133 180.607,194.13 180.592,194.128 Z M 178.559,200.662 C 177.657,203.48 176.669,206.465 175.586,209.622 C 165.983,237.614 183.073,212.118 192.915,196.094 C 191.209,195.82 189.463,195.54 187.69,195.258 C 181.392,204.528 175.707,211.23 178.559,200.662 Z M 184.008,237.119 C 182.463,240.148 181.011,243.07 179.664,245.891 C 179.025,249.507 178.881,252.854 179.316,255.953 C 179.639,258.256 181.234,259.215 183.657,259.151 C 190.075,250.144 197.859,239.185 204.602,229.594 C 196.029,235.748 187.381,239.642 184.447,237.143 C 184.416,237.143 184.387,237.142 184.358,237.142 C 184.235,237.138 184.119,237.129 184.008,237.119 Z M 204.626,229.561 C 205.703,228.028 206.754,226.531 207.768,225.083 C 206.754,226.531 205.703,228.028 204.626,229.561 Z" fill="#b87d59" marker-start="none" marker-end="none"/>
     <path d="M 99.181,269.924 C 99.181,269.984 96.32,269.039 91.992,267.56 C 93.493,266.504 95.076,265.308 96.719,263.981 C 96.71,263.978 96.702,263.974 96.693,263.971 C 98.443,264.701 99.545,265.199 99.545,265.199 C 99.545,265.199 99.181,269.682 99.181,269.924 Z M 80.966,263.738 C 74.716,261.546 67.907,259.118 62.355,257.066 C 62.366,257.024 62.376,256.979 62.385,256.933 C 73.469,247.243 86.609,234.863 97.21,224.17 C 121.914,199.256 104.315,229.454 86.947,254.671 C 87.089,254.724 87.232,254.778 87.377,254.832 C 86.655,254.563 85.973,254.302 85.354,254.054 C 79.895,251.874 76.985,255.628 80.138,257.688 C 80.928,258.203 82.197,258.788 83.686,259.387 C 82.611,260.985 81.706,262.434 80.966,263.738 Z M 83.704,259.394 C 83.728,259.403 83.751,259.413 83.775,259.423 C 83.751,259.413 83.728,259.403 83.704,259.394 Z M 96.623,263.941 C 96.633,263.945 96.641,263.949 96.651,263.952 C 96.641,263.949 96.632,263.945 96.623,263.941 C 96.623,263.941 96.623,263.941 96.623,263.941 Z M 96.66,263.957 C 96.668,263.96 96.676,263.964 96.685,263.967 C 96.676,263.964 96.668,263.96 96.66,263.957 Z" fill="#ffcc99" marker-start="none" marker-end="none"/>
     <path d="M 91.992,267.56 C 88.897,266.502 85.052,265.171 80.966,263.738 C 81.706,262.434 82.611,260.985 83.686,259.387 C 88.149,261.18 94.603,263.11 96.149,263.745 C 96.346,263.826 96.536,263.906 96.719,263.981 C 95.076,265.308 93.493,266.504 91.992,267.56 Z M 62.27,257.035 C 56.171,254.781 51.61,252.987 51.029,252.478 C 49.088,250.783 52.848,248.36 56.487,244.968 C 57.438,244.081 62.218,239.859 68.755,234.109 C 68.755,234.109 68.755,234.109 68.755,234.109 C 71.747,235.448 69.924,240.934 63.715,251.216 C 60.979,255.75 62.387,255.982 66.298,253.477 C 64.931,254.697 63.585,255.885 62.27,257.035 Z M 69.078,233.824 C 69.084,233.821 69.088,233.816 69.094,233.812 C 69.088,233.816 69.084,233.821 69.078,233.824 Z M 114.083,210.781 L 108.348,232.26 C 106.31,235.324 104.213,238.396 102.148,241.345 C 93.488,253.719 95.698,256.75 102.715,253.358 L 101.365,258.415 L 101.122,259.505 C 101.122,259.505 92.597,256.801 86.947,254.671 C 98.424,238.008 109.995,219.179 109.4,215.505 C 109.418,215.472 109.436,215.439 109.452,215.405 C 110.709,214.163 111.938,212.935 113.13,211.734 C 113.456,211.404 113.772,211.089 114.083,210.781 Z" fill="#cc9966" marker-start="none" marker-end="none"/>
     <path d="M 176.487,184.777 C 179.135,185.165 181.728,185.564 184.207,185.97 C 187.261,186.47 190.084,186.936 192.683,187.369 C 192.82,187.281 192.952,187.195 193.077,187.111 C 194.334,184.094 195.354,181.226 196.023,178.736 C 193.359,177.089 190.642,175.414 188.012,173.804 C 188.012,173.804 188.012,173.804 188.012,173.804 C 188.081,173.848 188.151,173.89 188.221,173.933 C 187.763,174.318 187.285,174.737 186.785,175.189 C 183.943,177.756 180.44,180.984 176.48,184.693 C 176.483,184.72 176.486,184.749 176.487,184.777 Z M 211.493,190.592 C 214.844,191.187 216.454,191.489 216.454,191.489 C 216.454,191.489 215.175,190.683 213.043,189.345 C 212.574,189.721 212.101,190.096 211.624,190.472 C 211.581,190.513 211.538,190.553 211.493,190.592 Z M 196.358,178.943 C 196.248,178.876 196.139,178.808 196.029,178.739 C 196.139,178.808 196.248,178.876 196.358,178.943 Z" fill="#ffcc99" marker-start="none" marker-end="none"/>
     <path d="M 169.142,183.747 C 171.58,184.076 174.014,184.416 176.403,184.765 C 180.395,181.026 183.925,177.773 186.785,175.189 C 187.285,174.737 187.763,174.318 188.221,173.933 C 185.912,172.518 183.665,171.153 181.578,169.895 C 181.525,169.907 181.471,169.917 181.419,169.929 C 177.701,173.948 173.543,178.657 169.142,183.747 Z M 192.95,187.414 C 193.095,187.438 193.239,187.462 193.382,187.486 C 193.382,187.486 193.382,187.486 193.382,187.486 C 193.372,187.484 193.362,187.483 193.352,187.482 C 194.679,184.966 195.874,182.144 196.871,179.261 C 196.59,179.086 196.306,178.912 196.023,178.736 C 195.332,181.31 194.267,184.287 192.95,187.414 Z M 203.278,189.16 C 203.373,189.176 203.466,189.193 203.56,189.209 C 203.466,189.193 203.373,189.176 203.278,189.16 Z M 203.838,189.256 C 206.989,189.798 209.526,190.243 211.475,190.589 C 212.004,190.174 212.527,189.759 213.043,189.345 C 211.707,188.507 210.033,187.457 208.127,186.267 C 206.676,187.321 205.233,188.329 203.838,189.256 Z" fill="#cc9966" marker-start="none" marker-end="none"/>
     <path d="M 45.337,221.706 C 44.571,220.036 44.946,218.773 46.541,218.437 C 47.168,218.306 47.921,218.236 48.762,218.281 C 52.848,214.501 57.738,210.996 63.432,208.176 C 92.206,193.932 107.969,178.687 51.422,196.931 C 15.103,208.648 65.689,181.708 106.928,160.934 C 106.922,160.916 106.916,160.898 106.91,160.88 C 79.377,171.926 50.665,183.425 50.665,183.425 L 13.572,197.615 C 13.572,197.615 7,198.084 12.337,202.566 C 15.562,205.276 29.859,217.87 40.724,227.347 C 42.079,225.461 43.616,223.566 45.337,221.706 Z" fill="#ffcc99" marker-start="none" marker-end="none"/>
     <path d="M 53.575,238.304 L 57.336,234.307 C 57.336,234.307 49.573,226.917 47.026,224.13 C 46.241,223.273 45.677,222.449 45.337,221.706 C 43.616,223.566 42.079,225.461 40.724,227.347 C 47.832,233.548 53.472,238.415 53.575,238.304 Z M 48.762,218.281 C 51.007,218.402 53.871,219.338 56.608,222.071 C 57.232,222.694 57.831,223.294 58.399,223.861 C 61.591,215.498 69.951,204.393 83.481,197.696 C 108.738,185.193 122.572,171.811 72.939,187.824 C 37.112,199.384 97.638,168.081 134.575,149.775 C 134.575,149.774 134.575,149.773 134.576,149.772 C 126.577,152.987 117.133,156.778 107.517,160.637 C 66.173,181.45 14.931,208.704 51.422,196.931 C 107.969,178.687 92.206,193.932 63.432,208.176 C 57.738,210.996 52.848,214.501 48.762,218.281 Z M 61.863,227.321 C 61.89,227.349 61.917,227.376 61.944,227.402 C 61.917,227.376 61.89,227.349 61.863,227.321 Z M 62.887,228.343 C 62.907,228.363 62.925,228.382 62.944,228.4 C 62.925,228.382 62.907,228.363 62.887,228.343 Z M 63.17,228.626 C 63.181,228.637 63.19,228.646 63.199,228.655 C 63.191,228.646 63.181,228.637 63.17,228.626 Z" fill="#cc9966" marker-start="none" marker-end="none"/>
    </g>
   </g>
  </g>
 </g>
</svg>
