<?xml version="1.0" standalone="no"?>
<!DOCTYPE svg PUBLIC "-//W3C//DTD SVG 1.1//EN" "http://www.w3.org/Graphics/SVG/1.1/DTD/svg11.dtd">
<!--Generator: Xara Xtreme (www.xara.com), SVG filter version: 1.0.0.13-->
<svg stroke-width="0.501" stroke-linejoin="bevel" fill-rule="evenodd" xmlns:xlink="http://www.w3.org/1999/xlink" xmlns="http://www.w3.org/2000/svg" version="1.1" overflow="visible" width="270pt" height="480pt" viewBox="0 0 270 480">
 <defs>
  <marker id="DefaultArrow2" markerUnits="strokeWidth" viewBox="0 0 1 1" markerWidth="1" markerHeight="1" overflow="visible" orient="auto">
   <!-- REF_ARROW_STRAIGHT (-2) -->
   <g transform="scale(0.0092592592)">
    <!-- 1/108 -->
    <path d="M -9 54 L -9 -54 L 117 0 z"/>
   </g>
  </marker>
  <marker id="DefaultArrow3" markerUnits="strokeWidth" viewBox="0 0 1 1" markerWidth="1" markerHeight="1" overflow="visible" orient="auto">
   <!-- REF_ARROW_ANGLED -->
   <g transform="scale(0.0092592592)">
    <path d="M -27 54 L -9 0 L -27 -54 L 135 0 z"/>
   </g>
  </marker>
  <marker id="DefaultArrow4" markerUnits="strokeWidth" viewBox="0 0 1 1" markerWidth="1" markerHeight="1" overflow="visible" orient="auto">
   <!-- REF_ARROW_ROUNDED -->
   <g transform="scale(0.0092592592)">
    <path d="M -9,0 L -9,-45 C -9,-51.708 2.808,-56.580 9,-54 L 117,-9 C 120.916,-7.369 126.000,-4.242 126,0 C 126,4.242 120.916,7.369 117,9 L 9,54 C 2.808,56.580 -9,51.708 -9,45 z"/>
   </g>
  </marker>
  <marker id="DefaultArrow5" markerUnits="strokeWidth" viewBox="0 0 1 1" markerWidth="1" markerHeight="1" overflow="visible" orient="auto">
   <!-- REF_ARROW_SPOT -->
   <g transform="scale(0.0092592592)">
    <path d="M -54, 0 C -54,29.807 -29.807,54 0,54 C 29.807,54 54,29.807 54,0 C 54,-29.807 29.807,-54 0,-54 C -29.807,-54 -54,-29.807 -54,0 z"/>
   </g>
  </marker>
  <marker id="DefaultArrow6" markerUnits="strokeWidth" viewBox="0 0 1 1" markerWidth="1" markerHeight="1" overflow="visible" orient="auto">
   <!-- REF_ARROW_DIAMOND -->
   <g transform="scale(0.0092592592)">
    <path d="M -63,0 L 0,63 L 63,0 L 0,-63 z"/>
   </g>
  </marker>
  <marker id="DefaultArrow7" markerUnits="strokeWidth" viewBox="0 0 1 1" markerWidth="1" markerHeight="1" overflow="visible" orient="auto">
   <!-- REF_ARROW_FEATHER -->
   <g transform="scale(0.0092592592)">
    <path d="M 18,-54 L 108,-54 L 63,0 L 108,54 L 18, 54 L -36,0 z"/>
   </g>
  </marker>
  <marker id="DefaultArrow8" markerUnits="strokeWidth" viewBox="0 0 1 1" markerWidth="1" markerHeight="1" overflow="visible" orient="auto">
   <!-- REF_ARROW_FEATHER2 -->
   <g transform="scale(0.0092592592)">
    <path d="M -36,0 L 18,-54 L 54,-54 L 18,-18 L 27,-18 L 63,-54 L 99,-54 L 63,-18 L 72,-18 L 108,-54 L 144,-54 L 90,0 L 144,54 L 108,54 L 72,18 L 63,18 L 99,54 L 63,54 L 27,18 L 18,18 L 54,54 L 18,54 z"/>
   </g>
  </marker>
  <marker id="DefaultArrow9" markerUnits="strokeWidth" viewBox="0 0 1 1" markerWidth="1" markerHeight="1" overflow="visible" orient="auto">
   <!-- REF_ARROW_HOLLOWDIAMOND -->
   <g transform="scale(0.0092592592)">
    <path d="M 0,45 L -45,0 L 0, -45 L 45, 0 z M 0, 63 L-63, 0 L 0, -63 L 63, 0 z"/>
   </g>
  </marker>
  <filter id="StainedFilter">
   <feBlend mode="multiply" in2="BackgroundImage" in="SourceGraphic" result="blend"/>
   <feComposite in="blend" in2="SourceAlpha" operator="in" result="comp"/>
  </filter>
  <filter id="BleachFilter">
   <feBlend mode="screen" in2="BackgroundImage" in="SourceGraphic" result="blend"/>
   <feComposite in="blend" in2="SourceAlpha" operator="in" result="comp"/>
  </filter>
  <filter id="InvertTransparencyBitmapFilter">
   <feComponentTransfer>
    <feFuncR type="gamma" amplitude="1.055" exponent=".416666666" offset="-0.055"/>
    <feFuncG type="gamma" amplitude="1.055" exponent=".416666666" offset="-0.055"/>
    <feFuncB type="gamma" amplitude="1.055" exponent=".416666666" offset="-0.055"/>
   </feComponentTransfer>
   <feComponentTransfer>
    <feFuncR type="linear" slope="-1" intercept="1"/>
    <feFuncG type="linear" slope="-1" intercept="1"/>
    <feFuncB type="linear" slope="-1" intercept="1"/>
    <feFuncA type="linear" slope="1" intercept="0"/>
   </feComponentTransfer>
   <feComponentTransfer>
    <feFuncR type="gamma" amplitude="1" exponent="2.4" offset="0"/>
    <feFuncG type="gamma" amplitude="1" exponent="2.4" offset="0"/>
    <feFuncB type="gamma" amplitude="1" exponent="2.4" offset="0"/>
   </feComponentTransfer>
  </filter>
 </defs>
 <g id="Document" fill="none" stroke="black" font-family="Times New Roman" font-size="16" transform="scale(1 -1)">
  <g id="Spread" transform="translate(0 -480)">
   <g id="Layer 1"/>
   <g id="Grid"/>
   <g id="Layer 7"/>
   <g id="Watch main"/>
   <g id="Lid"/>
   <g id="Balance wheel top"/>
   <g id="Removable top"/>
   <g id="Foreground">
    <g id="Group" stroke-linejoin="miter">
     <g id="Group_1">
      <g id="Group_2">
       <path d="M 95.119,378.415 C 107.634,386.378 130.068,380.891 131.288,370.265 C 132.073,363.375 128.178,357.028 126.553,355.113 C 115.903,342.566 101.129,344.331 96.634,348.528 C 88.624,351.801 85.734,372.454 95.119,378.415 Z" stroke="#000000" fill="#825d1e" stroke-width="0.125" marker-start="none" marker-end="none" stroke-miterlimit="79.8403193612775"/>
       <g id="Group_3">
        <path d="M 103.554,381.401 C 109.114,382.731 124.458,380.311 126.513,377.895 C 126.998,375.961 130.988,366.655 124.218,356.863 C 121.523,356.308 117.213,355.493 113.408,355.103 C 111.414,354.893 109.559,354.808 108.149,354.933 C 100.964,360.274 94.844,379.316 103.554,381.401 Z" stroke="#ab9150" fill="#ab9150" stroke-width="0.125" marker-start="none" marker-end="none" stroke-miterlimit="79.8403193612775"/>
        <path d="M 105.249,381.641 C 99.689,376.444 100.654,367.38 107.059,354.933 C 100.899,359.888 97.029,373.061 101.379,380.431 C 102.064,381.591 101.984,380.796 105.249,381.641 Z" stroke="#0f0d07" fill="#0f0d07" stroke-width="0.5" marker-start="none" marker-end="none" stroke-miterlimit="79.8403193612775"/>
        <path d="M 112.499,367.26 C 113.948,366.535 115.883,362.545 116.608,362.665 C 117.573,363.388 117.453,366.535 118.178,367.26 C 119.988,366.415 122.158,363.025 121.803,360.488 C 121.488,358.263 119.508,356.263 117.088,355.658 C 115.998,355.383 114.673,355.173 113.948,355.173 C 112.014,355.293 110.009,359.584 109.959,362.305 C 109.924,364.158 111.289,366.29 112.499,367.26 Z" stroke="#0f0d07" fill="#0f0d07" stroke-width="0.125" marker-start="none" marker-end="none" stroke-miterlimit="79.8403193612775"/>
        <path d="M 124.573,378.861 C 125.118,376.844 129.163,368.909 124.378,357.423 C 127.823,361.255 129.163,369.485 127.058,376.951 C 126.293,378.095 124.888,378.925 124.573,378.861 Z" stroke="none" fill="#0f0d07" stroke-width="0.125" marker-start="none" marker-end="none" stroke-miterlimit="79.8403193612775"/>
       </g>
       <path d="M 96.244,349.181 C 98.734,353.598 109.534,351.051 111.174,346.131 C 109.069,347.661 102.369,352.448 97.204,349.001 C 96.359,348.161 97.394,351.681 96.244,349.181 Z" stroke="none" fill="#0f0d07" stroke-width="0.125" marker-start="none" marker-end="none" stroke-miterlimit="79.8403193612775"/>
      </g>
      <g id="Group_4">
       <path d="M 176.583,378.051 C 164.068,386.011 141.633,380.526 140.413,369.895 C 139.623,363.008 143.523,356.658 145.149,354.748 C 155.796,342.201 170.573,343.967 175.068,348.161 C 183.078,351.438 185.967,372.084 176.583,378.051 Z" stroke="#000000" fill="#825d1e" stroke-width="0.125" marker-start="none" marker-end="none" stroke-miterlimit="79.8403193612775"/>
       <g id="Group_5">
        <path d="M 167.153,380.736 C 161.593,382.066 146.243,379.646 144.189,377.231 C 143.709,375.295 139.719,365.99 146.489,356.203 C 149.183,355.643 153.493,354.828 157.296,354.438 C 159.293,354.233 161.148,354.143 162.558,354.268 C 169.743,359.614 175.863,378.651 167.153,380.736 Z" stroke="#ab9150" fill="#ab9150" stroke-width="0.125" marker-start="none" marker-end="none" stroke-miterlimit="79.8403193612775"/>
        <path d="M 165.458,380.976 C 171.018,375.781 170.053,366.715 163.648,354.268 C 169.808,359.224 173.678,372.394 169.328,379.766 C 168.643,380.931 168.723,380.131 165.458,380.976 Z" stroke="#0f0d07" fill="#0f0d07" stroke-width="0.5" marker-start="none" marker-end="none" stroke-miterlimit="79.8403193612775"/>
        <path d="M 158.206,366.595 C 156.756,365.87 154.823,361.878 154.096,362.005 C 153.133,362.728 153.253,365.87 152.529,366.595 C 150.719,365.75 148.549,362.358 148.903,359.828 C 149.219,357.598 151.199,355.598 153.616,354.993 C 154.706,354.718 156.033,354.508 156.756,354.508 C 158.693,354.628 160.696,358.918 160.746,361.638 C 160.783,363.494 159.416,365.63 158.206,366.595 Z" stroke="#0f0d07" fill="#0f0d07" stroke-width="0.125" marker-start="none" marker-end="none" stroke-miterlimit="79.8403193612775"/>
        <path d="M 146.133,378.195 C 145.583,376.184 141.543,368.244 146.329,356.758 C 142.883,360.588 141.543,368.819 143.649,376.284 C 144.413,377.431 145.813,378.261 146.133,378.195 Z" stroke="none" fill="#0f0d07" stroke-width="0.125" marker-start="none" marker-end="none" stroke-miterlimit="79.8403193612775"/>
       </g>
       <path d="M 173.208,350.341 C 170.713,354.758 159.913,352.213 158.273,347.291 C 160.376,348.821 167.078,353.608 172.243,350.161 C 173.088,349.321 172.053,352.843 173.208,350.341 Z" stroke="none" fill="#0f0d07" stroke-width="0.125" marker-start="none" marker-end="none" stroke-miterlimit="79.8403193612775"/>
      </g>
     </g>
     <g id="Group_6" stroke="#4c4c4c" stroke-width="0.125" fill="#000000" stroke-miterlimit="79.8403193612775">
      <path d="M 181.313,375.954 C 169.833,379.236 152.649,384.366 144.219,375.321 C 141.133,371.999 142.679,365.66 144.953,361.735 C 151.263,350.841 160.806,340.411 176.663,341.226 C 189.547,341.896 191.832,372.944 181.313,375.954 Z M 184.048,377.865 C 173.933,382.241 151.343,386.248 142.219,375.681 C 138.389,371.245 142.219,361.735 143.859,358.183 C 146.049,353.808 157.893,341.106 167.918,338.496 C 194.162,331.661 196.342,372.551 184.048,377.865 Z" marker-start="none" marker-end="none"/>
      <path d="M 89.669,375.575 C 101.149,378.855 118.333,383.991 126.758,374.941 C 129.848,371.625 128.303,365.278 126.028,361.358 C 119.718,350.461 110.174,340.031 94.314,340.851 C 81.434,341.516 79.147,372.571 89.669,375.575 Z M 86.934,377.491 C 97.049,381.866 119.633,385.868 128.763,375.305 C 132.593,370.87 128.763,361.358 127.123,357.803 C 124.933,353.428 113.083,340.726 103.064,338.115 C 76.817,331.279 74.637,372.169 86.934,377.491 Z" marker-start="none" marker-end="none"/>
      <path d="M 141.123,374.585 C 135.658,376.224 133.193,375.135 128.823,374.585 C 128.433,373.444 129.093,371.829 129.093,370.215 C 133.743,371.849 138.103,371.794 140.303,370.485 C 141.803,369.59 140.809,371.465 141.123,374.585 Z" marker-start="none" marker-end="none"/>
      <path d="M 164.363,381.971 C 153.973,383.611 104.074,381.826 103.399,381.151 C 101.754,379.781 105.309,379.236 103.124,378.691 C 104.764,378.691 155.613,379.511 167.098,378.691 C 171.123,380.031 167.658,382.301 164.363,381.971 Z" marker-start="none" marker-end="none"/>
     </g>
     <g id="Group_7" stroke-width="0.125" stroke-miterlimit="79.8403193612775">
      <path d="M 131.138,302.415 C 130.488,299.49 129.838,296.56 129.188,293.635 C 136.173,293.635 145.776,286.78 143.816,298.515 C 142.813,304.543 144.273,304.853 139.916,304.373 C 138.373,304.195 131.138,303.175 131.138,305.348 C 131.138,304.041 131.138,302.741 131.138,302.415 Z" stroke="#f5bb82" fill="#f5bb82" marker-start="none" marker-end="none"/>
      <path d="M 150.646,114.1 C 150.976,110.195 151.296,106.295 151.626,102.388 C 142.236,102.388 147.053,107.015 145.773,112.149 C 142.306,126.005 150.506,110.195 150.646,114.1 Z" stroke="#cccccc" fill="#b2b2b2" marker-start="none" marker-end="none"/>
      <path d="M 172.113,100.438 C 179.053,98.896 195.162,99.201 190.652,108.245 C 189.807,109.938 185.852,112.81 187.722,113.125 C 191.017,113.67 196.192,111.908 197.482,110.195 C 206.499,98.172 179.388,92.185 172.113,99.462 C 171.363,100.213 170.808,100.438 169.189,100.438 C 171.748,100.438 173.828,100.438 172.113,100.438 Z" stroke="#cccccc" fill="#b2b2b2" marker-start="none" marker-end="none"/>
      <path d="M 80.404,101.413 C 90.919,100.358 92.924,96.917 99.917,94.581 C 101.667,93.997 122.903,108.045 123.333,110.195 C 124.678,116.915 122.403,114.56 119.428,116.048 C 117.978,116.775 123.158,114.895 124.308,116.048 C 126.078,117.82 130.858,119.81 132.113,116.048 C 133.228,112.7 130.793,110.998 129.188,110.195 C 128.143,109.673 124.743,101.308 124.308,100.438 C 122.878,97.572 94.894,90.205 90.164,90.681 C 88.174,90.875 81.627,97.262 80.404,98.487 C 80.174,98.716 79.754,98.487 79.427,98.487 C 80.874,98.487 80.257,99.311 80.404,101.413 Z" stroke="#cccccc" fill="#b2b2b2" marker-start="none" marker-end="none"/>
      <path d="M 96.014,365.84 C 89.459,367.3 87.284,368.134 83.334,366.82 C 69.017,362.045 82.124,339.651 88.207,335.595 C 93.324,332.19 100.044,330.654 105.774,327.785 C 108.074,326.634 127.508,306.048 131.138,302.415 C 141.366,292.205 163.033,318.705 167.233,322.908 C 176.438,332.11 193.167,333.36 197.482,346.328 C 197.802,347.303 197.722,349.693 198.182,350.613 C 205.782,365.815 190.192,364.238 189.677,366.82 C 185.882,385.781 196.862,374.035 185.612,385.286 C 183.493,387.408 172.658,387.951 169.233,394.813 C 167.143,394.618 151.016,394.093 150.646,394.138 C 146.683,394.633 127.233,396.183 127.233,400.968 C 127.233,392.068 108.894,399.018 99.917,399.018 C 105.267,399.018 108.924,387.608 103.817,386.331 C 100.787,385.571 95.654,386.581 94.064,383.406 C 93.434,382.141 94.724,382.746 95.039,382.431 C 99.957,377.511 96.014,370.095 96.014,365.84 Z" stroke="#f5bb82" fill="#ffcc99" marker-start="none" marker-end="none"/>
      <path d="M 88.557,369.189 C 84.947,372.194 81.187,375.281 77.357,377.191 C 65.614,383.061 82.324,391.258 82.157,391.591 C 74.887,406.139 87.774,418.454 101.357,420.395 C 107.867,421.325 115.523,414.984 122.158,417.195 C 128.088,419.171 123.608,426.461 149.356,423.594 C 150.226,423.501 157.983,410.439 158.959,412.395 C 161.869,418.214 172.673,426.641 181.358,425.196 C 184.513,424.671 184.558,413.899 184.558,412.395 C 184.558,417.734 199.272,410.484 200.559,409.194 C 208.429,401.324 194.359,393.893 195.759,393.193 C 205.912,388.111 200.342,373.551 193.782,366.99 C 188.207,367.989 184.583,373.791 176.583,366.59 C 180.583,378.591 180.833,390.431 179.383,390.591 C 167.823,391.878 171.758,388.071 171.758,401.194 C 171.758,385.771 132.883,398.473 125.358,405.994 C 125.358,386.091 104.747,411.174 99.757,401.194 C 94.529,390.731 114.673,391.058 93.359,386.791 C 90.694,386.258 95.619,381.431 94.959,378.791 C 94.799,378.135 94.659,374.891 94.959,373.991 C 99.537,360.258 85.477,370.79 88.557,369.189 Z" stroke="#ab7916" fill="#ab7916" marker-start="none" marker-end="none"/>
      <path d="M 111.704,195.925 C 110.224,191.97 107.274,185.858 106.754,182.208 C 105.227,171.515 106.454,162.075 108.657,153.255 C 108.944,152.125 109.474,149.993 109.804,148.685 C 110.434,146.155 111.984,144.045 112.849,141.443 C 114.228,137.301 119.708,130.402 119.708,125.825 C 119.708,128.391 127.303,124.011 129.613,124.3 C 131.878,124.585 129.008,140.573 129.993,144.495 C 130.288,145.678 131.278,145.738 131.513,147.158 C 131.918,149.585 130.448,149.988 130.753,153.635 C 131.133,158.235 131.558,162.275 132.278,166.59 C 133.448,173.621 133.753,185.823 134.183,186.018 C 135.238,186.508 143.543,187.038 143.703,186.403 C 145.073,180.908 144.643,175.512 144.846,169.255 C 144.973,165.345 147.523,162.311 147.893,158.59 C 148.633,151.205 147.673,143.365 147.893,135.345 C 147.916,134.515 149.326,133.195 149.416,132.301 C 149.443,132.071 149.623,127.831 148.656,127.345 C 148.486,127.26 147.353,124.835 147.893,124.3 C 148.533,123.661 154.983,123.18 155.133,123.155 C 161.439,122.102 163.763,139.787 165.039,144.873 C 165.893,148.288 166.293,151.698 167.323,154.78 C 167.729,155.99 167.869,158.775 168.083,160.495 C 168.343,162.565 169.189,165.075 169.229,167.352 C 169.349,174.336 169.733,185.518 169.613,192.498 C 169.539,196.855 160.489,218.577 158.943,218.787 C 153.479,219.511 146.896,215.861 141.796,215.735 C 126.898,215.371 116.933,218.182 114.373,202.785 C 113.818,199.468 111.324,198.115 111.704,195.925 Z" stroke="#040477" fill="#0066cc" marker-start="none" marker-end="none"/>
      <path d="M 73.077,277.398 C 73.314,271.983 73.314,269.948 74.597,267.268 C 74.814,266.413 77.234,266.703 77.234,265.968 C 77.234,266.798 85.014,271.068 80.174,273.488 C 80.017,273.565 77.997,277.085 77.924,277.238 C 76.097,277.778 73.204,277.995 73.077,277.398 Z" stroke="#964a11" fill="#964a11" marker-start="none" marker-end="none"/>
      <path d="M 110.647,271.193 C 104.184,259.341 105.727,254.115 100.547,243.755 C 100.257,243.175 101.184,240.548 100.894,239.968 C 96.587,231.353 94.079,222.822 93.279,209.987 C 93.199,208.695 89.349,199.685 92.239,198.035 C 98.844,194.258 125.193,193.575 126.258,199.965 C 130.158,221.932 128.213,224.481 129.183,247.775 C 129.293,250.34 129.623,253.041 130.158,255.185 C 131.098,258.941 130.243,258.321 130.163,260.462 C 130.008,264.562 130.733,284.389 131.138,286.805 C 131.268,287.59 132.728,297.65 132.238,298.305 C 127.953,304.025 118.283,301.571 111.457,299.865 C 110.614,299.655 101.074,295.105 99.917,294.915 C 93.069,293.77 94.124,292.769 76.324,290.945 C 75.427,290.56 74.377,288.335 74.074,287.41 C 69.674,274.235 90.479,272.928 77.607,263.276 C 82.007,262.846 93.364,268.548 95.354,269.213 C 99.997,270.763 109.174,277.518 112.599,280.948 C 113.913,282.268 118.453,282.688 118.453,284.854 C 118.453,284.008 110.647,276.978 110.647,271.193 Z" stroke="#682303" fill="#682303" marker-start="none" marker-end="none"/>
      <path d="M 141.966,299.341 C 141.966,292.29 141.386,293.405 140.443,288.674 C 140.253,287.735 138.966,286.65 138.916,285.625 C 138.653,279.74 137.713,275.055 137.396,269.623 C 137.106,264.742 137.246,260.772 137.396,256.292 C 137.743,245.89 137.396,246.39 137.396,239.905 C 137.396,236.583 137.646,191.458 141.966,190.378 C 143.706,189.938 145.533,192.11 146.916,192.665 C 149.896,193.858 154.023,194.228 156.823,196.095 C 160.283,198.398 164.979,202.228 169.013,203.331 C 176.823,205.46 183.778,206.01 192.632,206.38 C 193.087,206.395 192.307,207.375 191.872,207.521 C 188.042,208.8 184.058,215.151 183.108,218.952 C 181.633,224.861 177.383,230.028 174.348,236.098 C 173.233,238.325 172.948,241.95 172.443,244.481 C 171.918,247.095 170.053,249.845 169.393,252.48 C 168.593,255.687 166.279,258.791 165.203,262.006 C 163.163,268.123 161.259,274.085 158.349,279.915 C 155.623,285.365 173.273,271.353 174.728,270.388 C 178.808,267.668 192.677,257.831 198.349,260.102 C 199.052,260.382 195.359,264.048 195.299,264.292 C 193.767,270.433 191.167,277.145 195.299,283.338 C 195.529,283.678 198.919,288.528 196.062,288.674 C 192.057,288.874 190.212,288.325 187.297,289.054 C 184.743,289.695 176.848,290.745 175.493,292.105 C 174.133,293.465 172.448,292.869 172.063,293.63 C 171.303,293.63 172.063,293.249 165.589,295.535 C 167.699,295.535 161.473,297.665 161.399,297.82 C 162.159,302.395 151.276,305.608 149.586,303.911 C 149.086,303.415 147.333,301.266 146.543,300.871 C 144.653,299.92 142.963,299.341 140.823,299.341 C 140.953,299.341 141.076,299.341 141.966,299.341 Z" stroke="#682303" fill="#682303" marker-start="none" marker-end="none"/>
      <path d="M 197.752,289.485 C 202.722,288.058 198.989,288.999 201.182,286.815 C 202.282,285.72 204.222,261.671 196.229,262.811 C 195.669,262.891 194.819,263.016 194.702,263.578 C 193.882,267.693 196.512,268.118 196.609,271.193 C 196.712,274.575 196.402,280.288 196.229,283.388 C 195.689,293.114 195.619,289.485 197.752,289.485 Z" stroke="#964a11" fill="#964a11" marker-start="none" marker-end="none"/>
      <path d="M 195.189,284.055 C 199.379,284.055 210.219,286.54 210.649,290.435 C 210.812,291.89 210.719,296.395 211.269,297.494 C 211.722,298.401 211.969,300.29 212.159,302.382 C 213.149,313.253 210.792,312.623 205.989,317.435 C 205.009,320.625 209.122,320.685 209.492,321.055 C 210.449,322.008 211.249,320.835 212.602,320.61 C 218.989,319.548 217.229,313.365 219.729,308.353 C 220.532,306.743 220.859,306.188 221.449,307.368 C 223.409,308.103 226.789,314.745 227.339,316.938 C 228.689,322.344 235.189,336.331 238.379,335.59 C 239.099,335.83 239.362,335.86 239.362,335.344 C 241.709,326.849 236.012,321.968 234.822,314.828 C 234.652,313.798 234.229,311.848 235.269,311.718 C 236.449,311.575 236.559,311.928 237.399,312.768 C 238.239,313.608 238.679,314.098 238.822,315.275 C 238.909,315.948 243.132,322.274 243.532,323.075 C 244.642,325.3 247.509,329.058 248.442,330.929 C 249.152,332.355 252.542,335.91 254.082,336.085 C 255.339,336.22 256.892,334.984 257.492,334.384 C 257.859,334.02 257.262,332.835 257.032,331.91 C 255.582,326.124 246.649,316.478 243.289,312.278 C 241.359,309.868 239.372,308.895 243.289,308.108 C 243.799,308.003 243.199,307.668 244.512,308.108 C 247.529,309.108 258.992,325.53 262.917,326.509 C 264.422,326.884 265.417,324.248 265.492,323.718 C 264.882,317.678 255.372,311.068 251.269,305.943 C 249.932,304.271 246.299,302.635 248.199,300.741 C 249.302,299.635 257.409,305.388 260.157,305.943 C 269.021,307.713 267.576,302.315 263.267,300.16 C 258.012,296.325 249.179,295.34 248.199,293.625 C 247.192,291.865 246.119,288.125 245.499,286.26 C 244.669,283.768 237.072,277.218 234.822,277.048 C 230.739,276.735 227.919,277.385 224.602,277.938 C 222.332,278.315 219.729,281.198 217.939,280.604 C 216.819,280.228 213.592,277.525 212.159,277.048 C 208.229,275.738 205.532,274.948 201.492,273.935 C 194.922,272.293 193.222,274.995 192.242,280.865 C 192.062,281.938 193.587,284.055 195.189,284.055 Z" stroke="none" fill="#ffcc99" marker-start="none" marker-end="none"/>
      <path d="M 79.094,285.625 C 74.904,285.625 64.064,288.108 63.634,292.005 C 63.467,293.465 63.564,297.965 63.014,299.065 C 62.557,299.97 62.314,301.865 62.124,303.955 C 61.134,314.825 63.487,314.198 68.294,319.005 C 69.274,322.194 65.157,322.254 64.787,322.624 C 63.834,323.578 63.034,322.404 61.677,322.178 C 55.294,321.118 57.054,314.935 54.554,309.924 C 53.747,308.313 53.424,307.758 52.834,308.938 C 50.874,309.678 47.494,316.315 46.944,318.514 C 45.594,323.918 39.094,337.901 35.904,337.165 C 35.184,337.401 34.919,337.431 34.919,336.921 C 32.574,328.425 38.269,323.538 39.459,316.398 C 39.629,315.368 40.054,313.418 39.014,313.288 C 37.834,313.143 37.724,313.504 36.884,314.338 C 36.044,315.178 35.604,315.668 35.459,316.845 C 35.374,317.518 31.149,323.845 30.749,324.648 C 29.637,326.874 26.774,330.634 25.837,332.5 C 25.127,333.925 21.737,337.485 20.197,337.655 C 18.944,337.795 17.387,336.561 16.788,335.96 C 16.424,335.59 17.018,334.404 17.247,333.485 C 18.697,327.7 27.634,318.054 30.994,313.848 C 32.924,311.438 34.909,310.465 30.994,309.678 C 30.484,309.574 31.084,309.238 29.767,309.678 C 26.754,310.685 15.288,327.099 11.363,328.085 C 9.858,328.46 8.863,325.82 8.788,325.29 C 9.398,319.248 18.907,312.638 23.014,307.513 C 24.347,305.843 27.984,304.205 26.084,302.312 C 24.977,301.206 16.874,306.963 14.124,307.513 C 5.258,309.285 6.703,303.885 11.013,301.731 C 16.268,297.895 25.104,296.914 26.084,295.195 C 27.087,293.435 28.164,289.695 28.784,287.835 C 29.614,285.345 37.209,278.795 39.459,278.618 C 43.544,278.305 46.364,278.955 49.677,279.51 C 51.947,279.885 54.554,282.768 56.344,282.175 C 57.464,281.798 60.687,279.098 62.124,278.618 C 66.054,277.308 68.747,276.518 72.787,275.508 C 79.357,273.865 81.057,276.568 82.037,282.435 C 82.217,283.508 80.694,285.625 79.094,285.625 Z" stroke="none" fill="#ffcc99" marker-start="none" marker-end="none"/>
      <path d="M 116.063,384.906 C 108.067,383.761 100.827,378.425 102.734,367 C 102.964,366.645 107.984,354.475 108.064,353.663 C 116.063,353.663 113.778,354.805 120.408,355.108 C 122.663,355.388 124.983,354.788 127.233,355.108 C 127.823,355.194 126.853,355.043 127.113,355.568 C 133.208,381.096 124.063,384.141 116.063,384.906 Z" stroke="#f5bb82" fill="#ffffff" marker-start="none" marker-end="none"/>
      <path d="M 147.466,356.158 C 143.433,363.208 142.316,379.106 150.516,383.211 C 151.356,383.636 153.629,384.796 154.329,385.501 C 155.903,387.078 159.809,385.521 161.563,384.351 C 164.509,382.391 171.003,379.481 171.468,374.825 C 171.843,371.09 171.518,361.165 168.419,358.065 C 167.773,357.415 166.283,355.964 165.753,354.635 C 165.623,354.305 165.739,353.203 165.373,353.108 C 164.139,352.803 151.193,355.398 147.466,356.158 Z" stroke="#f5bb82" fill="#ffffff" marker-start="none" marker-end="none"/>
      <path d="M 123.088,319.585 C 127.973,325.45 141.323,323.845 145.943,317.678 C 148.213,314.648 146.833,315.645 145.563,313.108 C 140.476,302.955 120.043,315.395 123.088,319.585 Z" stroke="#f5bb82" fill="#ff0000" marker-start="none" marker-end="none"/>
      <g id="Group_8" stroke="#000000" fill="#000000">
       <path d="M 233.349,314.294 C 232.899,314.294 232.852,315.155 232.869,315.255 C 233.419,318.544 235.532,322.128 236.549,325.175 C 236.629,325.415 238.079,329.375 238.149,329.655 C 238.432,330.794 240.059,337.651 235.909,335.575 C 231.532,333.39 227.472,317.894 224.869,313.335 C 224.282,312.308 223.849,310.875 223.109,310.134 C 222.549,309.578 221.962,308.928 221.109,308.615 C 224.469,312.135 228.069,321.495 229.509,326.934 C 230.679,331.35 233.442,339.081 237.829,337.815 C 241.052,336.891 239.969,332.06 238.762,327.795 C 237.292,322.608 232.709,316.855 233.349,314.294 Z" marker-start="none" marker-end="none"/>
       <path d="M 240.869,311.078 C 243.092,315.528 249.312,322.358 252.869,327.094 C 254.172,328.835 255.919,333.46 255.429,335.414 C 253.669,339.574 247.789,331.665 245.349,327.895 C 244.992,327.34 238.132,315.028 237.509,314.615 C 237.152,314.378 236.762,314.188 236.149,314.054 C 238.769,317.198 240.022,320.525 241.909,324.295 C 247.469,335.409 253.682,339.261 255.989,337.415 C 259.189,334.854 255.989,330.055 248.949,320.135 C 247.682,319.185 242.629,311.798 240.869,311.078 Z" marker-start="none" marker-end="none"/>
       <path d="M 247.269,303.891 C 247.269,305.243 251.429,308.373 253.669,310.775 C 258.372,315.168 265.977,324.045 263.427,326.294 C 260.707,328.695 256.389,322.935 251.269,316.695 C 247.422,312.923 245.639,310.058 243.509,308.935 C 247.132,312.558 248.842,316.168 252.149,319.175 C 255.662,322.374 260.227,330.364 263.867,327.305 C 267.861,323.938 260.347,317.308 257.269,313.093 C 254.599,309.438 251.012,306.678 247.269,303.891 Z" marker-start="none" marker-end="none"/>
       <path d="M 249.029,295.25 C 249.029,295.38 249.889,295.965 250.149,296.051 C 252.392,296.8 266.786,301.331 265.027,306.453 C 264.682,307.453 260.727,306.483 256.869,305.013 C 253.869,303.271 250.672,302.182 248.629,301.571 C 249.712,302.205 252.402,303.715 255.359,305.068 C 260.402,307.368 266.227,309.198 266.227,305.413 C 266.227,302.921 262.367,300.355 257.989,298.291 C 254.489,296.645 250.469,295.57 249.029,295.25 Z" marker-start="none" marker-end="none"/>
       <path d="M 247.269,298.771 C 247.269,307.328 235.672,312.838 228.469,314.695 C 237.189,313.013 246.069,308.935 247.269,298.771 Z" marker-start="none" marker-end="none"/>
       <path d="M 209.589,290.05 C 205.752,288.768 202.212,285.47 193.582,284.374 C 200.799,283.745 206.892,287.485 209.589,290.05 Z" marker-start="none" marker-end="none"/>
       <path d="M 218.029,281.055 C 213.959,278.338 205.322,275.095 198.422,274.308 C 198.422,274.415 197.169,274.148 195.752,275.095 C 199.079,275.028 212.852,278.075 216.302,282.148 C 216.932,281.838 216.939,281.495 218.029,281.055 Z" marker-start="none" marker-end="none"/>
       <path d="M 201.639,273.498 C 201.969,273.498 200.952,269.888 200.799,268.058 C 200.692,266.803 199.859,264.082 198.919,263.878 C 195.262,263.061 193.312,269.363 192.327,272.975 C 190.757,278.725 192.052,295.365 200.629,288.128 C 198.389,292.929 191.817,289.62 191.027,284.29 C 187.337,268.818 201.909,251.02 201.639,273.498 Z" marker-start="none" marker-end="none"/>
       <path d="M 196.149,290.37 C 184.523,291.02 174.708,294.02 163.509,297.409 C 163.843,297.409 163.829,297.394 163.829,297.73 C 173.828,295.05 182.598,290.37 196.149,290.37 Z" marker-start="none" marker-end="none"/>
       <path d="M 198.029,262.248 C 185.867,261.846 169.589,277.888 157.109,283.328 C 167.243,276.998 181.023,263.952 193.147,261.926 C 194.522,261.701 198.669,261.495 198.029,262.248 Z" marker-start="none" marker-end="none"/>
       <path d="M 164.789,283.968 C 164.789,283.865 169.908,281.518 169.908,281.408 C 168.629,284.29 167.823,289.375 167.669,289.41 C 163.143,290.545 156.859,289.124 165.429,293.57 C 158.399,291.23 157.789,288.238 166.389,287.81 C 167.643,287.75 167.533,283.148 168.949,281.728 C 168.949,282.065 163.813,284.29 164.789,283.968 Z" marker-start="none" marker-end="none"/>
       <path d="M 246.709,292.61 C 239.689,269.358 213.529,276.535 209.909,291.01 C 208.949,294.211 208.892,295.32 209.269,297.73 C 210.232,303.921 213.349,311.095 205.829,316.215 C 204.569,317.075 203.269,319.415 205.829,321.335 C 214.309,326.134 218.549,316.935 218.229,313.093 C 219.029,311.655 218.389,307.973 220.469,307.973 C 224.242,307.973 227.762,297.134 226.229,293.89 C 226.709,300.155 223.382,305.588 218.552,307.853 C 217.972,308.123 217.892,309.664 217.499,311.025 C 217.349,315.098 215.832,316.925 214.932,318.725 C 213.052,322.474 205.762,322.834 204.972,318.875 C 204.599,317.015 212.672,314.545 212.062,307.248 C 211.002,294.495 208.292,288.378 219.159,281.135 C 220.519,279.775 223.832,279.315 225.799,278.868 C 238.932,276.755 245.272,288.075 246.709,292.61 Z" marker-start="none" marker-end="none"/>
      </g>
      <g id="Group_9" stroke="#000000" fill="#000000">
       <path d="M 40.219,317.505 C 40.669,317.505 40.714,318.364 40.699,318.464 C 40.149,321.755 38.034,325.34 37.019,328.385 C 36.939,328.625 35.489,332.58 35.419,332.865 C 35.134,334.005 33.509,340.861 37.659,338.784 C 42.029,336.601 46.094,321.105 48.697,316.545 C 49.284,315.518 49.717,314.084 50.457,313.345 C 51.014,312.783 51.604,312.138 52.457,311.825 C 49.097,315.345 45.499,324.705 44.059,330.144 C 42.889,334.554 40.124,342.285 35.739,341.025 C 32.514,340.101 33.599,335.264 34.804,331.004 C 36.274,325.815 40.859,320.065 40.219,317.505 Z" marker-start="none" marker-end="none"/>
       <path d="M 32.699,314.288 C 30.474,318.735 24.247,325.565 20.697,330.304 C 19.394,332.045 17.647,336.671 18.137,338.624 C 19.897,342.784 25.777,334.874 28.217,331.104 C 28.574,330.549 35.434,318.238 36.059,317.824 C 36.414,317.585 36.804,317.398 37.419,317.265 C 34.799,320.405 33.544,323.735 31.659,327.505 C 26.097,338.621 19.884,342.465 17.577,340.625 C 14.378,338.065 17.577,333.265 24.617,323.345 C 25.884,322.394 30.939,315.008 32.699,314.288 Z" marker-start="none" marker-end="none"/>
       <path d="M 26.297,307.103 C 26.297,308.453 22.137,311.585 19.897,313.984 C 15.194,318.378 7.588,327.255 10.138,329.505 C 12.858,331.905 17.178,326.144 22.297,319.905 C 26.144,316.135 27.927,313.268 30.057,312.145 C 26.434,315.765 24.724,319.378 21.417,322.384 C 17.897,325.585 13.333,333.57 9.698,330.509 C 5.705,327.15 13.218,320.52 16.298,316.305 C 18.967,312.643 22.554,309.888 26.297,307.103 Z" marker-start="none" marker-end="none"/>
       <path d="M 24.537,298.461 C 24.537,298.591 23.674,299.175 23.417,299.261 C 21.174,300.005 6.778,304.543 8.538,309.664 C 8.883,310.665 12.838,309.688 16.698,308.223 C 19.697,306.478 22.894,305.393 24.937,304.783 C 23.854,305.418 21.164,306.928 18.207,308.273 C 13.163,310.578 7.338,312.408 7.338,308.625 C 7.338,306.133 11.198,303.561 15.578,301.501 C 19.077,299.85 23.097,298.781 24.537,298.461 Z" marker-start="none" marker-end="none"/>
       <path d="M 26.297,301.982 C 26.297,310.538 37.894,316.045 45.099,317.904 C 36.379,316.225 27.497,312.145 26.297,301.982 Z" marker-start="none" marker-end="none"/>
       <path d="M 63.977,293.259 C 67.814,291.98 71.354,288.678 79.984,287.585 C 72.767,286.955 66.674,290.695 63.977,293.259 Z" marker-start="none" marker-end="none"/>
       <path d="M 55.537,284.265 C 59.607,281.548 68.244,278.298 75.144,277.518 C 75.144,277.625 76.397,277.358 77.814,278.298 C 74.487,278.238 60.714,281.278 57.264,285.36 C 56.634,285.045 56.627,284.699 55.537,284.265 Z" marker-start="none" marker-end="none"/>
       <path d="M 71.927,276.705 C 71.597,276.705 72.614,273.095 72.767,271.268 C 72.874,270.013 73.707,267.293 74.647,267.083 C 78.304,266.273 80.254,272.568 81.237,276.184 C 82.804,281.935 81.507,298.571 72.937,291.34 C 75.177,296.141 81.747,292.829 82.534,287.5 C 86.227,272.028 71.657,254.225 71.927,276.705 Z" marker-start="none" marker-end="none"/>
       <path d="M 77.417,293.58 C 89.044,294.225 98.857,297.224 110.057,300.621 C 109.724,300.621 109.734,300.605 109.734,300.941 C 99.737,298.261 90.969,293.58 77.417,293.58 Z" marker-start="none" marker-end="none"/>
       <path d="M 75.537,265.458 C 87.697,265.058 103.974,281.098 116.453,286.54 C 106.324,280.205 92.544,267.158 80.417,265.138 C 79.044,264.908 74.897,264.708 75.537,265.458 Z" marker-start="none" marker-end="none"/>
       <path d="M 108.774,287.18 C 108.774,287.075 103.657,284.724 103.657,284.619 C 104.934,287.5 105.737,292.58 105.897,292.62 C 110.424,293.75 116.708,292.335 108.134,296.78 C 115.163,294.435 115.778,291.45 107.174,291.02 C 105.924,290.955 106.034,286.36 104.614,284.939 C 104.614,285.275 109.747,287.5 108.774,287.18 Z" marker-start="none" marker-end="none"/>
       <path d="M 26.857,295.821 C 33.879,272.568 60.037,279.745 63.657,294.221 C 64.617,297.419 64.674,298.531 64.297,300.941 C 63.334,307.128 60.217,314.304 67.737,319.425 C 68.997,320.285 70.297,322.624 67.737,324.545 C 59.257,329.345 55.017,320.145 55.337,316.305 C 54.537,314.865 55.177,311.185 53.097,311.185 C 49.324,311.185 45.804,300.345 47.337,297.099 C 46.859,303.361 50.184,308.798 55.007,311.065 C 55.587,311.335 55.674,312.873 56.067,314.234 C 56.217,318.308 57.734,320.135 58.634,321.928 C 60.507,325.685 67.804,326.044 68.594,322.084 C 68.967,320.225 60.894,317.748 61.504,310.458 C 62.564,297.705 65.274,291.585 54.407,284.345 C 53.047,282.978 49.734,282.518 47.764,282.078 C 34.634,279.965 28.294,291.285 26.857,295.821 Z" marker-start="none" marker-end="none"/>
      </g>
      <path d="M 124.678,355.784 C 129.923,355.784 130.823,389.748 113.218,384.546 C 103.704,381.736 101.584,374.391 102.624,367.894 C 103.487,362.488 106.947,357.515 108.064,353.783 C 83.804,382.896 124.578,401.378 128.863,371.385 C 129.223,368.854 129.218,358.598 124.678,355.784 Z" stroke="#000000" fill="#000000" marker-start="none" marker-end="none"/>
      <path d="M 114.478,354.055 C 113.653,355.288 108.207,360.108 113.398,366.165 C 114.473,365.625 116.833,361.855 117.718,361.41 C 118.153,362.918 118.593,366.17 119.233,366.38 C 122.043,364.434 125.288,358.378 119.668,355.354 C 119.738,355.354 114.403,353.838 114.478,354.055 Z" stroke="#000000" fill="#000000" marker-start="none" marker-end="none"/>
      <path d="M 163.059,321.508 C 148.333,312.235 145.663,302.905 137.786,302.595 C 130.198,302.295 122.223,309.188 109.664,320.18 C 123.553,308.605 125.878,300.721 137.663,300.975 C 148.823,301.221 151.786,314.054 163.059,321.508 Z" stroke="#000000" fill="#000000" marker-start="none" marker-end="none"/>
      <path d="M 152.206,330.434 C 152.206,316.708 117.968,320.055 118.608,330.434 C 123.788,320.6 152.206,319.975 152.206,330.434 Z" stroke="#000000" fill="#000000" marker-start="none" marker-end="none"/>
      <path d="M 121.063,325.18 C 117.153,313.233 144.856,298.03 149.786,319.325 C 141.043,302.395 120.263,312.155 121.063,325.18 Z" stroke="#000000" fill="#000000" marker-start="none" marker-end="none"/>
      <path d="M 123.058,318.234 C 132.068,329.045 147.523,314.414 147.786,314.414 C 145.946,314.414 140.876,320.958 131.968,321.145 C 126.513,321.924 125.608,319.868 123.058,318.234 Z" stroke="#000000" fill="#000000" marker-start="none" marker-end="none"/>
      <path d="M 132.253,321.188 C 132.648,321.045 133.253,321.148 133.578,320.935 C 136.273,319.918 135.938,317.448 136.633,315.488 C 136.913,314.685 136.996,313.744 137.056,312.958 C 137.056,312.948 137.263,312.913 137.056,313.325 C 136.883,313.678 135.603,318.014 134.088,319.865 C 133.608,320.45 132.503,321.065 132.253,321.188 Z" stroke="#000000" fill="#000000" marker-start="none" marker-end="none"/>
      <path d="M 148.023,355.778 C 142.783,355.778 141.876,389.741 159.483,384.536 C 168.999,381.726 171.118,374.381 170.078,367.884 C 169.213,362.478 165.753,357.508 164.643,353.778 C 188.902,382.891 148.126,401.368 143.843,371.38 C 143.483,368.849 143.483,358.588 148.023,355.778 Z" stroke="#000000" fill="#000000" marker-start="none" marker-end="none"/>
      <path d="M 157.873,354.048 C 158.693,355.278 164.143,360.104 158.953,366.155 C 157.879,365.62 155.519,361.845 154.629,361.4 C 154.199,362.915 153.753,366.16 153.116,366.375 C 150.303,364.428 147.063,358.375 152.683,355.344 C 152.613,355.344 157.949,353.833 157.873,354.048 Z" stroke="#000000" fill="#000000" marker-start="none" marker-end="none"/>
      <g id="Group_10" stroke="#000000" fill="#000000">
       <path d="M 178.663,366.785 C 188.187,372.229 201.062,365.985 198.662,355.984 C 197.509,351.173 195.482,345.461 191.862,341.581 C 188.317,337.785 176.498,332.215 178.263,333.98 C 178.958,332.78 189.647,340.565 190.662,341.581 C 193.312,344.231 196.502,351.113 197.062,355.584 C 198.209,364.778 191.862,369.985 179.463,364.384 C 179.418,364.188 177.813,367.185 178.663,366.785 Z" marker-start="none" marker-end="none"/>
       <path d="M 180.263,353.183 C 185.507,356.184 195.062,359.028 195.062,351.583 C 195.062,354.478 184.033,356.334 181.463,351.183 C 181.158,350.573 179.863,350.968 179.863,349.583 C 179.863,351.183 180.263,351.183 180.263,353.183 Z" marker-start="none" marker-end="none"/>
       <path d="M 189.062,353.985 C 188.327,350.678 187.907,344.781 183.863,344.781 C 186.192,344.781 187.192,348.913 187.462,350.783 C 187.572,351.578 187.572,352.393 187.462,353.183 C 187.417,353.478 186.767,353.933 187.062,353.985 C 187.732,354.098 189.462,353.433 189.062,353.985 Z" marker-start="none" marker-end="none"/>
      </g>
      <path d="M 97.064,347.983 C 102.627,354.668 113.463,351.013 113.463,342.781 C 113.463,347.061 106.287,350.538 101.864,349.983 C 100.807,349.853 97.427,347.583 96.664,347.583 C 96.794,347.583 96.927,347.583 97.064,347.983 Z" stroke="#000000" fill="#000000" marker-start="none" marker-end="none"/>
      <path d="M 115.123,328.895 C 117.673,328.34 119.563,331.204 118.048,333.15 C 118.833,332.135 117.498,329.77 116.348,329.085 C 116.073,328.925 115.138,329.055 114.958,328.915 C 114.988,328.938 115.018,328.965 115.123,328.895 Z" stroke="#000000" fill="#000000" marker-start="none" marker-end="none"/>
      <path d="M 151.063,331.58 C 151.916,330.08 152.573,327.855 154.263,327.18 C 154.659,327.024 157.483,327.039 157.063,327.18 C 155.269,327.78 154.199,328.84 153.063,329.98 C 152.313,330.729 151.063,330.454 151.063,331.58 Z" stroke="#000000" fill="#000000" marker-start="none" marker-end="none"/>
      <path d="M 118.608,329.365 C 118.783,327.875 119.583,324.608 120.958,320.425 C 121.283,319.458 121.818,318.364 122.263,317.578 C 122.408,317.325 124.323,319.298 124.453,319.565 C 128.178,322.604 128.943,321.068 131.733,321.285 C 132.143,321.318 132.913,321.978 133.463,321.978 C 128.283,321.978 120.558,326.674 118.608,329.365 Z" stroke="#000000" fill="#000000" marker-start="none" marker-end="none"/>
      <path d="M 136.663,321.178 C 140.516,321.665 149.096,323.865 150.663,325.979 C 150.703,325.525 150.986,321.515 148.636,315.955 C 148.623,315.878 145.523,313.118 145.463,313.178 C 145.063,317.578 140.523,319.938 135.463,320.778 C 135.168,320.828 135.063,321.285 136.663,321.178 Z" stroke="#000000" fill="#000000" marker-start="none" marker-end="none"/>
      <path d="M 108.264,197.565 C 98.864,172.495 104.064,148.158 120.063,127.355 C 118.453,127.935 106.664,144.758 104.264,164.76 C 104.264,181.963 109.464,194.365 110.264,197.565 C 109.464,197.965 107.547,199.165 108.264,197.565 Z" stroke="#000000" fill="#000000" marker-start="none" marker-end="none"/>
      <path d="M 134.058,187.398 C 133.333,180.562 128.823,161.958 128.823,149.723 C 128.823,151.395 120.638,151.31 121.223,148.835 C 125.773,148.075 127.098,148.075 128.348,147.625 C 127.328,146.025 127.513,128.335 128.243,125.43 C 128.243,125.16 127.508,124.44 127.508,124.175 C 127.508,144.835 126.428,146.958 128.678,146.958 C 126.603,146.958 120.063,149.385 120.063,146.56 C 120.083,151.868 124.993,152.128 128.048,151.11 C 129.178,152.238 127.463,167.562 132.663,186.763 C 133.823,185.893 133.333,187.108 134.058,187.398 Z" stroke="#000000" fill="#000000" marker-start="none" marker-end="none"/>
      <path d="M 118.048,126.2 C 121.518,125.08 125.748,119.85 128.468,122.835 C 125.883,117.825 121.518,125.08 118.048,126.2 Z" stroke="#000000" fill="#000000" marker-start="none" marker-end="none"/>
      <path d="M 133.863,306.378 C 137.576,306.378 143.463,306.203 143.463,308.378 C 143.463,303.911 135.698,305.978 133.863,306.378 Z" stroke="#000000" fill="#000000" marker-start="none" marker-end="none"/>
      <path d="M 113.443,123.035 C 112.197,122.292 105.817,114.125 100.524,112.349 C 95.254,110.59 88.644,115.945 83.874,113.1 C 79.854,110.7 76.187,104.853 77.767,100.448 C 80.434,93.027 95.264,88.152 99.264,90.551 C 93.049,88.312 78.597,97.387 78.824,104.353 C 77.924,107.048 81.854,111.585 85.057,113.295 C 89.609,115.725 95.689,111.798 100.524,113.595 C 105.264,115.355 106.197,118.885 112.197,123.285 C 112.197,122.67 111.704,123.285 113.443,123.035 Z" stroke="none" fill="#000000" marker-start="none" marker-end="none"/>
      <path d="M 130.663,122.355 C 137.463,117.155 135.523,115.735 131.863,104.353 C 133.168,105.665 131.918,108.858 133.863,112.355 C 135.418,115.155 133.823,121.955 130.663,122.355 Z" stroke="none" fill="#000000" marker-start="none" marker-end="none"/>
      <path d="M 110.664,282.775 C 110.664,276.898 95.264,248.168 93.664,219.366 C 90.359,207.005 92.519,205.255 89.349,199.705 C 91.199,200.585 91.749,208.165 94.379,221.311 C 95.324,233.598 104.024,258.495 105.664,261.771 C 107.604,265.658 113.863,281.995 113.863,286.375 C 113.863,283.195 113.273,285.015 110.664,282.775 Z" stroke="none" fill="#000000" marker-start="none" marker-end="none"/>
      <path d="M 89.814,199.595 C 92.214,195.595 117.713,197.715 121.523,198.535 C 121.523,196.425 123.343,202.508 124.358,200.735 C 119.383,200.735 128.223,201.995 122.953,201.805 C 121.593,199.085 97.814,196.395 89.814,199.595 Z" stroke="#000000" fill="#000000" marker-start="none" marker-end="none"/>
      <path d="M 123.613,103.825 C 121.313,99.221 116.203,97.687 111.924,95.056 C 109.727,93.702 105.634,91.235 102.937,91.011 C 104.527,91.805 107.824,92.542 109.454,93.032 C 111.254,93.572 122.038,99.554 123.613,103.825 Z" stroke="#000000" fill="#000000" marker-start="none" marker-end="none"/>
      <path d="M 124.508,100.448 C 126.553,101.063 129.438,103.819 131.028,103.819 C 130.758,103.819 125.078,99.679 124.508,99.328 C 124.448,99.288 124.338,99.271 124.283,99.328 C 123.973,99.639 125.348,100.633 124.508,100.448 Z" stroke="#000000" fill="#000000" marker-start="none" marker-end="none"/>
      <g id="Group_11" stroke="#000000" fill="#000000">
       <path d="M 92.739,368.544 C 83.207,373.991 70.337,367.744 72.737,357.745 C 73.894,352.933 75.914,347.223 79.537,343.341 C 83.084,339.544 94.904,333.975 93.139,335.74 C 92.439,334.539 81.754,342.325 80.737,343.341 C 78.087,345.991 74.897,352.873 74.337,357.345 C 73.187,366.54 79.537,371.744 91.939,366.145 C 91.984,365.95 93.584,368.944 92.739,368.544 Z" marker-start="none" marker-end="none"/>
       <path d="M 91.139,354.945 C 85.887,357.945 76.337,360.789 76.337,353.343 C 76.337,356.238 87.364,358.095 89.939,352.943 C 90.244,352.333 91.539,352.728 91.539,351.343 C 91.539,352.943 91.139,352.943 91.139,354.945 Z" marker-start="none" marker-end="none"/>
       <path d="M 82.337,355.744 C 83.074,352.438 83.494,346.541 87.537,346.541 C 85.207,346.541 84.204,350.678 83.937,352.543 C 83.824,353.338 83.824,354.155 83.937,354.945 C 83.977,355.238 84.634,355.694 84.337,355.744 C 83.664,355.858 81.937,355.194 82.337,355.744 Z" marker-start="none" marker-end="none"/>
      </g>
      <path d="M 83.064,372.384 C 74.844,377.181 63.067,394.948 77.864,391.988 C 75.747,398.333 73.884,406.008 79.064,411.189 C 79.064,410.619 79.284,410.129 79.464,409.589 C 86.054,422.771 105.204,423.291 117.463,422.391 C 118.033,422.351 119.463,421.411 119.463,420.791 C 119.463,422.441 118.003,425.041 119.863,426.391 C 122.433,428.266 126.448,428.496 129.463,427.991 C 133.518,427.318 133.353,425.086 133.863,425.591 C 136.253,427.986 133.853,428.471 140.663,427.191 C 143.146,426.726 145.616,425.961 147.863,424.791 C 151.286,423.011 152.663,418.699 152.663,415.189 C 152.663,421.255 137.203,429.878 132.663,420.791 C 132.663,422.301 130.218,425.485 128.663,425.591 C 119.323,426.216 122.333,424.275 120.663,417.589 C 120.448,416.75 119.168,418.231 119.063,418.391 C 118.188,419.701 115.113,419.834 113.863,419.991 C 105.067,421.091 85.824,416.21 80.264,408.79 C 79.067,407.205 80.664,404.495 80.664,402.788 C 80.664,403.698 78.907,405.744 77.864,406.789 C 77.864,393.968 75.764,392.038 86.264,386.788 C 84.024,386.788 76.134,392.538 74.264,388.788 C 72.437,385.141 80.124,371.585 83.064,372.384 Z" stroke="#000000" fill="#000000" marker-start="none" marker-end="none"/>
      <path d="M 187.462,387.188 C 182.908,387.188 171.848,390.028 170.263,394.788 C 169.483,397.133 170.263,399.243 170.263,401.588 C 170.263,392.813 143.356,395.333 138.263,396.788 C 134.518,397.858 123.218,404.268 121.863,403.588 C 120.888,403.105 124.288,398.388 125.463,398.388 C 124.083,398.388 119.463,400.408 119.463,398.388 C 113.178,399.173 107.847,401.054 101.464,403.588 C 109.947,398.743 118.998,395.168 128.663,398.388 C 128.143,399.168 127.063,400.218 127.063,401.188 C 129.863,399.458 132.368,397.113 135.463,395.988 C 145.413,392.368 155.389,392.461 165.463,394.788 C 165.593,394.818 165.769,394.883 165.863,394.788 C 172.138,388.511 176.893,386.788 185.862,386.788 C 186.412,386.788 186.927,387.058 187.462,387.188 Z" stroke="#000000" fill="#000000" marker-start="none" marker-end="none"/>
      <path d="M 194.262,372.784 C 195.469,373.995 197.892,374.015 199.462,375.585 C 208.209,384.336 206.552,393.518 195.062,396.388 C 194.639,396.493 196.222,397.943 196.262,397.988 C 197.009,398.928 197.369,400.858 197.462,401.988 C 198.122,409.909 190.222,417.584 182.263,416.79 C 180.693,416.635 178.268,414.764 178.263,414.789 C 175.308,426.601 168.783,423.484 159.863,417.589 C 162.419,425.261 171.328,428.988 178.263,423.591 C 179.648,422.511 179.003,419.651 179.863,418.789 C 180.548,418.104 181.698,419.694 182.663,419.591 C 186.837,419.151 191.157,417.479 194.662,415.189 C 201.209,410.909 201.192,404.628 196.662,399.188 C 209.262,399.188 212.209,373.985 194.262,372.784 Z" stroke="#000000" fill="#000000" marker-start="none" marker-end="none"/>
      <path d="M 158.763,282.075 C 168.213,257.391 171.863,227.502 191.862,209.165 C 175.648,209.165 153.463,198.958 153.463,197.965 C 153.463,198.288 155.029,199.318 155.463,199.565 C 166.773,205.96 173.728,208.765 187.062,208.765 C 185.877,209.947 188.537,209.375 187.257,210.655 C 178.938,218.977 163.843,258.365 161.693,271.283 C 161.183,274.328 159.163,278.105 158.763,282.075 Z" stroke="#000000" fill="#000000" marker-start="none" marker-end="none"/>
      <path d="M 149.063,305.578 C 153.473,305.758 160.263,304.778 162.263,299.175 C 157.773,303.665 156.593,305.578 149.063,305.578 Z" stroke="#000000" fill="#000000" marker-start="none" marker-end="none"/>
      <path d="M 113.063,301.176 C 116.333,302.811 118.433,305.328 122.263,304.778 C 122.818,304.698 125.918,302.775 126.263,302.775 C 124.063,302.775 123.783,304.325 120.663,303.975 C 117.623,303.641 115.588,301.176 113.063,301.176 Z" stroke="#000000" fill="#000000" marker-start="none" marker-end="none"/>
      <path d="M 141.063,298.775 C 135.238,287.13 134.263,205.965 137.463,203.965 C 136.263,210.765 136.923,267.308 137.063,272.775 C 137.233,279.57 138.503,285.7 139.063,292.375 C 139.263,294.815 142.263,297.559 141.063,298.775 Z" stroke="#000000" fill="#000000" marker-start="none" marker-end="none"/>
      <path d="M 147.863,302.375 C 148.266,300.345 150.116,298.341 149.463,296.375 C 149.163,295.48 147.556,296.275 146.663,295.975 C 140.656,293.975 143.476,290.97 149.463,287.975 C 146.243,287.975 139.863,268.488 139.863,265.171 C 139.863,267.573 140.543,268.378 140.663,270.773 C 140.763,272.835 146.686,286.8 147.463,287.575 C 144.963,287.575 143.523,294.375 141.863,294.375 C 142.926,294.375 144.146,295.805 144.663,295.975 C 151.353,298.205 147.863,295.935 147.863,302.375 Z" stroke="#000000" fill="#000000" marker-start="none" marker-end="none"/>
      <path d="M 131.463,299.175 C 131.463,285.81 130.253,289.039 129.463,275.575 C 129.043,268.428 128.413,245.54 128.663,238.368 C 128.903,231.313 130.048,224.301 128.663,217.168 C 127.928,213.392 127.848,209.632 126.663,205.965 C 125.758,203.181 121.863,198.908 121.863,195.165 C 134.928,225.031 125.063,265.171 129.863,289.975 C 130.183,290.705 130.933,299.975 131.463,299.175 Z" stroke="#000000" fill="#000000" marker-start="none" marker-end="none"/>
      <path d="M 128.463,190.165 C 133.358,186.493 136.263,183.163 141.863,191.163 C 137.233,186.538 131.063,186.763 128.463,190.165 Z" stroke="#000000" fill="#000000" marker-start="none" marker-end="none"/>
      <path d="M 127.063,259.972 C 127.063,266.143 124.558,282.878 120.863,286.575 C 121.698,286.575 124.978,290.675 126.763,290.675 C 119.643,290.675 124.263,293.174 123.263,300.975 C 123.263,299.445 123.298,294.475 124.563,291.875 C 128.963,290.275 126.828,290.375 128.263,290.375 C 126.533,290.375 124.523,287.51 123.063,286.775 C 122.633,286.56 123.768,286.045 123.863,285.575 C 124.048,284.644 124.173,283.328 124.263,282.375 C 124.833,276.088 125.603,267.003 127.063,261.171 C 127.158,260.785 127.063,260.372 127.063,259.972 Z" stroke="#000000" fill="#000000" marker-start="none" marker-end="none"/>
      <path d="M 118.018,223.853 C 118.013,217.446 118.573,209.857 115.208,204.25 C 110.807,204.255 104.487,205.775 102.807,205.86 C 101.477,205.925 94.344,208.245 95.609,208.665 C 97.344,209.24 96.447,208.71 98.007,208.66 C 100.407,205.86 110.144,206.385 114.408,206.255 C 114.778,206.24 113.788,206.345 114.408,206.65 C 114.888,206.895 115.228,209.47 116.013,210.252 C 118.693,212.931 117.523,223.853 119.218,223.853 C 119.083,223.853 118.953,223.853 118.018,223.853 Z" stroke="#000000" fill="#000000" marker-start="none" marker-end="none"/>
      <path d="M 137.863,200.765 C 138.046,198.508 137.313,196.165 137.863,193.965 C 138.203,192.595 147.863,193.165 153.463,198.365 C 146.663,193.965 140.236,194.968 139.463,195.165 C 138.513,195.405 138.316,199.965 137.863,200.765 Z" stroke="#000000" fill="#000000" marker-start="none" marker-end="none"/>
      <path d="M 128.663,217.168 C 130.253,216.851 135.168,215.671 136.663,217.168 C 136.663,214.102 128.923,216.366 128.663,217.168 Z" stroke="#000000" fill="#000000" marker-start="none" marker-end="none"/>
      <path d="M 139.163,293.675 C 137.763,291.275 132.363,293.875 131.063,294.375 C 131.563,293.074 135.543,292.095 138.663,292.375 C 139.636,292.465 139.563,293.274 139.163,293.675 Z" stroke="#000000" fill="#000000" marker-start="none" marker-end="none"/>
      <path d="M 129.188,220.456 C 131.613,219.646 133.653,220.908 136.228,220.908 C 133.553,220.908 133.998,218.852 129.188,220.456 Z" stroke="#000000" fill="#000000" marker-start="none" marker-end="none"/>
      <path d="M 97.494,225.578 C 94.494,219.866 94.759,217.371 95.129,211.705 C 95.194,210.722 96.107,210.572 95.904,209.792 C 96.284,211.235 94.699,225.888 97.494,225.578 Z" stroke="#000000" fill="#000000" marker-start="none" marker-end="none"/>
      <path d="M 117.288,224.641 C 113.658,225.598 111.344,214.747 99.974,223.648 C 110.854,218.047 113.843,225.121 117.288,224.641 Z" stroke="#000000" fill="#000000" marker-start="none" marker-end="none"/>
      <path d="M 146.016,225.911 C 151.423,225.911 156.349,226.648 160.863,230.038 C 162.703,231.413 162.809,234.163 165.813,234.163 C 157.873,226.632 158.099,222.892 146.016,225.911 Z" stroke="#000000" fill="#000000" marker-start="none" marker-end="none"/>
      <path d="M 172.823,211.475 C 166.939,211.475 163.459,210.142 158.803,208.59 C 152.533,206.5 149.466,218.572 145.606,222.202 C 145.606,219.017 148.326,215.521 149.726,212.715 C 155.689,200.785 162.739,211.891 172.823,211.475 Z" stroke="#000000" fill="#000000" marker-start="none" marker-end="none"/>
      <path d="M 121.278,255.195 C 117.568,255.195 113.853,255.195 110.144,256.841 C 110.144,256.705 110.144,256.565 110.144,256.432 C 110.144,259.967 111.794,258.895 111.377,267.568 C 111.107,266.483 108.787,255.296 108.907,255.195 C 109.347,254.815 119.418,253.925 119.628,253.955 C 119.948,254 120.858,254.985 121.278,255.195 Z" stroke="#000000" fill="#000000" marker-start="none" marker-end="none"/>
      <path d="M 121.688,256.432 C 121.688,257.861 120.958,266.048 120.868,267.158 C 120.288,274.088 121.688,266.328 114.678,267.153 C 117.898,267.478 118.913,267.623 121.278,268.803 C 121.278,264.952 121.278,261.105 121.688,256.432 Z" stroke="#000000" fill="#000000" marker-start="none" marker-end="none"/>
      <path d="M 165.689,202.725 C 175.088,177.656 161.463,133.742 157.053,126.812 C 158.663,127.39 167.163,151.715 167.793,173.13 C 169.053,204.945 165.273,199.588 164.013,204.63 C 165.903,206.205 166.403,204.325 165.689,202.725 Z" stroke="#000000" fill="#000000" marker-start="none" marker-end="none"/>
      <path d="M 140.316,188.498 C 141.043,181.662 145.383,165.37 145.383,153.128 C 145.383,154.805 148.396,153.808 147.586,154.005 C 146.263,154.32 148.686,154.29 147.366,153.465 C 147.563,153.148 145.826,153.478 145.106,152.625 C 144.613,148.328 146.636,128.551 146.133,126.525 C 146.133,126.262 146.866,125.54 146.866,125.27 C 146.866,145.935 144.826,150.81 145.486,152.625 C 146.276,152.625 148.193,156.605 145.876,154.455 C 144.746,155.585 146.913,168.66 141.713,187.863 C 140.553,186.988 141.043,188.208 140.316,188.498 Z" stroke="#000000" fill="#000000" marker-start="none" marker-end="none"/>
      <path d="M 159.573,124.92 C 157.883,124.46 155.909,123.685 154.733,122.51 C 154.223,122.002 151.193,120.539 149.343,120.865 C 147.983,121.1 146.513,122.075 146.026,123.345 C 151.486,117.89 153.723,124.92 159.573,124.92 Z" stroke="#000000" fill="#000000" marker-start="none" marker-end="none"/>
      <path d="M 145.063,120.355 C 143.016,118.31 141.403,114.47 143.013,111.248 C 143.266,110.745 143.573,105.098 144.413,104.818 C 144.183,105.735 144.776,109.768 144.663,110.355 C 144.373,111.805 143.853,109.293 143.293,112.65 C 140.946,114.995 145.463,118.4 145.063,120.355 Z" stroke="#000000" fill="#000000" marker-start="none" marker-end="none"/>
      <path d="M 145.246,103.979 C 148.263,102.368 155.939,98.162 158.953,101.183 C 155.599,99.784 149.246,102.362 145.246,103.979 Z" stroke="#000000" fill="#000000" marker-start="none" marker-end="none"/>
      <path d="M 182.593,95.096 C 183.658,95.206 186.052,96.777 185.452,96.577 C 182.038,94.726 176.678,96.022 174.738,96.577 C 172.708,97.387 169.613,99.699 166.793,100.643 C 163.309,101.808 160.699,103.228 155.919,102.538 C 157.643,102.538 159.529,102.542 161.233,102.258 C 162.939,101.973 166.479,100.213 168.089,99.161 C 173.508,95.622 177.598,94.586 182.593,95.096 Z" stroke="#000000" fill="#000000" marker-start="none" marker-end="none"/>
      <path d="M 158.943,122.97 C 184.778,103.829 181.718,122.78 192.587,118.25 C 196.569,116.865 198.899,114.725 200.032,111.148 C 202.609,103.028 193.987,97.047 189.162,97.047 C 190.542,97.047 189.902,97.092 191.162,97.847 C 198.162,102.048 204.229,111.568 192.932,117.385 C 181.333,123.355 183.628,100.004 158.943,122.97 Z" stroke="#000000" fill="#000000" marker-start="none" marker-end="none"/>
      <path d="M 159.513,123.44 C 162.583,121.902 166.059,118.925 169.303,117.845 C 165.573,117.845 162.839,122.88 159.513,123.44 Z" stroke="#000000" fill="#000000" marker-start="none" marker-end="none"/>
      <path d="M 116.973,124.38 C 117.998,123.5 119.158,122.76 120.038,121.742 C 120.848,120.799 121.388,119.66 121.973,118.57 C 122.143,118.255 122.008,117.335 122.333,117.145 C 122.108,118.03 122.723,117.57 122.238,119.015 C 121.698,120.625 118.383,123.535 116.973,124.38 Z" stroke="#000000" fill="#000000" marker-start="none" marker-end="none"/>
      <path d="M 75.794,106.025 C 66.684,101.473 54.764,99.594 44.254,97.177 C 44.459,88.945 67.334,89.865 69.674,89.702 C 73.454,89.435 49.104,84.11 52.714,82.945 C 61.227,86.325 90.024,80.635 99.254,82.945 C 105.357,84.47 119.103,84.045 127.333,82.175 C 133.168,82.175 147.413,87.615 157.719,88.712 C 167.339,89.735 173.673,88.725 186.747,88.725 C 184.902,86.885 179.568,83.865 181.873,83.85 C 202.332,83.71 198.099,94.097 234.552,94.581 C 235.552,99.904 226.072,101.793 220.899,103.365 C 214.482,105.308 200.792,101.903 200.792,103.715 C 200.792,101.553 196.912,100.238 195.969,98.337 C 176.488,87.555 168.379,102.192 161.843,101.808 C 161.899,100.978 157.133,100.088 156.503,99.462 C 154.979,99.499 155.139,99.799 153.973,99.914 C 150.736,100.238 147.296,102.302 144.383,103.759 C 143.083,105.063 143.673,106.735 142.846,109.218 C 142.716,109.603 135.758,109.368 134.063,109.368 C 134.293,108.348 132.868,106.538 132.553,104.943 C 132.378,104.089 125.798,99.634 125.283,99.462 C 123.213,98.771 123.143,96.572 122.713,98.711 L 120.518,98.891 C 118.183,97.732 116.013,95.166 101.847,90.445 C 100.357,88.455 76.177,87.562 75.794,106.025 Z" stroke="#000000" fill="#000000" marker-start="none" marker-end="none"/>
      <path d="M 160.009,347.608 C 165.053,350.848 175.863,351.933 175.863,344.361 C 177.308,355.174 160.009,351.953 160.009,347.608 Z" stroke="#000000" fill="#000000" marker-start="none" marker-end="none"/>
      <path d="M 200.052,286.035 C 198.519,290.65 194.062,291.27 192.847,286.395 C 192.827,286.31 192.397,284.27 192.487,284.23 C 196.232,284.3 197.762,284.98 199.572,285.345 C 200.049,285.44 199.932,286.395 200.052,286.035 Z" stroke="#000000" fill="#000000" marker-start="none" marker-end="none"/>
      <path d="M 193.827,285.24 C 193.202,283.358 191.127,276.548 195.812,275.108 C 196.669,274.255 197.862,274.438 198.929,274.085 C 198.972,274.068 197.899,271.148 197.849,270.838 C 197.692,269.918 196.512,264.298 194.962,265.071 C 192.597,266.253 190.472,278.208 190.637,280.568 C 190.707,281.555 191.817,282.305 192.077,283.095 C 192.262,285.24 193.297,285.24 193.827,285.24 Z" stroke="#000000" fill="#000000" marker-start="none" marker-end="none"/>
      <path d="M 80.264,269.573 C 80.127,269.573 79.994,269.573 79.864,269.573 C 83.504,273.218 84.897,292.445 81.037,287.645 C 82.707,287.435 83.227,279.39 78.664,278.375 C 78.024,277.738 77.107,277.805 76.337,277.508 C 78.694,274.685 78.347,271.888 80.264,269.573 Z" stroke="#000000" fill="#000000" marker-start="none" marker-end="none"/>
      <path d="M 73.464,288.774 C 74.247,291.09 74.457,291.09 75.464,291.975 C 75.524,292.235 76.364,292.275 76.664,292.375 C 81.317,293.93 86.114,286.015 78.264,287.975 C 77.007,288.288 75.157,288.125 73.464,288.774 Z" stroke="#000000" fill="#000000" marker-start="none" marker-end="none"/>
      <path d="M 111.864,282.375 C 113.823,283.945 115.978,284.889 117.463,286.375 C 117.463,285.51 119.063,284.454 119.063,283.575 C 119.063,282.558 115.563,282.518 115.063,282.375 C 113.423,281.905 111.707,279.665 111.064,278.375 C 111.064,279.058 110.514,282.375 111.864,282.375 Z" stroke="#000000" fill="#000000" marker-start="none" marker-end="none"/>
      <path d="M 157.863,282.375 C 157.193,282.908 156.529,283.445 155.863,283.975 C 157.229,281.238 158.263,278.288 158.263,275.175 C 158.263,277.648 159.063,280.168 157.863,282.375 Z" stroke="#000000" fill="#000000" marker-start="none" marker-end="none"/>
      <path d="M 120.663,126.755 C 123.083,125.545 125.018,123.085 127.863,123.555 C 127.703,124.035 127.463,124.515 127.283,125.355 C 127.283,123.975 121.883,126.755 120.663,126.755 Z" stroke="#000000" fill="#000000" marker-start="none" marker-end="none"/>
      <path d="M 154.663,125.555 C 154.663,123.45 148.833,124.58 147.463,125.955 C 147.063,125.425 146.663,124.89 146.663,124.755 C 154.533,121.805 153.296,125.79 154.663,125.555 Z" stroke="#000000" fill="#000000" marker-start="none" marker-end="none"/>
      <path d="M 130.663,120.355 C 135.503,114.3 131.748,107.438 126.663,102.352 C 137.353,102.352 136.018,121.955 129.063,121.955 C 129.888,121.545 130.403,121.015 130.663,120.355 Z" stroke="#000000" fill="#000000" marker-start="none" marker-end="none"/>
      <path d="M 159.063,123.955 C 159.063,118.815 159.463,118.35 161.463,114.355 C 159.249,114.355 158.663,121.842 159.063,123.955 Z" stroke="#000000" fill="#000000" marker-start="none" marker-end="none"/>
      <path d="M 115.423,124.275 C 109.024,124.275 110.594,122.042 106.484,122.042 C 110.737,122.042 112.574,124.275 115.423,124.275 Z" stroke="#000000" fill="#000000" marker-start="none" marker-end="none"/>
      <path d="M 113.688,120.3 C 112.184,118.58 111.007,116.355 108.967,115.33 C 108.304,115 107.417,114.635 106.727,114.34 C 104.767,113.5 110.907,115.03 111.947,116.325 C 112.789,117.375 112.514,119.625 113.688,120.3 Z" stroke="#000000" fill="#000000" marker-start="none" marker-end="none"/>
      <path d="M 162.383,118.065 C 165.003,115.15 168.409,112.105 172.568,112.105 C 170.458,112.105 162.383,114.545 162.383,118.065 Z" stroke="#000000" fill="#000000" marker-start="none" marker-end="none"/>
      <path d="M 145.176,132.141 C 146.113,130.275 146.813,127.705 146.813,125.61 C 146.696,126.855 146.443,132.141 145.176,132.141 Z" stroke="#000000" fill="#000000" marker-start="none" marker-end="none"/>
      <path d="M 145.793,131.532 C 146.516,130.805 145.996,128.265 147.016,125.61 C 147.016,127.245 150.316,131.935 145.793,131.532 Z" stroke="#ffffff" fill="#ffffff" marker-start="none" marker-end="none"/>
      <path d="M 145.836,131.981 C 147.456,132.141 156.063,130.085 156.063,132.865 C 159.549,129.825 146.746,130.755 145.836,131.981 Z" stroke="#000000" fill="#000000" marker-start="none" marker-end="none"/>
      <path d="M 120.088,126.615 C 119.368,124.815 125.973,119.885 128.158,122.292 C 129.473,125.135 121.178,126.862 120.088,126.615 Z" stroke="#000000" fill="#000000" marker-start="none" marker-end="none"/>
      <path d="M 148.046,124.915 C 145.426,119.45 153.513,121.855 155.483,123.165 C 154.659,123.165 154.829,124.565 154.829,125.35 C 153.733,124.26 149.616,124.235 148.046,124.915 Z" stroke="#000000" fill="#000000" marker-start="none" marker-end="none"/>
      <path d="M 115.173,132.865 C 115.708,132.555 124.503,131.212 124.503,133.312 C 124.503,131.515 116.008,129.795 116.008,131.955 C 116.043,131.092 117.518,128.375 117.808,127.215 C 118.408,127.155 121.553,126.595 122.428,126.375 C 122.848,126.272 116.313,126.615 117.208,126.615 C 115.228,130.335 115.708,131.835 115.173,132.865 Z" stroke="#000000" fill="#000000" marker-start="none" marker-end="none"/>
      <path d="M 117.448,131.255 C 118.323,125.79 122.693,127.102 122.693,127.102 C 123.123,126.955 120.073,129.065 120.073,128.631 C 120.073,129.035 116.793,131.911 117.448,131.255 Z" stroke="#ffffff" fill="#ffffff" marker-start="none" marker-end="none"/>
      <path d="M 190.537,102.328 C 193.572,105.188 197.592,107.618 195.399,111.125 C 198.342,106.418 197.032,105.243 190.537,102.328 Z" stroke="#000000" fill="#000000" marker-start="none" marker-end="none"/>
      <path d="M 101.867,268.268 C 104.604,255.962 99.917,242.015 99.917,230.213 C 99.917,239.218 103.907,252.571 97.967,258.511 C 100.524,261.065 98.684,265.081 101.867,268.268 Z" stroke="#ffffff" fill="#ffffff" marker-start="none" marker-end="none"/>
      <path d="M 145.486,152.625 C 147.956,153.175 147.523,152.685 149.276,150.92 C 148.766,150.92 148.763,152.195 148.326,152.245 C 146.913,152.398 146.426,152.625 145.486,152.625 Z" stroke="#000000" fill="#000000" marker-start="none" marker-end="none"/>
      <path d="M 123.873,149.593 C 125.393,150.163 129.248,150.283 128.803,148.075 C 128.678,147.455 129.063,147.438 128.613,147.888 C 127.718,148.785 124.088,149.593 123.873,149.593 Z" stroke="#000000" fill="#000000" marker-start="none" marker-end="none"/>
      <path d="M 95.629,109.113 C 101.034,109.113 104.957,103.658 104.957,97.557 C 104.957,101.168 98.257,109.558 95.629,109.113 Z" stroke="#000000" fill="#000000" marker-start="none" marker-end="none"/>
      <path d="M 138.663,351.183 C 141.736,351.183 146.853,349.488 149.863,347.983 C 153.369,346.228 154.609,341.131 151.063,337.581 C 149.346,335.865 140.543,334.364 137.463,333.98 C 111.864,331.179 117.528,348.883 126.663,349.583 C 136.048,350.308 132.423,347.548 133.063,349.583 C 133.373,350.588 131.473,350.648 130.463,351.383 C 112.864,351.383 111.257,331.475 135.263,332.18 C 162.463,332.98 161.663,352.183 138.663,351.183 Z" stroke="#000000" fill="#000000" marker-start="none" marker-end="none"/>
     </g>
     <path d="M 94.419,375.501 C 92.884,375.501 88.954,374.581 88.884,374.361 C 88.617,374.315 88.394,373.174 88.714,372.774 C 89.999,372.774 91.489,372.694 92.374,372.434 C 92.739,373.271 93.784,374.901 94.419,375.501 Z" stroke="#bf9108" fill="#bf9108" stroke-width="0.125" marker-start="none" marker-end="none" stroke-miterlimit="79.8403193612775"/>
     <g id="Group_12">
      <path d="M 144.209,375.545 C 140.313,374.765 139.379,376.281 136.948,376.231 C 134.588,376.181 134.273,375.011 129.933,375.255 C 129.983,375.255 129.368,374.901 130.323,374.865 C 135.243,374.331 134.798,375.491 137.049,375.545 C 139.293,375.601 138.703,374.135 143.773,375.205 C 143.849,375.255 144.209,375.595 144.209,375.545 Z" stroke="#bf9108" fill="#bf9108" stroke-width="0.5" marker-start="none" marker-end="none" stroke-miterlimit="79.8403193612775"/>
      <g id="Group_13">
       <path d="M 96.094,377.441 C 108.609,385.401 131.043,379.916 132.263,369.29 C 133.053,362.398 129.153,356.053 127.528,354.138 C 116.878,341.591 102.104,343.356 97.609,347.551 C 89.599,350.828 86.707,371.48 96.094,377.441 Z" stroke="#000000" stroke-width="1.555" marker-start="none" marker-end="none" stroke-miterlimit="79.8403193612775"/>
       <path d="M 94.419,375.501 C 92.884,375.501 88.954,374.581 88.884,374.361 C 88.617,374.315 88.394,373.174 88.714,372.774 C 89.999,372.774 91.489,372.694 92.374,372.434 C 92.739,373.271 93.784,374.901 94.419,375.501 Z" stroke="#bf9108" fill="#bf9108" stroke-width="0.585" marker-start="none" marker-end="none" stroke-miterlimit="79.8403193612775"/>
      </g>
      <g id="Group_14">
       <path d="M 177.303,377.441 C 164.783,385.401 142.353,379.916 141.133,369.29 C 140.343,362.398 144.239,356.053 145.863,354.138 C 156.516,341.591 171.288,343.356 175.783,347.551 C 183.798,350.828 186.682,371.475 177.303,377.441 Z" stroke="#000000" stroke-width="1.555" marker-start="none" marker-end="none" stroke-miterlimit="79.8403193612775"/>
       <path d="M 178.978,375.501 C 180.513,375.501 184.438,374.581 184.513,374.355 C 184.778,374.315 184.997,373.171 184.683,372.774 C 183.398,372.774 181.908,372.691 181.023,372.431 C 180.653,373.271 179.608,374.901 178.978,375.501 Z" stroke="#bf9108" fill="#bf9108" stroke-width="0.585" marker-start="none" marker-end="none" stroke-miterlimit="79.8403193612775"/>
      </g>
     </g>
     <g id="Group_15" stroke-width="0.25" stroke-miterlimit="79.8403193612775">
      <g id="Group_16" stroke="#e5e5e5" fill="#bfbfbf">
       <path d="M 262.702,77.39 C 261.409,77.36 260.029,77.49 259.062,76.445 L 258.699,76.31 L 258.699,76.32 C 258.782,76.575 258.842,76.835 258.889,77.1 L 258.852,77.635 C 258.842,77.705 258.812,77.755 258.759,77.81 C 258.642,77.92 258.449,77.91 258.342,77.79 L 257.992,77.405 L 257.999,77.41 C 257.469,76.72 256.949,76.04 256.329,75.44 L 255.719,75.32 L 255.649,75.355 L 255.699,75.95 C 255.699,75.975 255.712,76.005 255.719,76.04 C 256.189,76.555 256.629,77.1 256.949,77.705 L 256.849,78.055 C 256.799,78.155 256.692,78.205 256.592,78.17 L 256.312,78.09 C 256.302,78.095 256.292,78.09 256.282,78.085 L 256.169,78.04 C 256.132,78.02 256.099,77.975 256.079,77.95 L 255.859,77.565 C 255.632,77.17 255.412,76.755 255.259,76.32 C 254.912,75.935 254.569,75.545 254.212,75.155 L 253.812,74.845 L 253.829,75.045 C 253.939,75.91 254.519,76.66 254.529,77.555 L 254.329,78.005 C 254.289,78.095 254.189,78.11 254.102,78.07 L 253.592,77.8 C 253.599,77.795 253.599,77.785 253.602,77.775 C 253.062,77.475 252.569,77.115 252.099,76.715 C 252.142,76.84 252.189,76.955 252.229,77.07 L 252.139,77.115 C 251.979,76.87 251.839,76.62 251.702,76.365 C 251.649,76.31 251.579,76.265 251.519,76.205 L 251.589,76.145 C 251.189,75.325 250.862,74.475 250.532,73.638 L 250.929,73.485 C 251.229,74.47 251.642,75.415 251.992,76.39 C 252.549,76.805 253.109,77.21 253.742,77.52 L 254.112,77.705 L 254.119,77.7 C 254.099,76.665 253.429,75.84 253.249,74.855 L 253.302,74.485 C 253.319,74.405 253.382,74.345 253.452,74.305 L 253.652,74.215 C 253.732,74.2 253.812,74.195 253.889,74.235 L 254.229,74.425 C 254.499,74.745 254.789,75.045 255.079,75.35 L 255.079,75.16 C 255.092,75.07 255.149,74.985 255.232,74.935 L 255.552,74.76 C 255.599,74.745 255.649,74.735 255.699,74.745 L 256.159,74.77 C 257.059,75.075 257.592,75.87 258.149,76.615 C 258.132,76.575 258.119,76.545 258.102,76.505 L 258.042,76.11 C 257.992,75.95 258.062,75.785 258.229,75.72 L 258.449,75.64 C 258.502,75.615 258.562,75.61 258.629,75.625 L 259.012,75.715 C 259.669,75.945 260.079,76.605 260.799,76.685 C 261.462,76.755 262.119,76.575 262.779,76.795 L 262.702,77.39 Z M 256.362,77.52 L 256.352,77.475 C 256.352,77.485 256.349,77.49 256.349,77.5 C 256.349,77.5 256.349,77.495 256.349,77.495 L 256.362,77.52 Z" marker-start="none" marker-end="none"/>
       <path d="M 250.899,77.015 C 250.899,77.025 250.902,77.04 250.909,77.05 L 250.649,77.075 L 250.432,77.235 L 250.389,77.145 C 250.382,77.135 250.379,77.115 250.369,77.105 L 250.232,77.125 C 249.099,75.79 248.299,74.16 246.879,73.088 L 246.539,73.008 L 246.559,73.385 C 246.642,74.085 247.039,74.7 247.139,75.405 L 247.342,75.915 C 247.362,75.97 247.359,76.025 247.329,76.075 C 247.269,76.145 247.169,76.155 247.102,76.11 L 246.652,75.715 L 246.662,75.71 C 245.492,73.818 243.859,72.268 242.659,70.405 L 242.799,70.309 C 244.189,71.835 245.399,73.495 246.679,75.105 C 246.432,74.505 246.199,73.905 246.099,73.255 L 246.052,72.955 C 246.052,72.905 246.062,72.855 246.082,72.815 L 246.132,72.715 C 246.149,72.698 246.152,72.668 246.182,72.655 L 246.259,72.568 C 246.312,72.525 246.389,72.505 246.449,72.505 L 246.499,72.535 C 247.439,72.805 248.149,73.438 248.752,74.2 C 246.512,70.049 244.442,65.809 242.032,61.754 L 242.599,61.338 C 243.799,62.763 244.532,64.463 245.379,66.084 C 247.199,69.585 248.952,73.058 250.709,76.585 L 250.899,77.015 Z M 250.832,76.96 L 250.842,76.94 L 250.812,76.955 C 250.819,76.955 250.829,76.96 250.832,76.96 Z" marker-start="none" marker-end="none"/>
       <path d="M 242.019,71.068 L 242.149,71.025 L 242.249,70.869 L 242.242,70.995 L 242.259,70.985 L 242.242,71.005 L 242.232,71.155 C 242.502,72.568 243.419,73.948 242.989,75.445 L 242.839,75.81 C 242.819,75.9 242.792,75.975 242.719,76.04 L 242.399,76.31 C 242.209,76.405 242.009,76.475 241.809,76.54 C 244.649,77.72 247.999,78.765 248.579,82.111 C 248.742,83.035 248.019,83.895 247.199,84.115 C 246.009,84.442 244.829,84.535 243.662,84.452 C 243.839,85.002 243.999,85.552 244.132,86.105 L 244.032,86.125 C 243.829,85.555 243.602,85.002 243.392,84.435 C 239.692,84.085 236.242,81.935 233.539,79.405 L 233.639,79.31 C 236.342,81.652 239.699,83.805 243.279,84.135 C 242.262,81.502 241.159,78.91 239.979,76.355 C 239.962,76.355 239.959,76.355 239.952,76.355 C 239.949,76.35 239.952,76.345 239.949,76.345 L 239.602,76.205 C 239.462,76.14 239.399,75.97 239.449,75.82 C 239.482,75.735 239.559,75.685 239.649,75.655 C 239.529,75.405 239.402,75.145 239.289,74.885 C 237.979,72.195 236.599,69.485 234.829,67.063 L 235.409,66.404 C 235.929,66.783 236.229,67.325 236.492,67.868 C 237.552,70.055 238.889,72.088 239.749,74.36 C 239.932,74.865 240.132,75.365 240.332,75.86 L 240.349,75.87 C 240.362,75.885 240.389,75.895 240.402,75.905 C 240.979,76.075 241.559,75.865 242.092,75.62 L 242.129,75.485 C 242.362,74.855 242.292,74.185 242.099,73.568 C 241.849,72.718 241.402,71.955 241.309,71.065 L 241.382,70.645 C 241.402,70.555 241.462,70.459 241.539,70.409 L 241.952,70.175 C 242.142,70.185 242.319,70.219 242.502,70.249 L 242.019,71.068 Z M 240.649,76.645 C 241.669,79.135 242.752,81.595 243.569,84.152 C 244.689,84.212 245.819,84.112 246.962,83.765 C 247.642,83.562 248.249,82.855 248.149,82.045 C 248.042,81.095 247.499,80.365 246.749,79.815 C 244.859,78.405 242.739,77.59 240.649,76.645 Z M 242.162,75.5 L 242.112,75.605 C 242.149,75.595 242.182,75.575 242.212,75.56 L 242.162,75.5 Z" marker-start="none" marker-end="none"/>
       <path d="M 231.459,69.305 L 230.912,69.625 L 231.012,69.758 C 231.092,69.825 231.102,69.865 231.099,69.965 L 231.152,70.855 C 231.149,70.955 231.099,71.065 231.029,71.145 C 230.879,71.248 230.682,71.225 230.532,71.098 L 229.979,70.405 C 229.899,70.339 229.852,70.209 229.902,70.099 L 230.032,69.538 L 229.469,68.718 L 227.539,68.225 L 227.059,69.055 L 227.132,68.975 L 226.712,70.385 C 226.739,70.419 226.662,70.499 226.642,70.555 C 226.509,70.705 226.269,70.699 226.149,70.505 L 224.899,69.135 C 224.659,68.648 224.399,68.225 224.162,67.745 L 223.492,66.848 L 223.739,68.245 C 223.739,68.245 223.739,68.245 223.439,70.175 C 223.439,70.175 223.439,70.175 223.409,70.235 C 223.389,70.295 223.299,70.419 223.089,70.505 C 222.942,70.365 222.942,70.365 221.649,69.148 C 221.649,69.148 221.209,68.505 220.832,67.895 C 220.419,67.305 220.379,67.233 219.262,65.543 C 219.262,65.754 219.259,66.204 219.252,67.163 C 219.252,67.163 219.252,67.163 219.212,67.183 C 219.212,67.183 219.212,67.188 219.242,67.448 C 219.102,67.625 218.979,67.808 218.839,68.005 C 218.969,67.998 219.129,67.988 219.292,67.985 C 219.312,68.255 219.349,68.618 219.399,69.118 C 219.399,69.118 219.389,69.215 219.339,69.335 C 219.269,69.405 219.119,69.508 218.959,69.475 C 218.889,69.368 218.849,69.325 218.259,68.508 L 217.399,68.408 C 217.359,68.435 217.359,68.435 217.359,68.435 L 216.149,67.898 C 215.092,66.773 214.309,65.503 214.219,63.913 L 214.139,63.333 C 214.162,63.168 214.259,63.043 214.442,63.013 L 215.159,63.023 C 215.202,63.003 215.319,63.058 215.379,63.088 L 216.139,63.938 C 216.912,65.323 217.752,66.654 218.612,68.008 C 218.649,68.005 218.669,68.005 218.702,68.005 L 218.702,67.955 C 218.669,67.255 218.639,66.549 218.599,65.849 L 218.632,65.303 C 218.652,65.253 218.642,65.203 218.702,65.138 L 218.962,64.698 C 218.962,64.698 219.002,64.683 218.992,64.643 C 219.142,64.538 219.329,64.508 219.469,64.648 L 220.212,65.453 C 220.689,66.654 221.389,67.725 222.209,68.745 L 222.899,69.448 L 222.942,69.265 C 222.962,68.595 222.989,67.908 223.009,67.238 L 222.892,65.944 C 222.899,65.849 222.909,65.749 223.012,65.653 C 223.149,65.503 223.349,65.523 223.499,65.658 L 224.162,66.404 C 224.652,67.163 225.082,68.005 225.529,68.795 L 226.229,69.595 L 226.429,68.768 L 226.449,68.715 L 227.039,67.635 C 227.089,67.515 227.249,67.455 227.349,67.455 L 228.602,67.498 C 228.969,67.695 229.369,67.865 229.739,68.058 L 230.519,69.105 L 231.352,68.668 C 231.909,68.745 232.442,68.868 232.992,68.945 L 231.239,69.345 L 231.459,69.305 Z M 217.249,67.043 C 217.249,67.043 216.929,66.449 216.642,65.844 C 216.319,65.263 216.302,65.243 214.999,63.603 C 214.949,63.603 214.882,63.603 214.799,63.603 C 214.849,63.903 214.959,64.488 215.179,65.648 C 215.179,65.648 215.179,65.648 215.119,65.618 C 215.119,65.618 215.119,65.618 217.489,68.055 C 217.532,68.055 217.649,68.055 217.919,68.038 C 217.719,67.765 217.499,67.455 217.202,67.053 C 217.202,67.053 217.202,67.053 217.249,67.043 Z" marker-start="none" marker-end="none"/>
       <path d="M 219.319,67.335 C 219.319,67.335 219.269,67.203 219.409,67.445 C 219.732,67.655 219.382,67.975 219.382,67.975 C 219.349,67.985 219.319,67.985 219.292,67.985 C 219.262,67.735 219.249,67.558 219.242,67.448 C 219.262,67.405 219.299,67.368 219.319,67.335 Z" marker-start="none" marker-end="none"/>
       <path d="M 210.899,61.123 L 211.529,63.388 C 212.119,65.954 213.042,68.425 213.962,70.889 C 216.589,72.685 218.389,75.27 218.449,79.47 L 218.249,81.412 C 218.242,81.512 218.232,81.612 218.149,81.645 C 218.042,81.735 217.849,81.715 217.752,81.605 L 217.059,80.685 C 215.752,77.52 214.512,74.35 213.379,71.145 C 212.109,70.259 210.652,69.565 209.112,68.998 C 209.962,72.005 210.882,74.995 212.059,77.9 L 211.939,77.95 C 210.509,75.005 209.499,71.918 208.597,68.805 C 205.747,67.808 202.657,67.203 199.967,66.594 L 197.977,64.788 C 197.897,64.718 197.907,64.618 197.937,64.558 L 199.447,62.544 C 200.152,61.554 200.932,60.583 201.642,59.588 L 204.142,57.419 C 204.227,57.389 204.307,57.352 204.382,57.419 L 206.217,58.952 L 206.257,58.938 C 207.247,62.099 208.082,65.303 208.979,68.498 C 210.442,69.008 211.849,69.605 213.099,70.339 C 212.139,67.588 211.242,64.803 210.452,61.989 L 210.229,61.023 C 210.159,60.858 210.242,60.688 210.402,60.618 L 211.229,60.398 C 211.859,60.673 212.479,60.913 213.109,61.198 L 211.209,60.983 L 210.899,61.123 Z M 205.762,59.132 L 204.247,57.922 L 203.367,58.389 C 201.602,59.982 200.427,62.114 198.762,63.858 L 198.382,64.603 L 198.967,65.258 C 201.802,66.464 205.252,67.238 208.452,68.315 C 207.577,65.248 206.777,62.154 205.762,59.132 Z M 216.269,77.55 L 217.802,80.515 L 217.919,79.585 L 217.882,79.6 C 217.839,76.11 216.449,73.665 214.349,71.885 C 215.049,73.755 215.739,75.635 216.269,77.55 Z" marker-start="none" marker-end="none"/>
      </g>
      <g id="Group_17" stroke="none" fill="#000000">
       <path d="M 263.242,78.76 C 261.882,78.735 260.419,78.865 259.412,77.765 L 259.029,77.635 L 259.029,77.645 C 259.112,77.91 259.179,78.185 259.219,78.455 L 259.192,79.015 C 259.179,79.095 259.149,79.155 259.092,79.21 C 258.959,79.325 258.759,79.31 258.649,79.185 L 258.282,78.775 L 258.289,78.79 C 257.732,78.06 257.182,77.345 256.532,76.705 L 255.892,76.59 L 255.812,76.62 L 255.862,77.25 C 255.869,77.275 255.889,77.31 255.892,77.345 C 256.382,77.89 256.842,78.455 257.182,79.105 L 257.082,79.46 C 257.029,79.565 256.909,79.62 256.802,79.59 L 256.512,79.505 C 256.502,79.505 256.492,79.505 256.482,79.5 L 256.362,79.445 C 256.329,79.425 256.292,79.39 256.262,79.355 L 256.042,78.955 C 255.799,78.535 255.569,78.1 255.402,77.645 C 255.042,77.235 254.682,76.815 254.302,76.415 L 253.882,76.085 L 253.899,76.295 C 254.012,77.21 254.632,78 254.632,78.945 L 254.419,79.415 C 254.382,79.505 254.279,79.525 254.192,79.485 L 253.649,79.195 C 253.652,79.19 253.649,79.175 253.659,79.17 C 253.099,78.855 252.579,78.475 252.082,78.055 C 252.129,78.185 252.169,78.305 252.209,78.435 L 252.112,78.475 C 251.949,78.22 251.799,77.955 251.659,77.695 C 251.599,77.635 251.532,77.585 251.469,77.52 L 251.542,77.455 C 251.112,76.6 250.782,75.705 250.429,74.815 L 250.842,74.655 C 251.159,75.695 251.599,76.69 251.962,77.705 C 252.549,78.155 253.142,78.575 253.802,78.905 L 254.199,79.105 L 254.202,79.09 C 254.189,78.005 253.479,77.135 253.289,76.1 L 253.349,75.705 C 253.362,75.615 253.432,75.555 253.502,75.52 L 253.712,75.425 C 253.799,75.405 253.889,75.4 253.959,75.445 L 254.312,75.65 C 254.599,75.975 254.902,76.3 255.209,76.615 L 255.209,76.42 C 255.229,76.32 255.289,76.225 255.379,76.175 L 255.719,76 C 255.762,75.975 255.819,75.965 255.869,75.975 L 256.349,76.01 C 257.299,76.325 257.859,77.165 258.442,77.955 C 258.429,77.91 258.412,77.87 258.402,77.835 L 258.332,77.415 C 258.282,77.25 258.359,77.07 258.529,77.01 L 258.759,76.915 C 258.819,76.905 258.889,76.9 258.949,76.91 L 259.352,77.005 C 260.049,77.245 260.479,77.94 261.232,78.02 C 261.939,78.095 262.632,77.905 263.312,78.14 L 263.242,78.76 Z M 256.569,78.905 L 256.552,78.855 C 256.559,78.86 256.549,78.865 256.552,78.875 C 256.552,78.875 256.549,78.875 256.549,78.87 L 256.569,78.905 Z" marker-start="none" marker-end="none"/>
       <path d="M 250.812,78.375 C 250.812,78.39 250.819,78.395 250.829,78.405 L 250.549,78.44 L 250.319,78.6 L 250.279,78.505 C 250.269,78.495 250.262,78.485 250.259,78.465 L 250.109,78.49 C 248.919,77.085 248.082,75.365 246.582,74.24 L 246.219,74.155 L 246.249,74.55 C 246.332,75.29 246.749,75.935 246.849,76.67 L 247.069,77.21 C 247.099,77.27 247.092,77.335 247.052,77.385 C 246.999,77.455 246.892,77.465 246.819,77.415 L 246.349,77.005 L 246.352,77 C 245.119,75.005 243.402,73.375 242.149,71.408 L 242.289,71.308 C 243.749,72.915 245.029,74.66 246.362,76.36 C 246.109,75.735 245.859,75.1 245.762,74.405 L 245.712,74.1 C 245.712,74.045 245.729,73.995 245.742,73.955 L 245.799,73.848 C 245.809,73.825 245.819,73.805 245.849,73.775 L 245.939,73.695 C 245.992,73.645 246.059,73.618 246.132,73.625 L 246.182,73.655 C 247.169,73.938 247.912,74.605 248.559,75.405 C 246.202,71.038 244.012,66.574 241.482,62.309 L 242.082,61.864 C 243.342,63.368 244.109,65.158 244.999,66.858 C 246.912,70.545 248.769,74.21 250.619,77.915 L 250.812,78.375 Z M 250.742,78.315 L 250.749,78.29 L 250.732,78.305 C 250.732,78.305 250.739,78.31 250.742,78.315 Z" marker-start="none" marker-end="none"/>
       <path d="M 241.462,72.108 L 241.599,72.065 L 241.702,71.905 L 241.699,72.035 L 241.729,72.018 L 241.699,72.045 L 241.692,72.198 C 241.982,73.698 242.949,75.14 242.489,76.715 L 242.332,77.105 C 242.309,77.195 242.282,77.275 242.202,77.345 L 241.869,77.635 C 241.669,77.725 241.459,77.805 241.249,77.865 C 244.232,79.11 247.762,80.21 248.369,83.735 C 248.542,84.705 247.782,85.605 246.919,85.852 C 245.662,86.191 244.429,86.285 243.202,86.201 C 243.382,86.771 243.549,87.355 243.692,87.942 L 243.589,87.962 C 243.369,87.362 243.142,86.771 242.909,86.175 C 239.019,85.812 235.382,83.552 232.542,80.892 L 232.642,80.79 C 235.492,83.252 239.019,85.515 242.792,85.862 C 241.729,83.095 240.562,80.365 239.312,77.685 C 239.302,77.675 239.299,77.675 239.299,77.67 C 239.292,77.665 239.299,77.66 239.292,77.66 L 238.929,77.515 C 238.782,77.445 238.702,77.27 238.752,77.11 C 238.799,77.02 238.882,76.965 238.969,76.945 C 238.842,76.67 238.719,76.4 238.592,76.125 C 237.212,73.298 235.759,70.445 233.899,67.898 L 234.509,67.203 C 235.049,67.598 235.369,68.168 235.649,68.748 C 236.769,71.038 238.169,73.188 239.069,75.575 C 239.269,76.105 239.479,76.635 239.692,77.155 L 239.702,77.165 C 239.729,77.175 239.749,77.19 239.769,77.2 C 240.369,77.385 240.982,77.16 241.542,76.905 L 241.582,76.755 C 241.832,76.1 241.749,75.395 241.552,74.75 C 241.292,73.855 240.819,73.045 240.719,72.105 L 240.799,71.658 C 240.829,71.568 240.889,71.475 240.959,71.415 L 241.399,71.168 C 241.599,71.175 241.789,71.215 241.982,71.248 L 241.462,72.108 Z M 240.029,77.985 C 241.099,80.605 242.249,83.192 243.099,85.875 C 244.279,85.952 245.469,85.842 246.679,85.475 C 247.389,85.262 248.029,84.515 247.929,83.662 C 247.802,82.662 247.239,81.905 246.449,81.315 C 244.459,79.835 242.229,78.97 240.029,77.985 Z M 241.619,76.77 L 241.569,76.895 C 241.602,76.87 241.642,76.855 241.679,76.845 L 241.619,76.77 Z" marker-start="none" marker-end="none"/>
       <path d="M 230.349,70.255 L 229.782,70.599 L 229.889,70.735 C 229.959,70.805 229.982,70.849 229.969,70.955 L 230.032,71.885 C 230.019,71.988 229.962,72.108 229.899,72.188 C 229.742,72.298 229.532,72.285 229.379,72.138 L 228.792,71.408 C 228.712,71.345 228.659,71.208 228.712,71.088 L 228.849,70.499 L 228.259,69.645 L 226.219,69.118 L 225.719,69.989 L 225.799,69.908 L 225.359,71.388 C 225.382,71.435 225.302,71.505 225.282,71.565 C 225.142,71.718 224.889,71.718 224.759,71.518 L 223.442,70.069 C 223.199,69.558 222.919,69.115 222.669,68.608 L 221.962,67.665 L 222.219,69.138 C 222.219,69.138 222.219,69.138 221.902,71.168 C 221.902,71.168 221.902,71.168 221.882,71.235 C 221.852,71.295 221.752,71.435 221.542,71.515 C 221.389,71.375 221.389,71.375 220.032,70.095 C 220.032,70.095 219.562,69.415 219.159,68.765 C 218.739,68.145 218.689,68.068 217.512,66.299 C 217.512,66.519 217.509,66.993 217.502,68.005 C 217.502,68.005 217.502,68.005 217.462,68.018 C 217.462,68.018 217.462,68.025 217.492,68.298 C 217.349,68.495 217.209,68.688 217.062,68.885 C 217.202,68.875 217.362,68.865 217.542,68.858 C 217.569,69.155 217.602,69.538 217.649,70.055 C 217.649,70.055 217.642,70.159 217.592,70.289 C 217.519,70.359 217.359,70.469 217.199,70.439 C 217.112,70.325 217.082,70.275 216.459,69.415 L 215.552,69.315 C 215.509,69.335 215.509,69.335 215.509,69.335 L 214.239,68.768 C 213.129,67.598 212.299,66.254 212.202,64.583 L 212.112,63.963 C 212.149,63.803 212.249,63.658 212.442,63.638 L 213.199,63.643 C 213.242,63.623 213.359,63.683 213.419,63.703 L 214.229,64.603 C 215.042,66.064 215.929,67.458 216.832,68.895 C 216.862,68.895 216.892,68.888 216.932,68.888 L 216.929,68.835 C 216.892,68.095 216.849,67.355 216.812,66.609 L 216.849,66.049 C 216.879,65.989 216.852,65.944 216.929,65.864 L 217.199,65.403 C 217.199,65.403 217.249,65.393 217.229,65.348 C 217.389,65.233 217.579,65.208 217.732,65.353 L 218.512,66.204 C 219.009,67.468 219.749,68.595 220.612,69.658 L 221.349,70.405 L 221.389,70.215 C 221.409,69.505 221.439,68.795 221.459,68.075 L 221.332,66.714 C 221.342,66.609 221.349,66.504 221.462,66.409 C 221.602,66.254 221.812,66.274 221.969,66.414 L 222.679,67.203 C 223.192,68.005 223.639,68.888 224.102,69.708 L 224.842,70.555 L 225.052,69.698 L 225.082,69.635 L 225.699,68.495 C 225.749,68.368 225.919,68.305 226.029,68.308 L 227.349,68.355 C 227.732,68.555 228.152,68.745 228.539,68.948 L 229.359,70.045 L 230.249,69.588 C 230.829,69.658 231.382,69.798 231.962,69.875 L 230.112,70.295 L 230.349,70.255 Z M 215.392,67.868 C 215.392,67.868 215.049,67.248 214.749,66.609 C 214.412,66.004 214.399,65.974 213.029,64.253 C 212.969,64.253 212.899,64.253 212.809,64.253 C 212.869,64.563 212.989,65.188 213.212,66.404 C 213.212,66.404 213.212,66.404 213.149,66.374 C 213.149,66.374 213.152,66.374 215.642,68.945 C 215.692,68.938 215.809,68.938 216.099,68.918 C 215.892,68.638 215.652,68.305 215.349,67.888 C 215.349,67.888 215.349,67.888 215.392,67.868 Z" marker-start="none" marker-end="none"/>
       <path d="M 217.579,68.175 C 217.579,68.175 217.529,68.048 217.669,68.295 C 218.002,68.508 217.642,68.855 217.642,68.855 C 217.599,68.855 217.579,68.858 217.542,68.858 C 217.512,68.605 217.499,68.418 217.492,68.298 C 217.512,68.255 217.549,68.215 217.579,68.175 Z" marker-start="none" marker-end="none"/>
       <path d="M 208.712,61.649 L 209.369,64.023 C 209.999,66.724 210.959,69.325 211.942,71.918 C 214.699,73.805 216.592,76.54 216.659,80.955 L 216.449,83.005 C 216.442,83.105 216.432,83.205 216.342,83.245 C 216.232,83.342 216.019,83.315 215.929,83.205 L 215.199,82.235 C 213.819,78.905 212.512,75.56 211.312,72.188 C 209.982,71.258 208.447,70.535 206.837,69.925 C 207.732,73.095 208.692,76.24 209.932,79.3 L 209.799,79.355 C 208.297,76.255 207.242,73.008 206.287,69.735 C 203.292,68.685 200.037,68.038 197.202,67.398 L 195.102,65.498 C 195.032,65.423 195.042,65.318 195.062,65.258 L 196.652,63.138 C 197.402,62.094 198.212,61.068 198.962,60.022 L 201.597,57.742 C 201.687,57.709 201.767,57.672 201.847,57.749 L 203.787,59.352 L 203.827,59.342 C 204.867,62.663 205.742,66.049 206.682,69.405 C 208.227,69.949 209.702,70.565 211.032,71.345 C 210.012,68.445 209.062,65.518 208.247,62.554 L 207.997,61.544 C 207.937,61.363 208.012,61.183 208.192,61.113 L 209.052,60.883 C 209.719,61.168 210.369,61.418 211.042,61.714 L 209.039,61.493 L 208.712,61.649 Z M 203.302,59.548 L 201.702,58.272 L 200.787,58.758 C 198.927,60.442 197.687,62.688 195.937,64.518 L 195.532,65.303 L 196.152,65.999 C 199.142,67.265 202.762,68.085 206.142,69.215 C 205.207,65.989 204.367,62.723 203.302,59.548 Z M 214.362,78.935 L 215.979,82.055 L 216.099,81.072 L 216.059,81.095 C 216.009,77.415 214.549,74.85 212.339,72.968 C 213.079,74.945 213.799,76.91 214.362,78.935 Z" marker-start="none" marker-end="none"/>
      </g>
     </g>
    </g>
   </g>
  </g>
 </g>
</svg>
