<?xml version="1.0" encoding="utf-8"?>
<!DOCTYPE svg PUBLIC "-//W3C//DTD SVG 1.1 Tiny//EN" "http://www.w3.org/Graphics/SVG/1.1/DTD/svg11-tiny.dtd">
<svg version="1.1" baseProfile="tiny" id="Layer_1" xmlns="http://www.w3.org/2000/svg" xmlns:xlink="http://www.w3.org/1999/xlink"
	 x="0px" y="0px" width="48px" height="48px" viewBox="0 0 48 48" xml:space="preserve">

<rect x="3.00049" y="2.66553" fill="#FF8000" width="41.66846" height="41.49951"/>
<g>
	<path d="M10.33691,16.59229c0.70215,0.4502,1.71045,0.79248,2.79102,0.79248c1.60205,0,2.53857-0.82813,2.53857-2.0708
		c0-1.11621-0.64844-1.78271-2.28662-2.39453c-1.98047-0.72021-3.20508-1.76465-3.20508-3.45703
		c0-1.89063,1.56641-3.29492,3.92529-3.29492c1.22412,0,2.14258,0.28809,2.66455,0.59424l-0.43213,1.27832
		c-0.37793-0.23438-1.18799-0.57617-2.28662-0.57617c-1.65625,0-2.28662,0.99023-2.28662,1.81836
		c0,1.13428,0.73828,1.69238,2.4126,2.34082c2.05273,0.81006,3.0791,1.78223,3.0791,3.56494
		c0,1.87256-1.36865,3.51123-4.23145,3.51123c-1.17041,0-2.44873-0.36035-3.09668-0.79248L10.33691,16.59229z"/>
	<path d="M28.66406,17.96094c-0.70313,0.27002-2.10742,0.66602-3.74609,0.66602c-1.83594,0-3.34863-0.46826-4.53662-1.60254
		c-1.04443-1.0083-1.69287-2.62891-1.69287-4.51904c0-3.61914,2.50293-6.26611,6.57227-6.26611
		c1.4043,0,2.52051,0.30615,3.04297,0.55811l-0.39648,1.27832c-0.64746-0.30615-1.45801-0.52197-2.68262-0.52197
		c-2.95264,0-4.87939,1.83643-4.87939,4.87939c0,3.0791,1.83643,4.89746,4.68115,4.89746c1.02637,0,1.72852-0.14404,2.08887-0.32422
		V13.3877h-2.44922v-1.26074h3.99805V17.96094z"/>
	<path d="M37.30273,12.81152h-4.7002v4.375h5.25781v1.31445h-6.8418V6.36523h6.57129v1.31445h-4.9873v3.83496h4.7002V12.81152z"/>
	<path d="M12.49756,36.2832l-1.26025,3.81738H9.6167l4.12305-12.13574h1.89063l4.14111,12.13574h-1.67432l-1.29639-3.81738H12.49756
		z M16.47656,35.05957l-1.20605-3.49316c-0.25244-0.79297-0.43213-1.5127-0.6123-2.21484H14.604
		c-0.16211,0.70215-0.35986,1.45801-0.59424,2.19629l-1.18799,3.51172H16.47656z"/>
	<path d="M21.55078,28.12695c0.75635-0.14355,1.74658-0.25195,3.00781-0.25195c1.54785,0,2.68164,0.36035,3.40234,1.00781
		c0.66602,0.57617,1.08008,1.45898,1.08008,2.53906c0,1.09863-0.32422,1.96289-0.9541,2.59277
		c-0.82813,0.88281-2.17871,1.33203-3.70898,1.33203c-0.46826,0-0.90039-0.01758-1.26025-0.10742v4.86133h-1.56689V28.12695z
		 M23.11768,33.96094c0.3418,0.08984,0.79199,0.12598,1.29639,0.12598c1.9082,0,3.04297-0.93652,3.04297-2.5752
		c0-1.62012-1.13477-2.39453-2.86328-2.39453c-0.68408,0-1.20605,0.07227-1.47607,0.12598V33.96094z"/>
	<path d="M31.12695,28.12695c0.75684-0.14355,1.74707-0.25195,3.00684-0.25195c1.54883,0,2.68262,0.36035,3.40332,1.00781
		c0.66602,0.57617,1.08008,1.45898,1.08008,2.53906c0,1.09863-0.32422,1.96289-0.9541,2.59277
		c-0.82813,0.88281-2.17871,1.33203-3.70898,1.33203c-0.46777,0-0.90039-0.01758-1.26074-0.10742v4.86133h-1.56641V28.12695z
		 M32.69336,33.96094c0.34277,0.08984,0.79297,0.12598,1.29688,0.12598c1.9082,0,3.04297-0.93652,3.04297-2.5752
		c0-1.62012-1.13477-2.39453-2.86328-2.39453c-0.68359,0-1.20605,0.07227-1.47656,0.12598V33.96094z"/>
</g>
</svg>
